<?xml version="1.0" encoding="utf-8"?>
<!-- Generator: Adobe Illustrator 16.0.0, SVG Export Plug-In . SVG Version: 6.00 Build 0)  -->
<!DOCTYPE svg PUBLIC "-//W3C//DTD SVG 1.1//EN" "http://www.w3.org/Graphics/SVG/1.1/DTD/svg11.dtd">
<svg version="1.1" id="Layer_1" xmlns="http://www.w3.org/2000/svg" xmlns:xlink="http://www.w3.org/1999/xlink" x="0px" y="0px"
	 width="2000px" height="2000px" viewBox="0 0 2000 2000" enable-background="new 0 0 2000 2000" xml:space="preserve">
<g display="none">
	<g display="inline">
		<path fill="#010101" d="M1262.167,1152.229c25.934,0.6,30.7,11.9,14.3,33.9c-20.467-3.133-36.535,2.935-48.201,18.2
			c2.466,3.735,5.934,7.235,10.4,10.501c58.534,12.268,80.268,37.435,65.202,75.501c-30.401,37.001-75.169,51.768-134.304,44.302
			c2.801-4.133,7.133-8.033,13.001-11.7c7.266-1.733,15.533-5.2,24.8-10.4c0.866,0.134,1.733-0.3,2.601-1.3
			c7.333-1.533,15.166-5.001,23.5-10.4c15.601-4.666,29.934-13.801,43.001-27.401c-0.267-4.8-2.434-9.133-6.5-13
			c-43.801-8.6-68.568-26.866-74.302-54.801C1198.798,1174.163,1220.966,1156.362,1262.167,1152.229z"/>
		<path fill="#010101" d="M1338.208,1152.229c5.533-0.333,11.101,1.267,16.701,4.8l4.8,27.501l1.2,4.8c0.065,3.4,0.865,7.4,2.399,12
			c0.266,5.668,1.466,12.468,3.601,20.4c-0.067,1.2,0.333,2.4,1.2,3.601v6l2.399,6c-0.066,1.867,0.333,3.867,1.2,6l1.2,7.101
			l1.2,4.8c7-11.4,7.4-24.166,1.2-38.301l3.6-7.2c9.066-8.133,19.033-11.333,29.901-9.6l2.399-2.4l3.601-3.601
			c0.933,0.135,1.732,0.935,2.399,2.4c1.733,11.801,1.333,25.801-1.199,42.001c1.865,3.468,3.865,8.234,6,14.301
			c2.399,5.267,4.399,11.667,6,19.2l1.2,2.399l1.199,4.801c2.866-3.601,5.666-8.4,8.4-14.4l1.2-2.4l1.2-2.399l6-12.001
			c1.133-3.2,2.733-6.766,4.8-10.7l1.2-2.399l1.2-3.601l1.2-2.4l1.2-3.6c2.665-4.065,5.032-9.266,7.1-15.601l2.4-4.8l2.4-2.4
			l1.199-3.6l2.4-3.601l2.4-4.8c3.2-5.466,8-10.233,14.4-14.301c-0.268,8.135-2.268,16.9-6,26.301
			c0.933,15.601-2.268,31.568-9.601,47.901c-5,34.735-22.968,64.302-53.901,88.702c-1.667-5.266-4.468-11.666-8.4-19.2l-1.2-3.601
			l-2.399-2.4c0.532-6.665-1.035-13.833-4.7-21.5c-0.4-3.601-1.2-7.601-2.4-12c-3.2,5.334-6,12.534-8.4,21.601l-2.399,2.399v3.601
			c-1.268,2.667-3.268,5.834-6,9.5l-2.4,6c-2.667,2.2-5.867,5.4-9.601,9.601h-9.6c-5.001-8.666-8.2-19.033-9.601-31.101
			c-0.334-3.2-1.5-6.4-3.5-9.601c0.8-12.601-1.601-26.601-7.2-42.001c-0.268-7.266-1.867-15.633-4.8-25.101c0-4-0.801-8.4-2.4-13.2
			l-1.2-7.2l-1.2-8.4c-5.334-6.2-8.534-13.766-9.6-22.7C1324.874,1165.496,1330.074,1158.296,1338.208,1152.229z"/>
		<path fill="#010101" d="M1579.654,1152.628c4.266,4.468,10.3,8.768,18.101,12.9l-2.601,10.301
			c26.201,55.136,21.901,109.402-12.899,162.804l-9.4-23.001c-3.4,1.601-2.835-11.4,1.7-39.001l-29.901,6l-11.5,40.501l-12.9,12.9
			c-6.468-1.665-12.5-5.966-18.101-12.9l2.601-36.2c3.933-10.666,8.6-21.434,14-32.301l-1.3-12.7l4.899-12.301l11.501-7l12.2-36.4
			l10.4-18.101L1579.654,1152.628z M1574.654,1245.23l-6.3-24.601l-10.9,26.001L1574.654,1245.23z"/>
		<path fill="#010101" d="M1652.796,1152.628c5.865,1.335,10.732,3.101,14.6,5.301c51.802-4.133,81.535,14.5,89.202,55.901
			c0,43.468-28.4,59.901-85.201,49.301c-2.268,6.601-3.601,14.567-4.001,23.9c-16.734,65.602-30.034,67.835-39.9,6.7
			c4.533-6.8,6.766-14.8,6.7-24l1.3-6.601c-11.933-14.601-10.167-27.934,5.3-40.001c-0.267-5.2,0.633-10.966,2.7-17.301
			c-0.067-3.865,0.366-8.3,1.3-13.3C1631.128,1179.063,1633.795,1165.763,1652.796,1152.628z M1679.396,1192.529l-2.7,17.301v4v4
			l-1.3,4v6.7l-1.301,4c16.533,6.135,32.066,3.9,46.602-6.7C1723.563,1201.164,1709.797,1190.063,1679.396,1192.529z"/>
	</g>
	<g display="inline">
		<path fill="#D12227" stroke="#241E23" stroke-width="13.5644" stroke-miterlimit="10" d="M438.802,1153.535h17.801h4.4
			c45.202,16.068,51.135,35.802,17.801,59.203l-10.4-1.4c-3.867-4.2-4.868-9.633-3-16.301c-12.468-7.8-23.801-5.833-34.002,5.9
			c-17.401,23.868-22.368,52.003-14.901,84.404c10.266,25.068,31.535,31.002,63.803,17.801c2.601-0.399,4.566,1.067,5.9,4.4
			c-9.067,22.136-26.869,32.502-53.403,31.102c-24.269,2.866-40.069-8-47.402-32.602c-20.401-54.868-8.035-103.738,37.102-146.607
			C427.435,1158.303,432.868,1156.335,438.802,1153.535z"/>
		<path fill="#D12227" stroke="#241E23" stroke-width="13.5644" stroke-miterlimit="10" d="M542.048,1154.035h2.6
			c5.333-0.6,10.466,1.534,15.401,6.4c0.933,8.135,0.065,17.135-2.6,27.001l-1.3,9.001v3.8l-1.3,2.601c0,2.8-0.4,6.234-1.2,10.301
			c-0.267,3.8-1.134,8.067-2.6,12.801v5.2l12.801,5.1l9,3.9h3.9l2.6,1.3l9,1.2l8.901,1.3c4.666-14.4,6.4-31.102,5.2-50.103l1.3-3.8
			v-7.7l-1.3-2.601l-3.9-5.1c7.2-21.067,19.201-24.935,36.002-11.602v25.702v3.8v5.2v3.801c0,2.8-0.435,6.234-1.3,10.3v3.9v3.801
			c0,2.8-0.434,6.234-1.3,10.3v3.9l-1.3,5.101c0.2,3.067,1.066,6.067,2.6,9v10.301v3.8l-5.1,14.102c-1.935,4.2-3.234,9.367-3.9,15.5
			l-1.3,3.801l-2.5,3.9l-1.3,3.8l-1.3,5.2l-1.3,3.801l-2.6,3.899c-1.267,2.468-2.535,5.9-3.8,10.301l-10.3,12.801
			c-5-11.267-7.135-24.534-6.4-39.802c-0.4-5.801-2.1-12.667-5.101-20.602v-3.8c-8.535-0.934-19.701-3.5-33.501-7.7l-2.5-1.301
			l-3.9-1.3l-2.5-1.3l-3.9,24.401l-1.3,5.2l-1.3,2.5v3.9l-12.801,27.001l-1.3,3.801c-2.601,1.734-6.035,3.434-10.301,5.1l-2.5-11.5
			l-1.3-6.4c0.066-1.333-0.367-2.634-1.3-3.9l-1.3-24.401c2.466-7.466,4.6-17.334,6.4-29.602l1.3-8.9c0.133-4.466,1-9.2,2.6-14.201
			c-0.4-3.333,0.033-6.766,1.3-10.3v-3.801c1.066-4.065,1.9-9.2,2.5-15.4c0.8-2.333,1.233-5.767,1.3-10.301l2.6-10.301v-3.8
			c1.4-4.533,2.266-10.101,2.6-16.701C533.647,1163.103,537.913,1159.235,542.048,1154.035z"/>
		<path fill="#D12227" stroke="#241E23" stroke-width="13.5644" stroke-miterlimit="10" d="M724.097,1154.235
			c4.266,4.467,10.3,8.768,18.101,12.9l-2.601,10.301c26.202,55.137,21.901,109.405-12.9,162.809l-9.4-23.001
			c-3.4,1.6-2.835-11.401,1.7-39.002l-29.901,6l-11.5,40.502l-12.901,12.9c-6.467-1.665-12.5-5.966-18.101-12.9l2.6-36.202
			c3.933-10.666,8.601-21.434,14.001-32.302l-1.3-12.7l4.9-12.301l11.5-7l12.201-36.402l10.401-18.101L724.097,1154.235z
			 M719.097,1246.84l-6.3-24.602l-10.9,26.002L719.097,1246.84z"/>
		<path fill="#D12227" stroke="#241E23" stroke-width="13.5644" stroke-miterlimit="10" d="M803.642,1153.835
			c9.201,1.601,17.001,6.801,23.401,15.601l-3.9,20.701v3.9l-1.3,3.9v3.9l-1.3,5.2v5.2l14.201-5.2
			c15.667-11.201,34.268-16.401,55.803-15.601c-6.735,25.136-24.469,41.569-53.203,49.303c3,7.2,8.201,15.867,15.601,26.001l2.6,3.8
			l1.3,2.601c0.2,0.867,1.066,1.734,2.6,2.6l1.3,3.9l2.6,3.9c0.2,0.867,1.066,1.734,2.6,2.601c1.533,4.867,4.1,10.935,7.701,18.2
			l1.3,5.2c0.266,3.735,1.566,8.035,3.9,12.901l-2.6,7.8c-0.535,2.668-2.268,5.7-5.201,9.101l-7.7-2.6l-2.6-1.301
			c-3.467-5.466-8.667-11.101-15.601-16.9l-1.3-3.801c-1.867-3.332-4.467-6.8-7.8-10.4l-3.9-9.101
			c-2.334-4.399-5.768-9.166-10.3-14.301l-1.3-3.899l-2.6-3.9l-2.6-2.601l-2.6-5.1c-3.8,7.935-5.968,17.001-6.5,27.201
			c-2.535,4.4-5.135,10.035-7.8,16.9l-1.3,3.9c-2.667,3.468-4.8,7.768-6.4,12.901l-2.6,1.3l-1.3,2.6l-2.6,2.601
			c-1.735,3.935-3.9,5.667-6.5,5.2l-2.6-11.7c-0.2-5.467-1.5-12.367-3.9-20.701c2-5.866,2.866-12.801,2.6-20.802l1.3-10.4l1.3-7.7
			l1.3-2.601l1.3-9.101c-4.4-6.333-4.835-13.266-1.3-20.801l-2.6-11.601c2.333-4.333,6.233-8.233,11.701-11.7
			c0.133-4.533,1-9.301,2.6-14.301c-0.267-4.934,0.565-10.566,2.5-16.901v-3.8c0.4-3.666,1.266-8.001,2.6-13.001L803.642,1153.835z"
			/>
		<path fill="#D12227" stroke="#241E23" stroke-width="13.5644" stroke-miterlimit="10" d="M945.389,1154.135
			c22.334-0.399,44.602,7.468,66.803,23.602c13.134,34.069-5.101,62.737-54.703,86.005l6.1,5.5
			c4.066,7.867,10.133,14.801,18.201,20.801l7.3,5.601l2.4,1.4l2.5,1.3c5.2,6.335,12.066,11.435,20.601,15.301l2.5,1.4l2.4,2.8
			l7.3,2.7l7.301,5.601l2.4,1.399l2.399,1.4c2.533,3.734,6.2,6.968,11.001,9.7c1.865,3.333,4.7,6.566,8.5,9.701l3.601,2.7l2.4,1.399
			c0.2,0.934,1.032,1.866,2.5,2.801c0.2,0.933,1,1.865,2.4,2.8v9.7l-6.101,9.701l-15.801-2.801l-19.401-12.5l-3.7-1.301l-3.6-1.399
			l-2.4-2.801l-3.7-1.399l-9.7-6.9l-4.901-1.4l-4.8-2.8c-4.134-3.067-9.4-5.833-15.801-8.301l-4.9-4.2l-7.301-4.101l-6-2.8
			l-4.9-5.601l-4.8-2.7l-6.1-12.5c-3.868,6.6-6.701,15.368-8.5,26.301l-1.2,2.801c-1.8,2.267-3.435,5.034-4.9,8.3
			c-4.8,1.333-9.667,0.9-14.601-1.3c-0.2-0.935-1-1.865-2.4-2.8c0.2-8.066-0.2-18.234-1.2-30.502v-19.501l-1.2-4.101
			c-2.667-4.2-4.3-9.766-4.9-16.7c4.333-6.533,7.566-14.834,9.701-24.901C907.387,1187.804,917.12,1158.67,945.389,1154.135z
			 M950.189,1189.337l-3.601,21.901v3.6C971.723,1203.705,972.923,1195.204,950.189,1189.337z"/>
		<path fill="#D12227" stroke="#241E23" stroke-width="13.5644" stroke-miterlimit="10" d="M1108.338,1154.235
			c4.267,4.467,10.301,8.768,18.102,12.9l-2.601,10.301c26.201,55.137,21.901,109.405-12.9,162.809l-9.4-23.001
			c-3.4,1.6-2.835-11.401,1.7-39.002l-29.902,6l-11.5,40.502l-12.9,12.9c-6.468-1.665-12.501-5.966-18.102-12.9l2.601-36.202
			c3.933-10.666,8.601-21.434,14-32.302l-1.3-12.7l4.9-12.301l11.501-7l12.2-36.402l10.4-18.101L1108.338,1154.235z
			 M1103.338,1246.84l-6.3-24.602l-10.901,26.002L1103.338,1246.84z"/>
	</g>
	<g display="inline">
		<g>
			<g>
				<path fill="#D12227" d="M1067.843,1095.688c-64.032,0-124.233-24.936-169.512-70.214
					c-45.279-45.279-70.215-105.479-70.215-169.513s24.936-124.233,70.215-169.512c45.279-45.278,105.479-70.214,169.512-70.214
					s124.232,24.936,169.512,70.214c45.278,45.279,70.215,105.479,70.215,169.512c0,64.033-24.937,124.234-70.215,169.513
					C1192.075,1070.752,1131.875,1095.688,1067.843,1095.688z"/>
				<path fill="#241E23" d="M1067.843,623.017c128.649,0,232.944,104.293,232.944,232.944
					c0,128.652-104.295,232.944-232.944,232.944c-128.65,0-232.944-104.292-232.944-232.944
					C834.898,727.31,939.193,623.017,1067.843,623.017 M1067.843,609.452c-33.272,0-65.557,6.52-95.956,19.377
					c-29.355,12.417-55.717,30.189-78.352,52.823c-22.634,22.635-40.407,48.996-52.823,78.352
					c-12.858,30.4-19.378,62.684-19.378,95.957s6.52,65.557,19.378,95.957c12.417,29.356,30.189,55.717,52.823,78.352
					c22.635,22.634,48.996,40.406,78.352,52.822c30.399,12.858,62.684,19.378,95.956,19.378s65.556-6.52,95.956-19.378
					c29.355-12.416,55.717-30.188,78.352-52.822c22.635-22.635,40.407-48.996,52.823-78.352
					c12.858-30.399,19.378-62.684,19.378-95.957s-6.52-65.557-19.378-95.957c-12.416-29.355-30.188-55.717-52.823-78.352
					c-22.635-22.634-48.996-40.407-78.352-52.823C1133.398,615.972,1101.115,609.452,1067.843,609.452L1067.843,609.452z"/>
			</g>
			<path fill="#FFFFFF" stroke="#2B242B" stroke-width="7.8497" stroke-miterlimit="10" d="M1072.402,880.132l-29.623-11.141
				c0,0,2.099-74.756,4.02-83.446c1.916-8.688,6.632-28.458,2.172-44.993c-2.48-9.209-0.702-26.773,1.481-40.579
				c2.187-13.803,4.067-21.763,6.103-25.687c2.036-3.92,2.036-3.92,2.036-3.92s0.04,6.227,1.384,8.495c0,0,5.225-15.84,11.68-20.262
				c0,0-5.834,17.376,0.356,25.025c0,0,2.04,3.033,3.808,4.224l6.112-7.382c0,0,3.276,20.219,6.318,25.137
				c3.041,4.921,7.86,17.65,7.405,26.413c-0.459,8.769-8.296,25.171-5.714,35.376s13.506,74.08,9.606,84.917
				C1099.547,852.311,1095.566,865.041,1072.402,880.132z"/>
			<g>
				<path fill="#FFFFFF" stroke="#2B242B" stroke-width="7.9173" stroke-miterlimit="10" d="M1116.746,826.322
					c0,0-16.381,17.595-21.709,30.7c0,0-14.097-28.421-16.239-35.986c-1.386-4.885-4.993-19.864,2.027-34.342
					c7.207-14.859,14.971-16.412,16.831-24.991c1.859-8.576,1.198-16.042,5.479-28.572c4.273-12.524,32.152-28.687,39.723-32.587
					c0,0-11.736,19.271-12.891,25.756c-1.158,6.492-1.158,6.492-1.158,6.492s5.815-4.868,10.747-7.122
					c4.933-2.25,4.933-2.25,4.933-2.25s-10.032,18.433-8.606,27.217c1.329,8.2,3.471,14.888,1.236,28.448
					C1133.129,803.29,1116.746,826.322,1116.746,826.322z"/>
				<path fill="#FFFFFF" stroke="#2B242B" stroke-width="7.4237" stroke-miterlimit="10" d="M1053.038,855.362
					c0,0,10.021-34.573,12.895-35.17c2.872-0.599-11.489-13.366-11.489-13.366s-5.58-4.41-6.572-9.166
					c-0.994-4.763,1.231-25.216-2.142-38.999c0,0-3.427-18.568-18.507-30.909l-7.119-12.51c0,0-2.213,11.772-5.751,12.78
					c0,0-1.118-12.55-5.769-18.074c-4.648-5.528-14.668-10.433-14.668-10.433s3.338,23.168,2.791,25.34
					c-0.546,2.172,1.591,17.218,5.207,24.958c3.612,7.74,16.682,10.505,17.262,22.878c0.581,12.37-8.182,30.586-6.297,43.751
					C1018.805,857.865,1053.038,855.362,1053.038,855.362z"/>
				<path fill="#FFFFFF" stroke="#2B242B" stroke-width="7.4237" stroke-miterlimit="10" d="M1043.616,854.4
					c0,0-37.877-24.139-36.924-35.942c1.052-13.125,1.29-35.112-5.383-49.645c-10.74-23.396-36.194-28.37-53.806-26.414
					c0,0-7.827,0.978-10.76,2.449c0,0,25.922,10.758,27.392,14.429c0,0-10.272-3.67-19.076-2.695c0,0,16.141,7.341,19.565,12.231
					c3.424,4.891,5.87,19.019,4.894,28.827c-0.981,9.815-1.934,26.753-0.956,29.69c0,0,0.308,7.114,8.85,14.886
					c7.549,6.875,30.167,23.509,30.655,26.443c0,0,14.712-0.167,20.58-6.036C1034.52,856.753,1043.616,854.4,1043.616,854.4z"/>
				<path fill="#FFFFFF" stroke="#2B242B" stroke-width="7.4237" stroke-miterlimit="10" d="M1036.581,881.219
					c0,0-44.335-33.872-51.185-38.764c-6.848-4.891-25.851-12.197-32.513-23.997c-4.433-7.853-10.76-24.211-21.035-32.528
					c-10.268-8.315-16.627-12.716-20.541-14.182c-3.911-1.467-3.911-1.467-3.911-1.467s3.911,4.4,4.4,6.844
					c0,0-13.696-7.823-21.034-6.844c0,0,14.494,8.985,14.981,18.278l-5.687,3.73c0,0,7.826,16.141,8.805,21.522
					c0.98,5.382,5.868,14.183,11.739,20.055c5.869,5.87,22.989,9.291,27.636,18.098c4.646,8.805,5.335,27.718,17.073,39.372
					c0,0,9.297,5.3,10.763,5.3c1.467,0,68.485,12.244,68.485,12.244L1036.581,881.219z"/>
				<path fill="#FFFFFF" stroke="#2B242B" stroke-width="7.4237" stroke-miterlimit="10" d="M1003.573,905.667
					c0,0-18.894-1.493-34.549-6.385c-15.648-4.888-20.544-17.118-32.281-21.522c-11.738-4.4-33.811-1.061-42.556,10.092
					l-3.424,4.222c0,0,21.52-3.423,29.838,1.468c4.115,2.421,9.889,16.799,21.028,27.84c11.371,11.272,28.168,19.216,38.3,21.945
					c22.644,6.096,51.918,3.567,59.959,0.976c0,0-2.746-30.499-5.682-34.823C1031.273,905.152,1003.573,905.667,1003.573,905.667z"
					/>
				<path fill="#FFFFFF" stroke="#2B242B" stroke-width="7.4237" stroke-miterlimit="10" d="M1206.903,736.112
					c-2.933-1.467-10.761-2.443-10.761-2.443c-17.609-1.961-47.445,11.736-53.807,26.409c-6.354,14.673-3.291,38.549-11.406,52.687
					c-6.771,11.809-34.824,39.782-34.824,39.782s6.414,6.595,12.284,12.461c5.868,5.87,20.987-1.919,20.987-1.919
					c0.487-2.938,16.207-17.872,21.586-22.766c8.26-7.516,24.248-14.544,24.248-14.544c0.979-2.938-0.099-27.061-1.08-36.869
					c-0.978-9.814,1.468-23.942,4.893-28.833c3.426-4.891,19.564-12.228,19.564-12.228c-8.254-0.184-12.921-1.851-12.921-1.851
					l10-4.333L1206.903,736.112z"/>
				<path fill="#FFFFFF" stroke="#2B242B" stroke-width="7.4237" stroke-miterlimit="10" d="M1092.992,898.514l-4.078-22.425
					c0,0,11.291-7.108,27.427-13.998c19.979-8.532,32.747-23.691,42.445-28.15c7.648-3.514,23.58-9.247,30.917-23.692
					c4.086-8.04,10.761-24.21,21.033-32.525c10.271-8.315,16.632-12.721,20.544-14.187c3.913-1.464,3.913-1.464,3.913-1.464
					s-2.913,7.401-3.404,9.846c0,0,12.697-10.826,20.032-9.846c0,0-16.321,28.927-18.094,43.529
					c-0.659,5.432-5.874,14.187-11.739,20.057c-5.872,5.866-22.992,9.293-27.641,18.096c-4.645,8.807-11.186,45.064-20.787,50.213
					C1173.561,893.968,1118.822,902.574,1092.992,898.514z"/>
				<path fill="#FFFFFF" stroke="#2B242B" stroke-width="7.4237" stroke-miterlimit="10" d="M1250.821,884.863
					c0,0-7.821-19.363-22.821-21.363c-31.724-4.23-40.785,23.277-56.439,28.168c-7.334,2.291-20.973-0.214-35.894,1.666
					c-16.926,2.132-32.909,9.628-34.471,11.924c-2.93,4.324-0.189,40.052-0.189,40.052c15.166,4.894,69.313-11.811,76.65-14.254
					c7.334-2.443,17.425-11.973,20.363-19.798c2.933-7.827,15.648-21.03,23.968-25.923c0,0,11.012-1.334,13.345,5.666c0,0,4-8,1-11
					C1236.333,880,1247.31,881.393,1250.821,884.863z"/>
			</g>
			<g>
				<g>
					<path fill="#2B242B" d="M1209.945,964.006c-1.225-3.259-4.788-0.001-5.399,1.936c-0.612,1.932-2.848,6.824-6.209,7.74
						c0,0-1.224-0.612-0.917-2.749c0.306-2.138,1.631-8.35-4.483-10.895c-6.106-2.551-8.554,2.951-7.636,4.275
						c0.918,1.322,6.009,0.916,6.314,1.934c0.306,1.02,0.51,6.824-2.037,8.352c-2.548,1.527-8.145-2.955-5.497-9.368
						c2.647-6.416-5.095-6.012-7.434-2.955c-2.344,3.054-1.63,6.212-2.755,5.093c-1.116-1.122-13.539-18.333-21.484-27.8
						c-7.941-9.469-12.68-11.051-13.287-11.658c-0.612-0.615,0.39-11.714-1.529-19.103c-1.628-6.262-2.801-10.618-4.326-11.995
						c-1.529-1.376-0.986-1.595-0.986-1.595s2.104-23.523-1.104-33.147s-11.762-10.54-14.358-11.915
						c-2.598-1.375-20.64-9.521-25.358-12.688c-4.479-3.004-10.439-13.28-2.801-23.818c0,0,4.309-6.1,4.69-7.494
						c0.168-0.617,2.427-0.4,2.81-2.063c1.089-4.737,1.702-13.722,0.801-15.454c-0.649-1.249-1.833,0-1.833,0
						s1.536-18.676-0.905-21.581c0,0-3.613-18.13-24.235-18.13s-24.663,18.589-24.663,18.589s-1.681,7.181,0,22.456
						c0,0-1.836-0.308-2.293,1.22c-0.459,1.527-0.307,11.607,1.677,14.97l2.175,1.14c0,0,1.141,2.638,4.307,7.141
						c5.921,8.424,4.075,15.146-0.777,20.463c-3.555,3.9-11.491,6.986-20.031,9.14c0,0-22.018,1.985-24.308,21.231
						c-0.696,5.859-1.406,13.817-0.209,21.397c-2.793,8.38-2.691,33.415-2.691,34.054c0,0-29.939,30.094-36.51,43.076
						c0,0-1.982,5.649-5.193,3.516c-3.208-2.136-14.054-9.169-17.414-9.475c-3.359-0.306-5.615,2.238-3.241,5.311
						c0.5,0.652,1.826,1.444,3.192,2.531c1.371,1.091,5.316,1.539,6.674,2.686c2.137,1.799,2.198,4.939,1.928,5.206
						c-0.441,0.444-6.588,1.866-11.375-1.129c-1.863-1.164-2.594-3.588-2.219-8.34c0,0-1.833-2.443-4.429-1.375
						c-2.597,1.071-5.957,14.819-2.442,19.245c3.509,4.435,16.953,7.792,19.093,7.941c2.14,0.159-6.572,9.779-3.058,18.795
						c0,0,5.041,14.323,38.645,11.514c33.608-2.805,71.341-15.331,71.341-15.331s19.395-2.854,26.729,1.473
						c0,0,52.547,14.258,77.802,13.854c25.253-0.409,30.957-14.262,20.368-30.145c0,0,15.476,0.814,22.81-8.148
						C1213.203,972.968,1211.169,967.265,1209.945,964.006z M1033.975,955.451c-14.254,1.631-48.475,15.479-48.475,15.479
						c16.703-12.222,32.996-34.214,32.996-34.214c6.516-8.967,8.555-43.582,8.555-43.582c0.406,8.141,5.702,24.024,6.924,28.103
						C1035.197,925.309,1033.975,955.451,1033.975,955.451z M1104.175,957.082c0,0-0.339-29.979,0-34.216
						c0.626-7.867,3.419-23.826,5.329-31.301c0,0,3.632,37.816,10.15,46.779c0,0,16.291,21.999,32.992,34.216
						C1152.646,972.56,1118.431,958.71,1104.175,957.082z"/>
				</g>
			</g>
		</g>
		<g>
			<polygon fill="#2B242B" points="1090.439,777.759 1103.541,774.97 1099.064,802.145 1094.962,790.66 			"/>
			<path fill="#2B242B" d="M1042.959,804.386c0,0,3.637-21.934,4.128-24.632l-10.507,2.303l3.682,19.383l-0.246-8.832
				C1040.016,792.608,1040.505,801.196,1042.959,804.386z"/>
			<g>
				<polygon fill="#2B242B" points="1035.588,790.922 1055.219,782.34 1095.465,774.729 1102.825,783.563 1101.353,776.446 
					1108.468,775.219 1099.882,766.385 1107.732,764.422 1093.5,752.89 1100.861,744.056 1082.214,746.019 1083.193,735.958 
					1070.68,743.81 1063.563,733.503 1058.165,745.773 1044.668,737.431 1047.858,749.454 1035.588,747.735 1042.461,758.042 
					1028.964,761.97 1038.779,767.368 1028.228,774.975 1037.553,775.219 1032.153,787.488 1037.553,785.526 				"/>
				<polygon fill="#2B242B" points="1053.502,782.34 1053.748,775.958 1048.348,780.619 1050.804,773.504 1041.725,776.939 
					1047.367,762.705 1038.043,761.97 1045.404,764.426 1036.57,755.101 1051.048,757.311 1045.648,744.795 1058.165,752.158 
					1063.563,739.889 1070.68,750.193 1083.193,742.339 1082.214,752.402 1100.861,750.439 1093.5,759.273 1107.732,770.806 
					1099.882,772.768 1108.468,781.604 1099.882,781.848 1100.617,787.736 1093.5,781.114 				"/>
			</g>
		</g>
	</g>
</g>
<g>
	<g>
		<g>
			<path fill="#D12227" d="M1004.843,1856.156c-115.708,0-227.969-22.667-333.664-67.372
				c-102.077-43.175-193.747-104.979-272.462-183.693c-78.716-78.716-140.521-170.385-183.696-272.462
				c-44.706-105.695-67.374-217.957-67.374-333.668c0-115.709,22.667-227.971,67.374-333.667
				C258.196,563.218,320,471.548,398.717,392.833c78.716-78.715,170.386-140.519,272.462-183.694
				c105.695-44.705,217.956-67.373,333.664-67.373s227.969,22.667,333.663,67.373c102.077,43.175,193.747,104.979,272.463,183.694
				s140.521,170.385,183.696,272.462c44.705,105.695,67.373,217.957,67.373,333.667c0,115.711-22.668,227.973-67.373,333.668
				c-43.176,102.077-104.98,193.746-183.696,272.462c-78.716,78.715-170.386,140.519-272.463,183.693
				C1232.812,1833.489,1120.551,1856.156,1004.843,1856.156z"/>
			<path fill="#241E23" d="M1004.843,166.017c460.015,0,832.944,372.923,832.944,832.944c0,460.025-372.93,832.944-832.944,832.944
				s-832.944-372.919-832.944-832.944C171.898,538.939,544.828,166.017,1004.843,166.017 M1004.843,117.514
				c-59.772,0-119.522,6.025-177.589,17.907c-56.616,11.585-112.306,28.873-165.522,51.381
				c-52.239,22.096-102.621,49.441-149.745,81.277c-46.664,31.526-90.543,67.729-130.418,107.604
				c-39.875,39.875-76.079,83.754-107.605,130.418c-31.836,47.124-59.183,97.505-81.278,149.745
				c-22.509,53.217-39.796,108.907-51.382,165.523c-11.882,58.067-17.907,117.817-17.907,177.591s6.025,119.524,17.907,177.592
				c11.586,56.616,28.873,112.307,51.382,165.523c22.096,52.24,49.442,102.621,81.278,149.745
				c31.526,46.664,67.729,90.543,107.605,130.418s83.754,76.078,130.418,107.604c47.124,31.836,97.505,59.182,149.745,81.277
				c53.216,22.508,108.906,39.796,165.521,51.381c58.067,11.882,117.816,17.907,177.589,17.907s119.522-6.025,177.589-17.907
				c56.616-11.585,112.305-28.873,165.521-51.381c52.239-22.096,102.621-49.441,149.745-81.277
				c46.664-31.525,90.543-67.729,130.419-107.604c39.875-39.875,76.078-83.754,107.604-130.418
				c31.837-47.124,59.183-97.505,81.278-149.745c22.509-53.217,39.797-108.907,51.382-165.523
				c11.883-58.067,17.908-117.818,17.908-177.592s-6.025-119.523-17.908-177.591c-11.585-56.616-28.873-112.306-51.382-165.523
				c-22.096-52.24-49.441-102.621-81.278-149.745c-31.526-46.664-67.729-90.542-107.604-130.418
				c-39.876-39.875-83.755-76.078-130.419-107.604c-47.124-31.836-97.506-59.182-149.745-81.277
				c-53.216-22.509-108.905-39.796-165.521-51.381C1124.365,123.539,1064.615,117.514,1004.843,117.514L1004.843,117.514z"/>
		</g>
		<path fill="#FFFFFF" stroke="#2B242B" stroke-width="28.0683" stroke-miterlimit="10" d="M1021.146,1085.393l-105.924-39.836
			c0,0,7.504-267.308,14.373-298.38c6.851-31.067,23.713-101.756,7.766-160.883c-8.869-32.929-2.511-95.732,5.297-145.1
			c7.818-49.354,14.544-77.817,21.821-91.848c7.281-14.017,7.281-14.017,7.281-14.017s0.143,22.265,4.948,30.376
			c0,0,18.682-56.639,41.763-72.452c0,0-20.861,62.133,1.274,89.484c0,0,7.295,10.846,13.615,15.104l21.855-26.395
			c0,0,11.716,72.298,22.593,89.883c10.874,17.598,28.106,63.111,26.479,94.444c-1.641,31.354-29.664,90.004-20.432,126.495
			c9.233,36.491,48.294,264.89,34.351,303.64C1118.208,985.908,1103.975,1031.429,1021.146,1085.393z"/>
		<g>
			<path fill="#FFFFFF" stroke="#2B242B" stroke-width="28.31" stroke-miterlimit="10" d="M1179.707,892.981
				c0,0-58.573,62.914-77.625,109.775c0,0-50.406-101.625-58.066-128.676c-4.955-17.468-17.854-71.027,7.248-122.796
				c25.771-53.131,53.531-58.684,60.184-89.36c6.648-30.665,4.285-57.362,19.59-102.167
				c15.281-44.784,114.968-102.575,142.037-116.522c0,0-41.966,68.906-46.094,92.096c-4.141,23.214-4.141,23.214-4.141,23.214
				s20.794-17.407,38.429-25.466c17.638-8.047,17.638-8.047,17.638-8.047s-35.873,65.91-30.774,97.322
				c4.752,29.321,12.41,53.234,4.421,101.723C1238.288,810.625,1179.707,892.981,1179.707,892.981z"/>
			<path fill="#FFFFFF" stroke="#2B242B" stroke-width="26.5452" stroke-miterlimit="10" d="M951.905,996.818
				c0,0,35.831-123.622,46.107-125.758c10.27-2.142-41.083-47.792-41.083-47.792s-19.953-15.768-23.5-32.773
				c-3.555-17.03,4.403-90.167-7.658-139.45c0,0-12.253-66.395-66.175-110.521l-25.456-44.733c0,0-7.913,42.093-20.564,45.699
				c0,0-3.999-44.875-20.627-64.627c-16.622-19.766-52.449-37.304-52.449-37.304s11.936,82.842,9.98,90.61
				c-1.952,7.766,5.688,61.568,18.619,89.243c12.917,27.675,59.649,37.564,61.723,81.807
				c2.078,44.232-29.255,109.367-22.516,156.443C829.496,1005.771,951.905,996.818,951.905,996.818z"/>
			<path fill="#FFFFFF" stroke="#2B242B" stroke-width="26.5452" stroke-miterlimit="10" d="M918.215,993.381
				c0,0-135.438-86.313-132.029-128.518c3.761-46.933,4.613-125.55-19.248-177.517c-38.404-83.656-129.421-101.442-192.394-94.449
				c0,0-27.991,3.495-38.478,8.756c0,0,92.689,38.469,97.945,51.593c0,0-36.731-13.125-68.211-9.636c0,0,57.714,26.25,69.964,43.736
				c12.243,17.488,20.986,68.007,17.498,103.078c-3.509,35.097-6.914,95.663-3.418,106.163c0,0,1.1,25.437,31.644,53.229
				c26.993,24.583,107.869,84.062,109.615,94.555c0,0,52.606-0.601,73.589-21.58C885.688,1001.793,918.215,993.381,918.215,993.381z
				"/>
			<path fill="#FFFFFF" stroke="#2B242B" stroke-width="26.5452" stroke-miterlimit="10" d="M893.06,1089.275
				c0,0-158.529-121.115-183.022-138.607c-24.485-17.488-92.438-43.612-116.256-85.805c-15.85-28.079-38.474-86.574-75.212-116.313
				c-36.714-29.734-59.457-45.468-73.449-50.709c-13.985-5.247-13.985-5.247-13.985-5.247s13.985,15.734,15.735,24.471
				c0,0-48.974-27.974-75.212-24.471c0,0,51.827,32.127,53.569,65.356l-20.333,13.339c0,0,27.981,57.714,31.483,76.958
				c3.506,19.244,20.979,50.715,41.973,71.712c20.986,20.988,82.203,33.22,98.821,64.712c16.611,31.483,19.08,99.111,61.049,140.784
				c0,0,33.243,18.95,38.484,18.95c5.245,0,244.884,43.781,244.884,43.781L893.06,1089.275z"/>
			<path fill="#FFFFFF" stroke="#2B242B" stroke-width="26.5452" stroke-miterlimit="10" d="M775.033,1176.699
				c0,0-67.558-5.339-123.537-22.833c-55.955-17.478-73.459-61.21-115.429-76.959c-41.969-15.734-120.9-3.792-152.167,36.086
				l-12.243,15.099c0,0,76.948-12.239,106.692,5.249c14.715,8.656,35.363,60.071,75.191,99.547
				c40.66,40.308,100.721,68.711,136.95,78.467c80.967,21.797,185.644,12.757,214.396,3.492c0,0-9.819-109.053-20.316-124.515
				C874.081,1174.855,775.033,1176.699,775.033,1176.699z"/>
			<path fill="#FFFFFF" stroke="#2B242B" stroke-width="26.5452" stroke-miterlimit="10" d="M1502.085,570.416
				c-10.486-5.247-38.478-8.737-38.478-8.737c-62.967-7.012-169.651,41.966-192.397,94.432
				c-22.719,52.466-11.769,137.842-40.786,188.395c-24.213,42.226-124.521,142.248-124.521,142.248s22.935,23.581,43.925,44.558
				c20.983,20.989,75.045-6.862,75.045-6.862c1.742-10.507,57.952-63.905,77.186-81.403c29.534-26.875,86.704-52.005,86.704-52.005
				c3.502-10.507-0.353-96.761-3.862-131.832c-3.495-35.092,5.249-85.611,17.495-103.098c12.249-17.487,69.957-43.722,69.957-43.722
				c-29.514-0.658-46.202-6.617-46.202-6.617l35.757-15.495L1502.085,570.416z"/>
			<path fill="#FFFFFF" stroke="#2B242B" stroke-width="26.5452" stroke-miterlimit="10" d="M1094.77,1151.118l-14.582-80.186
				c0,0,40.374-25.417,98.07-50.05c71.441-30.509,117.095-84.713,151.773-100.658c27.349-12.564,84.315-33.065,110.551-84.717
				c14.609-28.749,38.477-86.568,75.209-116.3c36.728-29.732,59.471-45.488,73.459-50.729c13.992-5.234,13.992-5.234,13.992-5.234
				s-10.416,26.463-12.173,35.208c0,0,45.401-38.71,71.63-35.208c0,0-58.36,103.434-64.698,155.649
				c-2.357,19.424-21.004,50.727-41.977,71.717c-20.997,20.976-82.214,33.229-98.835,64.705
				c-16.607,31.49-39.996,161.138-74.329,179.551C1382.86,1134.866,1187.131,1165.637,1094.77,1151.118z"/>
			<path fill="#FFFFFF" stroke="#2B242B" stroke-width="26.5452" stroke-miterlimit="10" d="M1659.123,1102.308
				c0,0-27.967-69.237-81.603-76.389c-113.435-15.127-145.836,83.233-201.812,100.721c-26.225,8.191-74.992-0.769-128.346,5.957
				c-60.521,7.623-117.674,34.423-123.258,42.636c-10.476,15.463-0.678,143.215-0.678,143.215
				c54.23,17.498,247.847-42.235,274.081-50.972c26.225-8.737,62.307-42.812,72.813-70.792
				c10.486-27.987,55.955-75.198,85.702-92.692c0,0,39.375-4.771,47.717,20.26c0,0,14.304-28.605,3.576-39.333
				C1607.317,1084.918,1646.566,1089.897,1659.123,1102.308z"/>
		</g>
		<g>
			<g>
				<path fill="#2B242B" d="M1512.962,1385.3c-4.379-11.652-17.12-0.007-19.307,6.921c-2.189,6.907-10.183,24.401-22.202,27.677
					c0,0-4.375-2.189-3.278-9.833c1.093-7.641,5.831-29.856-16.031-38.956c-21.835-9.121-30.586,10.553-27.304,15.288
					c3.283,4.725,21.486,3.271,22.579,6.914c1.093,3.646,1.822,24.397-7.284,29.862c-9.11,5.462-29.123-10.566-19.656-33.498
					c9.467-22.941-18.217-21.496-26.58-10.566c-8.381,10.919-5.828,22.212-9.851,18.21c-3.991-4.008-48.412-65.55-76.822-99.407
					c-28.396-33.857-45.339-39.515-47.511-41.684c-2.189-2.199,1.393-41.885-5.469-68.305
					c-5.821-22.391-10.015-37.968-15.469-42.892c-5.469-4.92-3.527-5.702-3.527-5.702s7.525-84.113-3.946-118.526
					c-11.471-34.413-42.057-37.688-51.341-42.603c-9.289-4.915-73.803-34.043-90.675-45.371
					c-16.015-10.741-37.329-47.484-10.015-85.166c0,0,15.406-21.811,16.771-26.797c0.601-2.207,8.678-1.432,10.046-7.377
					c3.894-16.939,6.087-49.066,2.863-55.259c-2.322-4.464-6.554,0-6.554,0s5.492-66.781-3.237-77.166c0,0-12.92-64.83-86.659-64.83
					c-73.739,0-88.188,66.471-88.188,66.471s-6.01,25.676,0,80.297c0,0-6.565-1.1-8.199,4.363
					c-1.641,5.461-1.097,41.503,5.996,53.528l7.776,4.075c0,0,4.079,9.433,15.399,25.533c21.171,30.123,14.572,54.16-2.779,73.169
					c-12.711,13.945-41.089,24.979-71.626,32.681c0,0-78.729,7.098-86.917,75.916c-2.489,20.952-5.028,49.407-0.747,76.508
					c-9.987,29.968-9.624,119.486-9.624,121.771c0,0-107.055,107.606-130.552,154.028c0,0-7.089,20.197-18.57,12.571
					c-11.467-7.641-50.252-32.789-62.268-33.883c-12.009-1.093-20.075,8-11.586,18.993c1.788,2.329,6.53,5.161,11.415,9.048
					c4.903,3.9,19.01,5.499,23.864,9.603c7.641,6.432,7.86,17.662,6.896,18.615c-1.578,1.585-23.56,6.669-40.677-4.037
					c-6.659-4.162-9.274-12.832-7.934-29.824c0,0-6.554-8.736-15.836-4.917c-9.285,3.831-21.3,52.99-8.733,68.815
					c12.546,15.86,60.62,27.862,68.27,28.396c7.654,0.565-23.497,34.968-10.93,67.206c0,0,18.022,51.215,138.182,41.169
					c120.174-10.028,255.095-54.819,255.095-54.819s69.349-10.203,95.574,5.266c0,0,187.893,50.982,278.197,49.536
					c90.298-1.463,110.694-50.995,72.831-107.792c0,0,55.337,2.912,81.561-29.133
					C1524.611,1417.345,1517.338,1396.956,1512.962,1385.3z M883.74,1354.711c-50.968,5.831-173.332,55.347-173.332,55.347
					c59.726-43.702,117.985-122.34,117.985-122.34c23.298-32.063,30.589-155.837,30.589-155.837
					c1.453,29.108,20.389,85.904,24.758,100.486C888.111,1246.929,883.74,1354.711,883.74,1354.711z M1134.756,1360.542
					c0,0-1.211-107.198,0-122.35c2.238-28.131,12.226-85.192,19.056-111.923c0,0,12.986,135.221,36.295,167.27
					c0,0,58.252,78.662,117.971,122.347C1308.077,1415.886,1185.73,1366.363,1134.756,1360.542z"/>
			</g>
		</g>
	</g>
	<g>
		<polygon fill="#2B242B" points="1085.643,719.332 1132.49,709.359 1116.482,806.53 1101.813,765.463 		"/>
		<path fill="#2B242B" d="M915.865,814.544c0,0,13.004-78.428,14.76-88.076l-37.569,8.235l13.165,69.308l-0.88-31.581
			C905.341,772.43,907.09,803.138,915.865,814.544z"/>
		<g>
			<polygon fill="#2B242B" points="889.508,766.401 959.703,735.712 1103.611,708.498 1129.93,740.086 1124.664,714.639 
				1150.106,710.249 1119.405,678.661 1147.477,671.645 1096.586,630.408 1122.908,598.82 1056.23,605.837 1059.732,569.862 
				1014.986,597.94 989.538,561.087 970.238,604.959 921.976,575.129 933.384,618.122 889.508,611.977 914.084,648.832 
				865.823,662.875 900.92,682.178 863.19,709.378 896.534,710.249 877.227,754.122 896.534,747.104 			"/>
			<polygon fill="#2B242B" points="953.564,735.712 954.444,712.893 935.134,729.56 943.916,704.117 911.452,716.402 
				931.628,665.504 898.287,662.875 924.609,671.657 893.021,638.313 944.789,646.214 925.482,601.462 970.238,627.791 
				989.538,583.919 1014.986,620.766 1059.732,592.68 1056.23,628.662 1122.908,621.646 1096.586,653.233 1147.477,694.469 
				1119.405,701.486 1150.106,733.081 1119.405,733.954 1122.035,755.009 1096.586,731.33 			"/>
		</g>
	</g>
</g>
</svg>
