<?xml version="1.0" encoding="utf-8"?>
<!-- Generator: Adobe Illustrator 26.0.1, SVG Export Plug-In . SVG Version: 6.00 Build 0)  -->
<svg version="1.1" id="Layer_1" xmlns="http://www.w3.org/2000/svg" xmlns:xlink="http://www.w3.org/1999/xlink" x="0px" y="0px"
	 viewBox="0 0 2054 2054" style="enable-background:new 0 0 2054 2054;" xml:space="preserve">
<style type="text/css">
	.st0{fill:#2C262D;}
	.st1{fill:#FFFFFF;}
	.st2{fill:#1BADE3;}
</style>
<g>
	<path class="st0" d="M982,0c30.7,0,61.3,0,92,0c2.8,2.6,6.3,1.5,9.5,1.6c53.6,2.9,106.8,9.5,159.3,20.9
		c196.3,42.8,366.4,134.4,509.3,275.8c115.4,114.2,198.9,248.5,250.6,402.4c27.5,81.8,45.4,165.5,49.7,251.9
		c0.1,1.9-0.5,4.1,1.6,5.4c0,43.3,0,86.7,0,130c-0.8,5.4-2.5,10.7-1.7,16.3c-0.3,7-0.2,14-0.8,21c-3.9,39.5-9.5,78.7-18,117.4
		c-43.2,197-135.4,367.5-277.7,510.5c-114.5,115.1-249.1,198.1-403.1,249.5c-74.2,24.8-150.2,40.6-228.1,47.8
		c-10.9,1-21.9,0.2-32.6,3.4c-40,0-80,0-120,0c-2.9-1.1-5.9-1.7-9.1-1.2c-16.6-0.9-33.2-2.5-49.8-4.3
		c-57.4-6.2-113.8-17.3-169.2-33.5c-174.5-50.9-325.4-141.3-452.2-271.6C176.5,1625,94.9,1486.5,46.1,1328.7
		c-23.7-76.7-37.9-155.1-42.7-235.3c-0.4-7.2-0.3-14.6-3.4-21.4c0-30,0-60,0-90c3.4-6.7,3.1-14.1,3.5-21.2
		c3-51.3,9.9-102.1,21.1-152.2c44.8-200.7,139.8-374,287.7-516.9c184.6-178.4,406-274.4,662.3-290C977.1,1.5,980,2.5,982,0z
		 M1028.6,1997.9c535.4,0.1,964.5-432.6,970.3-959c5.9-538.7-427.5-975.4-958.8-981.5C505.7,51.2,63,480,58.4,1018.9
		C53.6,1561.8,492.9,1998.3,1028.6,1997.9z"/>
	<path class="st1" d="M982,0c-2,2.5-4.9,1.5-7.4,1.6c-256.3,15.6-477.7,111.6-662.3,290C164.4,434.6,69.4,607.9,24.6,808.6
		C13.5,858.7,6.5,909.5,3.5,960.8C3.1,967.9,3.4,975.3,0,982C0,654.8,0,327.7,0,0C327.3,0,654.7,0,982,0z"/>
	<path class="st1" d="M0,1072c3.1,6.8,3,14.3,3.4,21.4c4.8,80.2,19,158.6,42.7,235.3c48.8,157.8,130.4,296.2,245.6,414.6
		c126.8,130.3,277.7,220.7,452.2,271.6c55.4,16.2,111.8,27.3,169.2,33.5c16.6,1.8,33.1,3.4,49.7,4.3c-1,0.4-2,0.8-2.9,1.2
		c-319.8,0-639.7,0-960,0C0,1726.7,0,1399.3,0,1072z"/>
	<path class="st1" d="M2054,958c-2.1-1.3-1.5-3.5-1.6-5.4c-4.3-86.4-22.2-170.1-49.7-251.9c-51.7-153.9-135.2-288.2-250.6-402.4
		c-142.9-141.4-313-233-509.3-275.8c-52.5-11.4-105.6-18-159.3-20.9c-3.2-0.2-6.7,0.9-9.5-1.6c326.5,0,653,0,980,0
		C2054,319.3,2054,638.7,2054,958z"/>
	<path class="st1" d="M1092,2054c10.6-3.2,21.7-2.4,32.6-3.4c77.9-7.2,153.9-23.1,228.1-47.8c154-51.4,288.6-134.5,403.1-249.5
		c142.3-143,234.5-313.5,277.7-510.5c8.5-38.7,14.1-77.9,18-117.4c0.7-7,0.6-14,0.8-20.9c0.6,1.2,1.1,2.4,1.7,3.7
		c0,315.3,0,630.7,0,946C1733.3,2054,1412.7,2054,1092,2054z"/>
	<path class="st2" d="M2054,1108c-0.6-1.2-1.1-2.4-1.7-3.7c-0.8-5.6,0.9-10.9,1.7-16.3C2054,1094.7,2054,1101.3,2054,1108z"/>
	<path class="st2" d="M960,2054c1-0.4,1.9-0.8,2.9-1.2c3.2-0.4,6.2,0.2,9.1,1.2C968,2054,964,2054,960,2054z"/>
	<path class="st2" d="M1028.6,1997.9c-535.7,0.4-975-436-970.3-979C63,480,505.7,51.2,1040.1,57.3
		c531.2,6.1,964.7,442.9,958.8,981.5C1993.1,1565.3,1564,1997.9,1028.6,1997.9z M325.4,658.7c-25.8-7.3-51-1.7-76.6,3.1
		c8.9,6.6,18,12.5,27.3,18.1c16,9.8,30.8,21.1,43.5,34.8c5.5,5.9,10.3,12.2,14,19.4c1.8,3.5,1.7,6.1-2,8.3
		c-5.7,3.5-11,7.6-16.8,10.9c-4.5,2.6-4.6,5.3-2.5,9.7c6.3,12.8,12.4,25.8,18.2,38.9c7.3,16.4,15.4,32.6,19.4,50.2
		c6.8,30,21.9,55.5,40.4,79.4c12,15.6,26.9,27.5,44.8,35.8c9,4.2,18,8.6,27,12.9c10.8,5.2,21.5,10.5,31.8,16.7
		c14.3,8.6,24.4,20.3,28.9,36.7c3.5,12.8,7.6,25.5,11,38.4c8.2,31,18.4,61.2,35.4,88.6c0.8,1.2,1.2,2.3,0.7,3.7l0.1-0.2
		c-2.7-1.1-5-2.7-7.2-4.8c-13.2-12.2-26.1-24.8-40.4-35.7c-17.2-13.2-36.2-22.5-57.8-25.6c-45.4-6.5-89-0.5-130.2,20.1
		c-16,8-29.9,18.7-41.2,32.6c-11.3,14-22.7,27.9-34,42c-1.5,1.9-4.2,3.4-3.3,6.6c19.5-2.7,38.9-6,58.4-8.1
		c25.2-2.7,50.5-3.7,75.7,0.7c11.9,2.1,20.9,7.4,27.4,17.9c10,16.2,20.4,32.1,30.9,47.9c17.8,26.8,38.4,51.2,63.4,71.6
		c40.7,33.3,86.2,57.8,136,74.4c3,1,6.2,1.6,8.7,3.4c-0.4,1.4-0.5,2.1-0.9,2.6c-19.5,24.1-39.2,47.9-53.3,75.9
		c-4.3,8.6-11,10.3-19,4.3c-2.7-2-5.5-3.7-8.3-5.5c-15.5-9.8-31-19.6-47.6-27.5c-5.1-2.4-10.2-4.9-16.1-4.9
		c-6.4,0-12.2,1.5-14.9,7.9c-2.7,6.3-0.1,12,4.7,16.2c6.8,5.9,13.8,11.6,22.9,13.8c3.9,1,7.7,2.3,11.4,3.7c8,3.1,11.7,9.5,13.1,17.5
		c0.9,5.6-0.2,7.2-5.8,8.4c-6.9,1.4-14,1.6-20.9,0.4c-26.4-4.6-29.9-14.3-29.7-33.5c0-0.7,0.1-1.3,0.1-2c0-8-4-12.1-11.8-12.8
		c-6.7-0.5-10.5,3.1-13.1,8.7c-7.6,16.7-10.7,34.2-10.1,52.5c0.4,14.3,7.4,24.4,20,31.1c13,7,26.7,12.2,40.8,16.2
		c8.6,2.5,17.3,4.6,26.1,6.9c-0.3,5.6-3.2,9.8-5.2,14.3c-5,10.9-9.6,22-11.4,34c-2.6,17.6,1.5,33,14.9,45.4
		c10.7,9.9,23.2,16.7,36.8,21.6c20.9,7.6,42.7,10.5,64.7,11.3c40.2,1.6,79.8-3.9,119.3-10.3c71.8-11.6,142.2-29,211.6-50.6
		c10.6-3.3,21.2-5.7,32.2-6.5c8.3-0.6,16.6-1.2,24.9-1.7c17-0.9,34.1-0.1,50.7,3.7c9.4,2.2,18.2,6.5,27.5,8.9
		c85.2,21.8,170.8,41.7,258.4,52c28.5,3.3,57.1,5,85.7,0.9c17.3-2.5,34-6.9,48.9-16.4c21.6-13.8,31-35.9,26.3-61.1
		c-2.4-12.9-7.4-24.8-13.8-36.3c-1.5-2.8-3.9-5.3-4.3-9.2c11.4-1.1,22.3-1.1,33.1-3c35.6-6.4,62.2-24.3,76.9-58.3
		c6.7-15.5,7-31,0.6-46.6c-3.2-7.8-8-9.1-14.8-4.2c-4.8,3.4-7.5,8.3-9.6,13.7c-3.9,10-8.9,19.4-17.9,25.9c-2.1,1.5-4.4,3.7-7.2,2.1
		c-2.9-1.6-3.4-4.8-3.4-7.9c0-1.6,0.7-3.3,0.8-4.9c0.3-5,0.9-10,0.6-15c-1-16.9-14.4-29.9-31.4-30.5c-7.5-0.3-13.7,2.4-18.2,8.6
		c-5.7,8.1-3.7,13.6,5.9,15.9c1.3,0.3,2.6,0.7,3.9,0.8c12.7,1.1,15.9-0.5,14.2,18.3c-0.4,4-1,7.9-2.6,11.7c-4,9.6-11.4,11.8-20,6.1
		c-8.7-5.9-13.4-18.1-10.9-29.2c1-4.2,2.6-8.3,3.7-12.4c2.6-9.4-2-15.7-11.6-16.3c-12.3-0.7-21.6,5.8-26.8,18.4
		c-1.5,3.8-1,8.5-4.7,11.4c-8.1-8.2-78.8-101.8-80.7-106.9c31.2-8.4,62.4-16.8,93-27.1c46.4-15.7,78.7-47.5,100.2-90.7
		c5.4-10.8,10.9-21.4,18.1-30.9c18-23.8,39.2-44.3,62.4-63.1c8.7-7.1,17.7-8.3,27.9-6.5c10.7,1.9,18.4,6.8,21.3,18.1
		c2.4,9.2,5.9,18.1,8.9,27.2c1.4-0.6,2.3-0.7,2.5-1.2c9.2-18.4,20.4-36.1,24.4-56.7c0.9-4.8,2.3-6.2,7.2-4.7
		c11.3,3.3,21.6,7.9,30.1,16.7c13.7,14.1,27.2,28.4,42.2,41.1c0.6,0.6,1.2,1.3,1.9,1.9c1.1-1.3,0.7-2.2-0.6-3
		c-0.2-1.3-0.3-2.7-0.7-3.9c-8.3-20.7-16.4-41.5-25.2-62c-10.4-24.1-24.9-45.6-43.8-63.9c-15.8-15.4-34.1-27-56-31.1
		c-23.8-4.5-47.7-4.3-71.5,0.4c-33.3,6.6-61.6,22.8-87.3,44.2c-3.5,2.9-6.4,6.7-11.2,8.4c-0.1-1.4-0.5-2.4-0.2-3.3
		c10.2-31.7,18.7-63.9,29-95.6c5.3-16.1,14.7-28.1,29.2-36.5c6.3-3.7,12.7-7.3,19.3-10.6c12.2-6.1,24.6-11.8,36.9-17.7
		c14.2-6.9,27.6-14.9,38.3-26.7c15.3-16.9,28.3-35.4,38.2-56c4.5-9.3,8.3-18.9,9.7-29.3c2.8-20.3,9.3-39.5,16.7-58.5
		c17.4-44.5,39-86.9,62.3-128.5c1.9-3.3,4.6-6.4,4.8-11.3c-12.9-1.2-25.1-4.8-38-2.3c-12.8,2.4-24.1,8.4-36.7,13.8
		c1.5-9.2,7-16,7.5-24.6c-35.4,11.4-69.2,24.3-97.8,47.9c-8.5,7-17.2,13.7-26.1,20.1c-26.9,19.5-47.5,44.5-64.5,72.9
		c-14.1,23.5-25.9,48.1-37.7,72.7c-6.7,13.9-15,26.7-25.9,37.7c-1.3,1.3-2.3,3.4-5.8,3.1c-0.3-5-0.8-10.2-0.9-15.3
		c-0.7-34.3-2.6-68.6-5.6-102.8c-2.9-33.7,1.3-66.4,11.9-98.5c3-8.9,8.5-15.6,16.1-21c13.1-9.3,27-17.2,41.2-24.6
		c24-12.5,48.9-22.8,73.3-34.3c2.8-1.3,6.2-1.9,9.5-6.4c-20.7,0-39.7,0-58.7,0c-0.2-0.8-0.4-1.6-0.6-2.5
		c20.4-10.2,40.9-20.5,63-31.6c-7.3-3.7-12.6-6.3-17.9-9c-31.6-16.1-65.3-20-100.1-16c-39.9,4.6-77.1,18.1-112.3,37
		c-29.9,16-57.3,35.4-77.6,63.3c-0.5,0.6-1.6,0.8-2.5,1.3c-4.4-14.6-5.6-28.9-1.6-43.5c3.4-12.2,7.4-24.2,12.1-36
		c10-25.2,23.3-48.7,36.2-72.4c1.8-3.3,4.3-6.4,4.9-12.2c-25.1,11.4-48.8,22.2-74.8,34c21.6-48.1,49.2-90.2,74.9-133.3
		c-2.8-1.2-3.8-0.2-5,0.4c-16.9,8.7-33.9,17.1-50.6,26.2c-39.7,21.4-77.6,45.5-112.5,74.2c-20.1,16.6-38.9,34.5-51.8,57.7
		c-0.5,0.9-1.2,1.5-2.4,0.9c-1.6-1.5-1.3-3.7-1.4-5.6c-3-34.4-13.7-66.4-29.5-96.8c-4.6-8.9-8.5-18.1-11.1-27.7
		c-7.9-28.6-13-57.8-17.9-87c-1.3-7.7-1.5-15.7-4.9-24.5c-12.4,14.8-24,28.5-35.9,42.7c-5.8-6.5-7.9-13-9.2-20
		c-3.4-17.8-0.2-35.2,3.3-52.5c3.9-19.3,11.7-37.5,17.4-56.3c0.6-2,2.4-4.1-0.1-6.8c-6,4-12.1,8.1-18.1,12.2
		c-6.1,4.1-12.1,8.3-18.1,12.4c-6.1,4.2-11.3,9.3-16.2,14.8c-4.7,5.2-7.3,12.2-14.4,17.7c0-11.5,0-21.3,0-31.9
		c-3.9,2.6-4.6,6-6.1,8.8c-9,17.1-17.5,34.5-26.9,51.4c-10,18-16.3,37.2-20.6,57.1c-12,56.1-20.6,112.7-23.4,170.1
		c-1.3,26-0.5,52,6.6,77.3c1.1,3.8,1.6,7.8,0.6,11.9L936,568c-2.9-1.1-3.2-4.1-4.3-6.3c-14.2-28.7-32.5-54.3-56.7-75.5
		c-3.1-2.7-5.2-6-7.2-9.5c-13.3-23.5-26.6-46.9-40.1-70.4c-1.4-2.4-2-5.7-5.9-7c-2.9,14.6-5.7,29.1-8.5,43.5c-3.1-0.6-3.1-2.5-3.6-4
		c-7.2-21.8-21.5-38-39.7-51.3c-20.1-14.6-41.9-26-64.3-36.4c-1.1-0.5-2.4-1.2-3.9,0.7c0.1,1.8,0.1,4.1,0.4,6.4
		c2.9,21.1,6.1,42.2,8.8,63.3c2.3,18.2,5.7,36.3,5.4,54.7c-0.5,35.8,7.5,70,18.4,103.8c5,15.3,13.8,28,26.1,38.3
		c7.9,6.6,15.8,13.3,24,19.6c19.9,15.5,28.6,35.4,24.8,60.5c-0.3,2-0.6,4-0.8,5.9c-3.3,24.1-10.1,47.5-15.5,71.2
		c-0.2,1-0.7,1.8-2.1,2c-1.8-1.8-1-4.2-1.1-6.3c-1.2-24.4-4.7-48.4-10.5-72.1c-15.5-62.9-51.2-110-110.2-137.9
		c-50.1-23.7-102.8-28.3-157.2-20.7c-21.9,3.1-41.6,11.4-60.7,21.9c-1.6,0.9-4.1,1.3-3.3,4.7c21.9,9.7,44.8,17.9,68.3,30
		c-19.3,3.7-36.5,3.6-53.6,7.2c1.5,3.4,4.5,3.7,6.8,4.7c13.6,6.3,27.3,12.4,40.9,18.7c21.5,10,42.4,20.9,62.1,34.2
		c9.8,6.6,16.3,15.2,19.9,26.6c9.7,30.9,13.4,62.6,10.7,94.7c-3,36.2-5.9,72.4-5.6,108.8c0,2.1,1.4,4.7-1.4,6.2
		c-0.7-0.3-1.4-0.4-1.9-0.7c-1.1-0.7-2.1-1.6-3.2-2.4c-15.2-12-26.6-26.9-35-44.3c-10.2-21-20.4-41.9-32.2-62.1
		c-13.4-22.8-28.1-44.7-48.5-61.9c-21.1-17.8-43-34.9-66.1-50c-9.2-6-18.8-11.5-29.1-15.3c-21.2-7.9-42.4-15.9-63.6-23.8
		c-1.9-0.7-3.9-2.6-6.3-0.3c4.5,7.5,12.2,12.4,16.2,20.2C326.1,657.9,325.7,658.3,325.4,658.7z"/>
	<path class="st0" d="M1829.1,1206.8c-15-12.8-28.5-27-42.2-41.1c-8.5-8.8-18.8-13.4-30.1-16.7c-4.9-1.4-6.2,0-7.2,4.7
		c-4,20.6-15.1,38.3-24.4,56.7c-0.2,0.4-1.1,0.5-2.5,1.2c-3-9.1-6.5-18-8.9-27.2c-2.9-11.4-10.6-16.2-21.3-18.1
		c-10.3-1.8-19.2-0.5-27.9,6.5c-23.2,18.8-44.4,39.3-62.4,63.1c-7.3,9.6-12.8,20.1-18.1,30.9c-21.4,43.3-53.8,75.1-100.2,90.7
		c-30.6,10.3-61.8,18.7-93,27.1c1.9,5.1,72.6,98.7,80.7,106.9c3.7-2.9,3.2-7.7,4.7-11.4c5.1-12.6,14.4-19.1,26.8-18.4
		c9.7,0.6,14.2,6.9,11.6,16.3c-1.2,4.2-2.8,8.2-3.7,12.4c-2.5,11.1,2.2,23.3,10.9,29.2c8.6,5.8,16,3.5,20-6.1
		c1.5-3.7,2.2-7.6,2.6-11.7c1.7-18.8-1.6-17.2-14.2-18.3c-1.3-0.1-2.6-0.5-3.9-0.8c-9.5-2.3-11.6-7.8-5.9-15.9
		c4.4-6.2,10.7-8.9,18.2-8.6c16.9,0.6,30.3,13.5,31.4,30.5c0.3,5-0.3,10-0.6,15c-0.1,1.7-0.7,3.3-0.8,4.9c-0.1,3.1,0.5,6.2,3.4,7.9
		c2.8,1.6,5.1-0.6,7.2-2.1c9-6.5,14-15.9,17.9-25.9c2.1-5.4,4.8-10.3,9.6-13.7c6.9-4.9,11.7-3.6,14.8,4.2
		c6.4,15.6,6.1,31.1-0.6,46.6c-14.6,34-41.3,51.9-76.9,58.3c-10.8,1.9-21.7,1.9-33.1,3c0.4,4,2.7,6.5,4.3,9.2
		c6.4,11.4,11.3,23.3,13.8,36.3c4.7,25.2-4.7,47.3-26.3,61.1c-14.9,9.5-31.6,13.9-48.9,16.4c-28.6,4.1-57.2,2.4-85.7-0.9
		c-87.5-10.2-173.1-30.2-258.4-52c-9.3-2.4-18.1-6.7-27.5-8.9c-16.6-3.8-33.6-4.5-50.7-3.7c-8.3,0.4-16.6,1-24.9,1.7
		c-11,0.8-21.6,3.3-32.2,6.5c-69.4,21.6-139.9,39-211.6,50.6c-39.5,6.4-79.1,11.8-119.3,10.3c-22-0.9-43.8-3.7-64.7-11.3
		c-13.6-4.9-26.1-11.7-36.8-21.6c-13.4-12.5-17.5-27.8-14.9-45.4c1.8-12,6.3-23.1,11.4-34c2.1-4.5,4.9-8.7,5.2-14.3
		c-8.8-2.3-17.5-4.4-26.1-6.9c-14.1-4.1-27.8-9.2-40.8-16.2c-12.5-6.8-19.5-16.8-20-31.1c-0.6-18.2,2.5-35.8,10.1-52.5
		c2.6-5.6,6.4-9.2,13.1-8.7c7.8,0.6,11.8,4.8,11.8,12.8c0,0.7-0.1,1.3-0.1,2c-0.2,19.2,3.3,29,29.7,33.5c6.9,1.2,14,1,20.9-0.4
		c5.6-1.1,6.7-2.8,5.8-8.4c-1.3-8-5.1-14.5-13.1-17.5c-3.7-1.4-7.5-2.7-11.4-3.7c-9.1-2.3-16.1-7.9-22.9-13.8
		c-4.8-4.2-7.4-9.8-4.7-16.2c2.7-6.4,8.5-7.9,14.9-7.9c5.9,0,11,2.5,16.1,4.9c16.6,7.9,32.1,17.7,47.6,27.5c2.8,1.8,5.7,3.5,8.3,5.5
		c8,6,14.7,4.3,19-4.3c14-28,33.8-51.8,53.3-75.9c0.4-0.5,0.4-1.2,0.9-2.6c-2.5-1.8-5.7-2.4-8.7-3.4c-49.8-16.6-95.3-41.1-136-74.4
		c-25-20.4-45.6-44.8-63.4-71.6c-10.5-15.8-20.9-31.7-30.9-47.9c-6.4-10.5-15.5-15.8-27.4-17.9c-25.2-4.4-50.5-3.4-75.7-0.7
		c-19.5,2.1-38.9,5.3-58.4,8.1c-1-3.3,1.8-4.8,3.3-6.6c11.3-14,22.6-28,34-42c11.3-14,25.2-24.7,41.2-32.6
		c41.2-20.6,84.8-26.6,130.2-20.1c21.6,3.1,40.6,12.4,57.8,25.6c14.3,11,27.2,23.6,40.4,35.7c2.3,2.1,4.5,3.7,7.2,4.8
		c0.6,0.8,1.3,1.5,1.9,2.3c0,0,0.3,0,0.3,0l-0.4-0.1c-0.1-1.2-0.4-2.2-1.9-2c0.5-1.4,0-2.5-0.7-3.7c-17-27.4-27.2-57.6-35.4-88.6
		c-3.4-12.9-7.5-25.5-11-38.4c-4.5-16.3-14.6-28.1-28.9-36.7c-10.3-6.2-21-11.6-31.8-16.7c-9-4.3-18-8.6-27-12.9
		c-17.8-8.3-32.7-20.2-44.8-35.8c-18.5-23.9-33.5-49.4-40.4-79.4c-4-17.6-12.1-33.8-19.4-50.2c-5.8-13.1-11.9-26-18.2-38.9
		c-2.2-4.4-2.1-7.1,2.5-9.7c5.8-3.3,11.1-7.4,16.8-10.9c3.7-2.3,3.8-4.8,2-8.3c-3.7-7.2-8.5-13.5-14-19.4
		c-12.8-13.8-27.5-25.1-43.5-34.8c-9.3-5.6-18.4-11.5-27.3-18.1c25.6-4.8,50.8-10.4,76.6-3.1c0.7,0.8,1.4,1.2,2.2,0.2
		c0.1-0.1-0.7-0.8-1.1-1.3c-4-7.7-11.7-12.6-16.2-20.2c2.4-2.3,4.4-0.4,6.3,0.3c21.2,7.9,42.4,15.9,63.6,23.8
		c10.4,3.9,19.9,9.3,29.1,15.3c23.2,15.2,45,32.2,66.1,50c20.4,17.2,35.1,39.1,48.5,61.9c11.8,20.1,22.1,41.1,32.2,62.1
		c8.4,17.4,19.8,32.3,35,44.3c1,0.8,2.1,1.7,3.2,2.4c0.5,0.4,1.2,0.5,1.9,0.7c2.8-1.5,1.4-4.1,1.4-6.2c-0.3-36.4,2.6-72.5,5.6-108.8
		c2.7-32.2-1-63.8-10.7-94.7c-3.6-11.4-10-20-19.9-26.6c-19.7-13.3-40.6-24.2-62.1-34.2c-13.6-6.3-27.3-12.4-40.9-18.7
		c-2.3-1.1-5.2-1.3-6.8-4.7c17.1-3.5,34.3-3.5,53.6-7.2c-23.5-12-46.4-20.3-68.3-30c-0.8-3.4,1.7-3.8,3.3-4.7
		c19.1-10.5,38.8-18.8,60.7-21.9c54.4-7.7,107.1-3,157.2,20.7c59.1,27.9,94.7,75,110.2,137.9c5.8,23.7,9.3,47.7,10.5,72.1
		c0.1,2.1-0.7,4.5,1.1,6.3c1.4-0.2,1.9-0.9,2.1-2c5.4-23.7,12.2-47.1,15.5-71.2c0.3-2,0.5-4,0.8-5.9c3.8-25.1-4.9-45-24.8-60.5
		c-8.2-6.3-16-13-24-19.6c-12.3-10.3-21.2-23-26.1-38.3c-10.9-33.7-18.8-67.9-18.4-103.8c0.2-18.3-3.1-36.5-5.4-54.7
		c-2.7-21.1-5.9-42.2-8.8-63.3c-0.3-2.3-0.3-4.6-0.4-6.4c1.5-1.9,2.8-1.3,3.9-0.7c22.4,10.4,44.2,21.8,64.3,36.4
		c18.3,13.3,32.5,29.5,39.7,51.3c0.5,1.5,0.5,3.4,3.6,4c2.8-14.4,5.7-28.9,8.5-43.5c3.9,1.4,4.5,4.6,5.9,7
		c13.4,23.4,26.7,46.9,40.1,70.4c2,3.5,4.1,6.8,7.2,9.5c24.1,21.2,42.5,46.8,56.7,75.5c1.1,2.3,1.4,5.2,4.3,6.3
		c-0.1,0.6-0.3,1.3-0.1,1.8c0.2,0.8,0.9,2.3,1,2.3c1.2-0.3,1-1.4,0.9-2.3c-0.2-1-0.6-1.7-1.7-1.9c1-4,0.5-8-0.6-11.9
		c-7.1-25.4-7.9-51.3-6.6-77.3c2.8-57.4,11.4-113.9,23.4-170.1c4.2-20,10.6-39.1,20.6-57.1c9.4-16.9,17.9-34.2,26.9-51.4
		c1.5-2.8,2.2-6.2,6.1-8.8c0,10.6,0,20.4,0,31.9c7.1-5.5,9.7-12.4,14.4-17.7c4.9-5.5,10.1-10.6,16.2-14.8
		c6.1-4.1,12.1-8.3,18.1-12.4c6-4.1,12.1-8.2,18.1-12.2c2.5,2.7,0.7,4.8,0.1,6.8c-5.7,18.8-13.5,36.9-17.4,56.3
		c-3.5,17.3-6.7,34.7-3.3,52.5c1.3,7,3.5,13.5,9.2,20c11.9-14.1,23.5-27.9,35.9-42.7c3.4,8.8,3.6,16.8,4.9,24.5
		c4.9,29.2,10.1,58.4,17.9,87c2.7,9.7,6.5,18.8,11.1,27.7c15.8,30.4,26.5,62.5,29.5,96.8c0.2,1.9-0.2,4.1,1.4,5.6
		c1.2,0.6,1.9,0,2.4-0.9c12.9-23.2,31.6-41.1,51.8-57.7c34.9-28.7,72.8-52.8,112.5-74.2c16.7-9,33.7-17.5,50.6-26.2
		c1.1-0.6,2.2-1.6,5-0.4c-25.8,43.2-53.3,85.3-74.9,133.3c26.1-11.8,49.8-22.6,74.8-34c-0.6,5.8-3.1,8.9-4.9,12.2
		c-12.9,23.7-26.2,47.2-36.2,72.4c-4.7,11.8-8.7,23.7-12.1,36c-4,14.7-2.9,29,1.6,43.5c1-0.5,2.1-0.7,2.5-1.3
		c20.4-27.8,47.7-47.2,77.6-63.3c35.2-18.8,72.4-32.4,112.3-37c34.8-4,68.5-0.1,100.1,16c5.3,2.7,10.6,5.3,17.9,9
		c-22.2,11.1-42.6,21.4-63,31.6c0.2,0.8,0.4,1.6,0.6,2.5c19,0,38.1,0,58.7,0c-3.3,4.5-6.7,5.1-9.5,6.4
		c-24.4,11.4-49.4,21.8-73.3,34.3c-14.2,7.4-28.1,15.2-41.2,24.6c-7.6,5.4-13.1,12.2-16.1,21c-10.6,32-14.8,64.8-11.9,98.5
		c2.9,34.2,4.9,68.5,5.6,102.8c0.1,5.2,0.6,10.3,0.9,15.3c3.5,0.3,4.5-1.7,5.8-3.1c10.9-11,19.2-23.8,25.9-37.7
		c11.8-24.6,23.7-49.2,37.7-72.7c17-28.3,37.6-53.3,64.5-72.9c8.9-6.5,17.7-13.1,26.1-20.1c28.6-23.6,62.4-36.5,97.8-47.9
		c-0.5,8.6-6.1,15.4-7.5,24.6c12.7-5.4,24-11.4,36.7-13.8c12.9-2.4,25.1,1.1,38,2.3c-0.3,4.9-3,7.9-4.8,11.3
		c-23.3,41.6-44.9,84-62.3,128.5c-7.4,19-13.9,38.2-16.7,58.5c-1.4,10.3-5.3,19.9-9.7,29.3c-9.9,20.6-22.9,39-38.2,56
		c-10.7,11.9-24.1,19.9-38.3,26.7c-12.3,6-24.7,11.7-36.9,17.7c-6.6,3.3-12.9,6.9-19.3,10.6c-14.5,8.3-23.9,20.4-29.2,36.5
		c-10.3,31.7-18.8,63.9-29,95.6c-0.3,0.9,0.1,1.9,0.2,3.3c4.8-1.8,7.7-5.5,11.2-8.4c25.7-21.4,54.1-37.6,87.3-44.2
		c23.8-4.7,47.8-4.9,71.5-0.4c21.9,4.1,40.2,15.7,56,31.1c18.9,18.3,33.4,39.9,43.8,63.9c8.9,20.5,16.9,41.3,25.2,62
		c0.5,1.2,0.5,2.6,0.7,3.9C1829.9,1206.1,1829.5,1206.4,1829.1,1206.8z M1372,1508c0,1.2,0.8,1.6,1.9,1.4c0.2,0,0.6-0.7,0.5-0.7
		c-0.7-0.7-1.5-1.2-2.5-0.6c0.2-2.9-2.4-3.8-4.1-5.2c-30.6-24.9-58-52.9-83.4-83c-5.9-7-11.6-9-20.4-7.4c-25.9,4.6-52,7.9-78.4,6.1
		c-3.6-0.2-5.8,0.3-5.6,4.6c0.2,6.7,0.2,13.3,0,20c-0.1,4.2,1.9,6,5.8,6.4c9.3,1.1,18.3,3.3,27.3,5.6c50.3,13,99,31.1,147.5,49.5
		C1364.4,1506.2,1367.8,1508.6,1372,1508z M883,741.1c-0.4-0.5-0.9-1-1.3-1.4c4.2-14.1,11.6-26.8,16.9-40.4c0.9-2.3,3-4.4,1.3-7.5
		c-11.1-0.6-22.3-1.2-36-1.9c15.3-11.2,28.7-21,42.9-31.4c-13.7-7.6-26.1-14.5-40.4-22.4c16-4.8,30.1-9,45.2-13.6
		c-4.4-5.1-7.9-9.3-11.9-13.9c5.3-1.5,9.8,0.9,14.9,0.5c-5.1-11.5-14.3-20.1-18.7-31.1c2.8-2.1,5.8,1.4,7.8-2.1
		c-9.3-19.2-20.8-37.1-35.6-52.6c-12-12.6-26.6-23.1-32.5-41.3c-17.1,25.9-23.8,30.6-43.6,31.2c-0.6-5.9-1.2-11.8-1.9-17.8
		c-1.9-17.6-5.5-34.8-12-51.3c-7-17.8-21.5-27.8-37.5-38.5c3.7,31,8.4,60.3,7.5,90.1c0,1,0.1,2,0.2,3c2.9,21.1,7.2,41.9,13,62.5
		c4.7,16.8,13.9,29.9,27.7,40.2c11.2,8.4,22.1,17.2,31.4,27.7c14.1,15.9,21.1,34.4,21.2,55.6c0.1,10.4-1.2,20.6-2.8,30.8
		c-3.3,21.1-8.9,41.6-13.8,62.3c-4.7,19.8-9.8,39.5-10.6,59.9c-1.4,33,7.7,63.8,21.7,93.4c1.2,2.4,2.7,4.6,4.7,6.3
		c13.6,11.7,27.7,22.9,42.2,33.6c2.1,1.6,4,2.9,7.2,1.9c20.1-6.2,40.2-12.7,57-25.7c18.4-14.2,29.2-32.7,26.7-57
		c-1.2-11.5-6-21.8-12.3-31.3c-6.6-10-13.5-19.8-19-30.5c-0.9-1.8-1.8-3.7-3.8-4.4c-6.5-2.1-9.2-7.2-10.7-13.3
		c-0.2-0.7-0.3-3.6-1.8-1.8c-3.9,5.2-4.1-0.2-4.8-1.7c-3.2-6.3-4.9-13-6-20c-0.2-1-0.5-1.2-1-0.6c-1.6,2,0.2,5.1-2.2,7.2
		c-2.2-11.4-4.3-22.4-6.5-33.5c-1.4-7.1-1.4-7.1-8.9-5.1c-0.4-0.5-0.8-1-1.2-1.5c-0.1-6.1,4.8-11.1,4.4-18.3
		C894,737.6,888.5,739.3,883,741.1z M353.8,706.1c0.8-0.4,0.9-1,0.3-1.3c-0.3-0.2-1.2,0-1.2,0.2c-0.1,0.7,0.4,1,1.2,1
		c0.1,3.3,2.7,5.2,4.1,7.8c4.8,8.5,8.8,17.2,10,26.9c1.7,13.9,1.7,13.9-9.9,21.5c-8.7,5.7-8.6,5.7-4.4,15.1
		c9.6,21.6,20.6,42.8,26,65.8c6.2,26,18.9,48.1,35,68.8c9,11.6,19.8,20.5,33.1,26.7c12.4,5.8,24.7,11.7,36.9,17.7
		c12.9,6.3,25.4,13.2,36.8,21.9c12.2,9.3,21.2,20.9,26.9,35.3c5.6,14.3,9.5,29.1,13.5,43.8c6.6,24.4,13.6,48.7,25.1,71.4
		c10.3,20.5,24,37.2,46.2,46c8.3,3.3,16.3,7.1,25.3,8.6c20,3.2,40,6.9,60,10.4c14.3,2.5,28.5,4.9,43.1,7.5c0.6-2.5,1.1-4.1,1.3-5.7
		c1.4-12.9,2.9-25.8,6.4-38.4c0.6-2.1,0.3-4.6,0-6.9c-3.6-28.3-2-56.5,1.8-84.7c0.9-6.3,0-10.2-5.5-14.2c-20-14.5-39.6-29.3-59-44.5
		c-22.6-17.7-46.5-33.3-72-46.7c-11.8-6.2-23.1-13.2-34.5-20.1c-34.5-20.9-61.8-48.3-77.4-86.2c-2.5-6.1-5.9-11.9-8.9-17.9
		c-8.9-17.5-18.2-34.8-29.3-51.1c-8.7-12.7-18.1-24.8-29.9-34.7c-16.6-13.9-33.7-27.2-51.4-39.6c-2-1.4-3.8-3.7-7.1-3.2
		c1.2,6.9,2.4,13.6,3.7,20.9c-4.2-0.6-6.8-2.8-9.6-4.3c-10.2-5.6-20.3-11.4-30.6-16.9C358,706.1,356.1,703.5,353.8,706.1z
		 M1697.8,667.5c-4.2,0.9-7.1,3.2-9.9,5.3c-13.4,9.9-26.6,20-40.1,29.8c-25.3,18.3-44.4,41.9-60,68.7
		c-12.1,20.7-22.8,42.1-32.8,63.9c-15.4,33.4-39.4,59-69.8,79c-17.9,11.7-36.9,21.3-56.6,29.4c-16.8,7-32,16.2-46.3,27.3
		c-29.7,23.1-58.3,47.6-90.4,67.5c-3.2,2-3.6,3.7-2,7.2c5.5,11.9,7.2,24.8,8.6,37.8c2.7,25.9,1.7,51.9,1.1,77.9
		c-0.2,7.5-0.1,7.8,7.5,6.8c30.5-3.7,61.1-4.2,91.8-3.2c14.7,0.5,29.3,0.8,43.9-0.9c21.1-2.4,37.6-10.4,45.5-32.6
		c9.2-25.7,18.1-51.5,25.9-77.6c7.1-23.6,13.6-47.3,21.8-70.5c6.5-18.3,17.9-32.5,33.8-43.3c8.8-6,18.1-11.3,27.6-16
		c14.9-7.3,30-14.4,44.9-21.8c7.2-3.6,13.9-7.9,19.5-13.8c14.3-15.1,26.3-31.8,35.3-50.6c3.3-6.9,6.2-14,7.3-21.7
		c1.8-12.9,4.9-25.5,8.9-37.8c12.1-37.5,28.8-73,46.4-108.1c1.1-2.2,3.6-4.2,1.7-7.7c-27.2,13.7-48.3,35.5-73.5,55.4
		C1691.3,699.8,1694.5,683.9,1697.8,667.5z M1559.8,534.8c-6.6-2.5-11.5-2.1-16.5-1.8c-26.6,1.2-52,7.6-76.7,17
		c-30.7,11.7-59.4,26.9-84.5,48.4c-17.2,14.6-30,32.1-35.2,54.4c-1.7,7.4-3.6,14.9-5,22.4c-5.8,31.1-8,62.7-11.8,94.1
		c-5.4,45.7-20.2,87.1-50.8,122.6c-24.8,28.8-49.8,57.4-75.8,85.1c-2.4,2.6-5.5,4.7-7,8.5c2.4,1.3,4.7,2.5,7.1,3.8
		c19.2,10.1,39.7,17.2,59.1,26.6c3.4,1.6,5.7,0.3,8.2-1.4c8.6-5.7,17.3-11.2,25.8-17.1c22.7-15.9,43.8-33.8,65.6-50.7
		c11.6-9,23.3-18,36.8-24c19.5-8.6,37.6-20.1,57.1-28.7c4.3-1.9,5.7-4.5,5.7-9.1c0.4-31.3-1.4-62.6-2.9-93.9
		c-1.4-27.6-5.7-55-3.3-82.8c2.1-24.3,5.9-48.2,14.3-71.2c4.9-13.5,13-24.6,24.6-33.1c8-5.9,16.5-11.1,25.9-17.2
		c-14.4-5.3-27.9-10.2-43.2-15.8C1505.6,558.5,1532,547,1559.8,534.8z M1184.7,677c4.2,4.5,8.2,8.8,13.1,14.1
		c-7.5,1.5-13.5,2.7-20.5,4.1c5.9,8.4,14.1,13.7,19.6,22.6c-3.9,0.2-6.5,0.4-9.1,0.4c-14.8,0.3-14.9,0.3-17.4,15.6
		c-0.2,1-0.2,2-0.4,3c-3.5,21.2-7,42.3-10.7,64.5c-5-4.3-3.6-11.2-9-15.1c0.3,7.7-1.5,14.2-2.4,20.8c-0.7,5.3-2.7,9.6-8.5,11.1
		c-2.8,0.7-4.3,2.7-5.6,5.2c-5.5,10.3-12.3,19.8-19,29.3c-5.2,7.4-9.4,15.3-11.8,24.1c-2.8,10.4-5.3,21.2-0.8,31.4
		c17.3,38.9,10.2,35.5,49.3,55.9c0.6,0.3,1.3,0.5,1.8,0.9c4.5,3.4,7.2,2,10.4-2.4c16.3-23.2,34.4-45,53.3-66.1
		c2.4-2.7,4.6-5.7,6.6-8.8c23-35.2,42.4-72.3,57.5-111.6c11.1-29,19.3-58.8,22.5-89.8c2.7-25.7,1.4-51.3-4.7-76.4
		c-6-24.8-3.8-48.8,4.5-72.6c1.8-5,3.5-10.1,5.1-15.1c0.6-1.9,2.8-3.8,0.3-6.4c-17.1,11.6-31.6,26.6-50.1,39.8
		c2.9-16.5,5.8-30.5,7.6-44.6c3.6-27.1,11.8-52.5,25.2-76.2c1-1.8,3.2-3.6,1.4-6.8c-30.4,20-60.1,40.6-84.7,67.7
		c-9.8,10.8-16.3,23.2-20.5,37.2c-8.8,29.2-11.3,59.4-15.6,89.3c-0.5,3.8,0.8,6.1,3.6,8.4c6,4.9,12.6,9.3,18.4,15.7
		c-7.5,3.4-15.3,3.2-22.3,7c7.1,7.6,16,12.1,22.1,19.7C1190.9,674.6,1187.5,674,1184.7,677z M845.9,983.5c-2-4-5.1-5.5-7.6-7.5
		c-11.9-9.7-23.6-19.6-34.7-30.2c-13-12.5-25.3-25.6-35-41c-8-12.8-12.3-26.5-10-41.8c1.5-9.9,1.3-19.9,1.5-29.9
		c1.1-41.7-0.6-83.3-10.2-124.1c-14.5-61.3-50.6-103.9-109.8-126.1c-30-11.3-61.3-15.2-93.2-14.4c-3.4,0.1-7.1-0.1-10.5,2.1
		c2.7,2.9,6,3.7,9,5.1c14.1,6.7,27.7,14.7,41.7,21.4c22.5,10.7,28.4,31.5,35.6,52.6c-6.8,0.4-11.7-5.4-18.7-2.7
		c8.5,8.3,13.8,18.2,17.4,29c11,32.9,15.9,66.9,13.6,101.4c-2.1,32.6-5.1,65.1-6.1,97.7c-0.4,13-0.2,26,3,38.7
		c1.8,7.5,5.5,12.9,12.9,16.5c31.2,15.3,59.8,34.8,87.1,56.3c11.5,9.1,23.4,17.7,35.1,26.6c5.8,4.4,11.7,8.8,17.9,13.5
		C799.9,1004.6,821,991.8,845.9,983.5z M1688.8,1107.2c22.6,1.9,43.1,4.9,64.2,8.4c-3.8-7.5-9.4-12.7-14.9-17.9
		c-12.8-12.2-27.5-21-45.4-23.4c-41.4-5.4-79.4,3.5-113.2,28.4c-12.4,9.1-23.8,19.2-34.9,29.8c-12.8,12.1-25.4,24.5-38.9,35.9
		c-22,18.6-47.1,28.1-76.1,27.8c-28.6-0.3-57.3-0.2-85.9,0.2c-12.9,0.2-25.8,1.2-38.8,4.1c0.7,2.1,1.2,3.6,1.7,5.2
		c10.6,27.9,18,56.4,17.8,86.5c-0.1,9.6,0.4,19.3,0.6,29c0.1,4.4,1.9,7.2,5.9,9.4c11.1,6.2,21.1,14.1,29.7,23.4
		c4.1,4.4,7.9,4.5,13.2,3.1c33.8-8.9,67.5-18,100.6-29.1c37.7-12.6,63.7-39,81.2-73.9c5.4-10.7,10.5-21.6,17.5-31.3
		c21.5-29.6,47.3-54.8,76.1-77.4c13.9-10.9,28.6-12.9,44.9-10.3c6.9,1.1,13.7,2.7,20.2,5.4c1.5,0.6,3.3,2.8,5.4-0.3
		C1710.9,1128.8,1699.3,1119.8,1688.8,1107.2z M332.2,1157.9c3.6,0,7.1,0,10.7,0c15.3-0.2,30.6,0,45.9,2
		c23.7,3.1,43.1,12.5,55.6,34.1c7.2,12.4,15.6,24,23.1,36.2c31.7,52.1,75.8,90.5,129.8,118.2c24.9,12.8,50.4,24,77.8,30.5
		c4,1,6.7,0.8,9.6-2.5c22.8-25.6,46.4-50.6,70.4-75c2.2-2.2,3.7-4.4,3.8-7.8c0.2-12.3,0.3-24.6,1-36.9c0.3-5.6-2.3-6.5-6.9-7
		c-19.5-1.8-39-4.4-58.4-7.7c-27.2-4.6-54.2-10.4-80.7-18.3c-31-9.3-56.8-27.2-80.3-49c-10.3-9.5-20.5-19.1-31.7-27.5
		c-14.4-10.9-30.4-17.3-48.4-19.6c-25.2-3.2-49.8-0.5-74.1,6.1C362.2,1138.4,346.1,1145.3,332.2,1157.9z M1092.6,568.6
		c5.7-0.5,11.2-1.1,16.8-1.4c4.2-0.3,6.3-2,7.4-6.4c3.3-12.9,7-25.7,9.7-38.7c1.9-9.3,2.2-18.6,1-27.8
		c-3.6-27.3-11.5-53.5-24.4-77.7c-7.9-14.9-13.7-30.3-17.5-46.5c-2.7-11.2-5.3-22.4-8.3-34.8c-3.2,3.6-5.9,6.1-7.9,9
		c-2.8,4-5.3,4.6-9.7,1.6c-21-14.3-35.6-32.8-40.2-58.3c-0.4-2.1-0.4-4.6-2.5-6.6c-6.8,15.1-10.1,31.3-16.9,47
		c-5.7-6.5-7.8-13.8-13.1-19.3c-1.8,3.4-2.4,6.6-3.1,9.8c-2.9,15.4-6.1,30.7-8.7,46.1c-7.2,42.4-13.1,84.9-13.5,128
		c-0.2,14,0.2,28,2.5,41.8c3.6,21.5,3.6,21.5,21.9,32.2c0.5,0.3,1.2,0.2,2.6,0.4c7.2-16.1,14.4-32.4,22.2-49.8
		c10.3,14.8,20,28.6,29.9,42.7c17.2-10.7,33.8-21.1,52.4-32.7C1090.6,541.8,1090.8,554.5,1092.6,568.6z M852.3,1255.3
		c-2.7,15.9-5.4,31.2-8.1,46.6c-5.4,30.9-14.7,60.1-37.3,83.4c-1.4,1.5-3.8,3-2.2,6.6c26.6-0.5,53.4-2.2,80-6.1
		c3.3-0.5,4.3-2.2,4.5-5.3c2.1-34.4-0.3-68.5-8.8-101.9c-5.3-20.9-5.7-20.8-26.5-23.7C853.6,1254.9,853.3,1255,852.3,1255.3z
		 M1251.1,1383.2c0.8-2.5-0.2-3.5-1-4.5c-10.3-11.9-15.7-26.1-20.2-40.9c-7.1-23.6-11.8-47.8-15.9-72.1c-2.1-12.4-4-24.9-6.1-37.8
		c-4.2,1.9-7.4,3.6-10.8,4.8c-5.3,1.9-7.8,5.4-8.4,11c-1,8.3-2.5,16.5-3.8,24.7c-6.1,37-6.5,74.3-3.6,111.6c0.6,7.5,0.9,7.6,8.1,7.9
		C1210.1,1388.7,1230.6,1386.2,1251.1,1383.2z M694.8,1501.3c0.6,0.2,1.3,0.6,1.9,0.4c2.5-0.8,5-1.7,7.5-2.7
		c46.3-17.7,92.7-34.9,140.6-48.1c12.2-3.4,24.5-6.3,37-8.3c4.6-0.7,6.3-2.6,6.1-7.1c-0.3-5.9-0.1-11.8-0.1-18.1
		c-4.1,0.3-7.4,0.3-10.7,0.8c-31.1,4.3-62.3,4.8-93.6,4.2c-5.9-0.1-9.8,1.6-13.7,5.9c-22.1,24.5-45.3,47.8-71.1,68.5
		C697.1,1498.1,695.2,1499.1,694.8,1501.3z M859,1193c-2.1,4.9-1.3,12.6-2.6,19.9c-0.4,2.1-1,4.8,2.1,5.8c1.5,0.5,3.2,1.6,4.5,0.2
		c1.5-1.7,0.3-3.7,0-5.6C861.5,1205.6,860,1198.1,859,1193z M1201.2,1181.1c-0.8,4-1.6,7.1-2.1,10.2c-0.3,1.7,0.8,2.3,2.2,2.4
		c1.6,0.1,2.3-0.9,2.4-2.4C1203.7,1188,1202.9,1185,1201.2,1181.1z"/>
	<path class="st0" d="M1830.3,1205.7c1.4,0.7,1.7,1.7,0.6,3c-0.6-0.6-1.2-1.3-1.9-1.9C1829.5,1206.4,1829.9,1206.1,1830.3,1205.7z"
		/>
	<path class="st1" d="M1697.8,667.5c-3.3,16.5-6.4,32.4-10,50.5c25.1-19.9,46.3-41.7,73.5-55.4c1.9,3.5-0.6,5.5-1.7,7.7
		c-17.5,35.2-34.2,70.7-46.4,108.1c-4,12.4-7.2,24.9-8.9,37.8c-1,7.7-4,14.8-7.3,21.7c-9,18.8-21,35.5-35.3,50.6
		c-5.6,5.9-12.3,10.2-19.5,13.8c-14.9,7.4-29.9,14.5-44.9,21.8c-9.6,4.7-18.8,10-27.6,16c-15.9,10.8-27.3,24.9-33.8,43.3
		c-8.2,23.2-14.8,46.9-21.8,70.5c-7.8,26.1-16.7,51.9-25.9,77.6c-8,22.1-24.5,30.2-45.5,32.6c-14.6,1.6-29.2,1.4-43.9,0.9
		c-30.6-1-61.3-0.5-91.8,3.2c-7.6,0.9-7.6,0.7-7.5-6.8c0.6-26,1.6-51.9-1.1-77.9c-1.3-13-3.1-25.8-8.6-37.8c-1.6-3.5-1.2-5.2,2-7.2
		c32.1-19.9,60.8-44.3,90.4-67.5c14.3-11.1,29.5-20.4,46.3-27.3c19.7-8.2,38.7-17.7,56.6-29.4c30.5-20,54.4-45.6,69.8-79
		c10-21.7,20.8-43.2,32.8-63.9c15.6-26.8,34.7-50.4,60-68.7c13.5-9.8,26.7-19.9,40.1-29.8C1690.7,670.7,1693.5,668.4,1697.8,667.5z"
		/>
	<path class="st1" d="M353.8,706.1c2.4-2.6,4.3,0,5.9,0.9c10.3,5.5,20.4,11.2,30.6,16.9c2.9,1.6,5.5,3.7,9.6,4.3
		c-1.3-7.2-2.5-14-3.7-20.9c3.4-0.4,5.1,1.8,7.1,3.2c17.7,12.5,34.9,25.7,51.4,39.6c11.8,9.9,21.3,22,29.9,34.7
		c11.1,16.3,20.4,33.5,29.3,51.1c3,5.9,6.3,11.7,8.9,17.9c15.6,37.9,42.9,65.3,77.4,86.2c11.4,6.9,22.7,14,34.5,20.1
		c25.5,13.3,49.3,29,72,46.7c19.4,15.2,39.1,30.1,59,44.5c5.5,4,6.4,7.9,5.5,14.2c-3.9,28.1-5.4,56.3-1.8,84.7
		c0.3,2.3,0.6,4.8,0,6.9c-3.5,12.6-5,25.5-6.4,38.4c-0.2,1.6-0.7,3.2-1.3,5.7c-14.5-2.5-28.8-5-43.1-7.5c-20-3.5-39.9-7.2-60-10.4
		c-9-1.4-17-5.3-25.3-8.6c-22.2-8.8-35.9-25.5-46.2-46c-11.5-22.8-18.4-47-25.1-71.4c-4-14.8-7.9-29.6-13.5-43.8
		c-5.7-14.4-14.7-26-26.9-35.3c-11.4-8.8-24-15.6-36.8-21.9c-12.3-6-24.6-11.9-36.9-17.7c-13.3-6.2-24.2-15.1-33.1-26.7
		c-16.1-20.7-28.8-42.8-35-68.8c-5.5-23.1-16.5-44.2-26-65.8c-4.2-9.4-4.3-9.4,4.4-15.1c11.6-7.6,11.6-7.6,9.9-21.5
		c-1.2-9.8-5.2-18.5-10-26.9c-1.4-2.5-4-4.5-4.1-7.8L353.8,706.1z"/>
	<path class="st1" d="M1559.8,534.8c-27.8,12.1-54.2,23.6-82.4,36c15.3,5.6,28.8,10.5,43.2,15.8c-9.4,6.1-17.9,11.3-25.9,17.2
		c-11.7,8.6-19.7,19.6-24.6,33.1c-8.3,23-12.2,46.9-14.3,71.2c-2.4,27.8,2,55.2,3.3,82.8c1.5,31.3,3.3,62.5,2.9,93.9
		c-0.1,4.6-1.4,7.2-5.7,9.1c-19.5,8.7-37.5,20.1-57.1,28.7c-13.5,5.9-25.2,14.9-36.8,24c-21.8,17-43,34.8-65.6,50.7
		c-8.4,5.9-17.2,11.4-25.8,17.1c-2.5,1.7-4.8,3-8.2,1.4c-19.5-9.4-40-16.5-59.1-26.6c-2.3-1.2-4.7-2.5-7.1-3.8c1.4-3.8,4.5-6,7-8.5
		c26-27.7,51-56.3,75.8-85.1c30.6-35.5,45.3-76.9,50.8-122.6c3.7-31.4,6-63,11.8-94.1c1.4-7.5,3.2-15,5-22.4
		c5.2-22.3,18-39.8,35.2-54.4c25.1-21.5,53.8-36.7,84.5-48.4c24.7-9.4,50.1-15.8,76.7-17C1548.2,532.8,1553.2,532.4,1559.8,534.8z"
		/>
	<path class="st1" d="M1184.7,677c2.8-3.1,6.2-2.4,9.2-4.2c-6.1-7.6-14.9-12.1-22.1-19.7c6.9-3.8,14.8-3.7,22.3-7
		c-5.8-6.5-12.4-10.8-18.4-15.7c-2.9-2.3-4.2-4.6-3.6-8.4c4.3-29.9,6.8-60.1,15.6-89.3c4.3-14,10.7-26.4,20.5-37.2
		c24.6-27.1,54.3-47.7,84.7-67.7c1.9,3.2-0.4,5-1.4,6.8c-13.4,23.8-21.7,49.2-25.2,76.2c-1.9,14.1-4.8,28.1-7.6,44.6
		c18.5-13.2,32.9-28.2,50.1-39.8c2.5,2.6,0.4,4.5-0.3,6.4c-1.7,5.1-3.4,10.1-5.1,15.1c-8.3,23.8-10.5,47.8-4.5,72.6
		c6.1,25.1,7.3,50.8,4.7,76.4c-3.2,30.9-11.3,60.8-22.5,89.8c-15.1,39.3-34.5,76.4-57.5,111.6c-2,3.1-4.2,6.1-6.6,8.8
		c-18.9,21.1-36.9,42.9-53.3,66.1c-3.1,4.4-5.9,5.9-10.4,2.4c-0.5-0.4-1.2-0.6-1.8-0.9c-39.1-20.4-32-17-49.3-55.9
		c-4.5-10.2-2-21,0.8-31.4c2.3-8.8,6.6-16.7,11.8-24.1c6.7-9.5,13.5-19,19-29.3c1.3-2.5,2.8-4.5,5.6-5.2c5.8-1.4,7.8-5.7,8.5-11.1
		c0.8-6.6,2.7-13.1,2.4-20.8c5.5,3.8,4.1,10.8,9,15.1c3.7-22.1,7.2-43.3,10.7-64.5c0.2-1,0.2-2,0.4-3c2.5-15.2,2.6-15.3,17.4-15.6
		c2.6,0,5.2-0.2,9.1-0.4c-5.5-8.8-13.7-14.1-19.6-22.6c7-1.4,13-2.6,20.5-4.1C1192.9,685.9,1188.9,681.6,1184.7,677z"/>
	<path class="st1" d="M845.9,983.5c-24.9,8.3-45.9,21.1-61.1,43.1c-6.3-4.7-12.1-9.1-17.9-13.5c-11.7-8.8-23.6-17.5-35.1-26.6
		c-27.3-21.5-55.9-41-87.1-56.3c-7.3-3.6-11-9-12.9-16.5c-3.1-12.8-3.4-25.7-3-38.7c1-32.6,4-65.2,6.1-97.7
		c2.3-34.5-2.6-68.5-13.6-101.4c-3.6-10.7-8.9-20.7-17.4-29c7-2.7,11.9,3.1,18.7,2.7c-7.2-21.1-13.1-41.9-35.6-52.6
		c-14.1-6.7-27.6-14.7-41.7-21.4c-2.9-1.4-6.3-2.2-9-5.1c3.4-2.2,7.1-2,10.5-2.1c31.9-0.9,63.2,3.1,93.2,14.4
		c59.2,22.3,95.4,64.8,109.8,126.1c9.6,40.9,11.4,82.4,10.2,124.1c-0.3,10-0.1,20-1.5,29.9c-2.3,15.3,2,29,10,41.8
		c9.6,15.4,21.9,28.5,35,41c11.1,10.6,22.8,20.5,34.7,30.2C840.8,978,843.9,979.5,845.9,983.5z"/>
	<path class="st1" d="M897,755.3c7.5-2,7.5-2,8.9,5.1c2.1,11.1,4.3,22.2,6.5,33.5c2.4-2.2,0.6-5.2,2.2-7.2c0.5-0.7,0.9-0.5,1,0.6
		c1.1,6.9,2.8,13.7,6,20c0.8,1.5,0.9,6.9,4.8,1.7c1.4-1.9,1.6,1.1,1.8,1.8c1.5,6.1,4.2,11.2,10.7,13.3c2,0.7,2.9,2.6,3.8,4.4
		c5.5,10.7,12.4,20.5,19,30.5c6.3,9.5,11.1,19.8,12.3,31.3c2.5,24.3-8.4,42.7-26.7,57c-16.8,13-36.9,19.5-57,25.7
		c-3.2,1-5.1-0.4-7.2-1.9c-14.5-10.7-28.5-21.9-42.2-33.6c-2.1-1.8-3.6-3.9-4.7-6.3c-14-29.6-23.1-60.4-21.7-93.4
		c0.9-20.3,5.9-40.1,10.6-59.9c5-20.7,10.6-41.3,13.8-62.3c1.6-10.2,2.9-20.4,2.8-30.8c-0.2-21.2-7.2-39.7-21.2-55.6
		c-9.3-10.5-20.2-19.4-31.4-27.7c-13.8-10.4-23-23.4-27.7-40.2c-5.8-20.6-10.1-41.3-13-62.5c-0.1-1-0.2-2-0.2-3
		c0.9-29.7-3.8-59-7.5-90.1c16.1,10.7,30.6,20.7,37.5,38.5c6.5,16.6,10,33.8,12,51.3c0.7,5.9,1.3,11.9,1.9,17.8
		c19.8-0.6,26.5-5.3,43.6-31.2c6,18.2,20.5,28.6,32.5,41.3c14.8,15.6,26.3,33.4,35.6,52.6c-2,3.5-5,0-7.8,2.1
		c4.4,11.1,13.7,19.6,18.7,31.1c-5.1,0.4-9.5-2-14.9-0.5c3.9,4.6,7.5,8.8,11.9,13.9c-15.1,4.5-29.2,8.8-45.2,13.6
		c14.3,7.9,26.7,14.8,40.4,22.4c-14.3,10.4-27.6,20.2-42.9,31.4c13.7,0.7,24.9,1.3,36,1.9c1.7,3.1-0.4,5.2-1.3,7.5
		c-5.3,13.6-12.7,26.3-16.9,40.4c-0.4,0.4-1.2,1.1-1.1,1.3c0.7,1.1,1.6,0.7,2.4,0.1c5.5-1.8,11-3.5,17.3-5.5
		c0.4,7.1-4.6,12.1-4.4,18.3c-0.4,0.4-1.2,1-1.1,1.2C895.3,756,896.2,755.8,897,755.3z"/>
	<path class="st1" d="M1688.8,1107.2c10.5,12.6,22.1,21.6,31,32.8c-2.1,3.2-3.9,1-5.4,0.3c-6.5-2.7-13.3-4.3-20.2-5.4
		c-16.4-2.6-31-0.6-44.9,10.3c-28.8,22.6-54.6,47.8-76.1,77.4c-7.1,9.7-12.1,20.5-17.5,31.3c-17.5,34.9-43.5,61.3-81.2,73.9
		c-33.1,11.1-66.8,20.2-100.6,29.1c-5.4,1.4-9.1,1.3-13.2-3.1c-8.6-9.3-18.6-17.2-29.7-23.4c-4-2.2-5.8-5-5.9-9.4
		c-0.1-9.7-0.6-19.3-0.6-29c0.2-30.1-7.2-58.6-17.8-86.5c-0.6-1.5-1.1-3.1-1.7-5.2c13-2.8,26-3.9,38.8-4.1
		c28.6-0.4,57.3-0.4,85.9-0.2c28.9,0.3,54.1-9.2,76.1-27.8c13.5-11.4,26.1-23.8,38.9-35.9c11.1-10.5,22.6-20.7,34.9-29.8
		c33.9-24.9,71.8-33.8,113.2-28.4c17.9,2.3,32.6,11.2,45.4,23.4c5.5,5.2,11.1,10.4,14.9,17.9
		C1731.9,1112.1,1711.4,1109.1,1688.8,1107.2z"/>
	<path class="st1" d="M332.2,1157.9c13.9-12.6,30-19.5,47.1-24.2c24.3-6.6,48.9-9.3,74.1-6.1c18,2.3,34,8.7,48.4,19.6
		c11.2,8.5,21.4,18,31.7,27.5c23.5,21.7,49.2,39.7,80.3,49c26.5,7.9,53.4,13.8,80.7,18.3c19.4,3.2,38.8,5.9,58.4,7.7
		c4.7,0.4,7.3,1.4,6.9,7c-0.7,12.3-0.8,24.6-1,36.9c0,3.3-1.6,5.6-3.8,7.8c-24,24.5-47.6,49.4-70.4,75c-2.9,3.3-5.6,3.4-9.6,2.5
		c-27.4-6.5-52.9-17.7-77.8-30.5c-54-27.7-98-66.1-129.8-118.2c-7.5-12.2-15.9-23.8-23.1-36.2c-12.5-21.5-31.9-31-55.6-34.1
		c-15.3-2-30.5-2.2-45.9-2C339.3,1157.9,335.8,1157.9,332.2,1157.9z"/>
	<path class="st1" d="M1092.6,568.6c-1.7-14.1-2-26.8,0.4-41.4c-18.6,11.6-35.2,22-52.4,32.7c-9.9-14.1-19.5-27.9-29.9-42.7
		c-7.7,17.4-15,33.7-22.2,49.8c-1.4-0.2-2.1-0.1-2.6-0.4c-18.3-10.6-18.2-10.7-21.9-32.2c-2.3-13.9-2.7-27.8-2.5-41.8
		c0.5-43.1,6.3-85.6,13.5-128c2.6-15.4,5.8-30.7,8.7-46.1c0.6-3.2,1.2-6.4,3.1-9.8c5.3,5.5,7.5,12.7,13.1,19.3
		c6.8-15.6,10-31.9,16.9-47c2.1,2,2.1,4.4,2.5,6.6c4.6,25.5,19.3,44,40.2,58.3c4.4,3,6.9,2.4,9.7-1.6c2.1-2.9,4.7-5.4,7.9-9
		c3,12.4,5.6,23.6,8.3,34.8c3.9,16.2,9.6,31.7,17.5,46.5c12.9,24.3,20.8,50.4,24.4,77.7c1.2,9.2,0.9,18.6-1,27.8
		c-2.7,13.1-6.5,25.8-9.7,38.7c-1.1,4.3-3.2,6.1-7.4,6.4C1103.8,567.5,1098.3,568.1,1092.6,568.6z"/>
	<path class="st2" d="M1372,1508c-4.3,0.7-7.7-1.8-11.3-3.2c-48.5-18.4-97.2-36.5-147.5-49.5c-9-2.3-18.1-4.5-27.3-5.6
		c-3.9-0.5-5.9-2.2-5.8-6.4c0.2-6.7,0.1-13.3,0-20c-0.1-4.2,2-4.8,5.6-4.6c26.4,1.8,52.5-1.5,78.4-6.1c8.8-1.6,14.5,0.4,20.4,7.4
		c25.4,30,52.8,58.1,83.4,83c1.7,1.4,4.2,2.3,4.1,5.2L1372,1508z"/>
	<path class="st1" d="M852.3,1255.3c1-0.3,1.3-0.4,1.6-0.4c20.8,2.9,21.2,2.8,26.5,23.7c8.5,33.5,10.9,67.5,8.8,101.9
		c-0.2,3.1-1.2,4.9-4.5,5.3c-26.6,3.8-53.4,5.6-80,6.1c-1.6-3.7,0.8-5.2,2.2-6.6c22.6-23.3,31.9-52.4,37.3-83.4
		C846.9,1286.5,849.5,1271.2,852.3,1255.3z"/>
	<path class="st1" d="M1251.1,1383.2c-20.5,3-41,5.5-61.7,4.6c-7.3-0.3-7.6-0.3-8.1-7.9c-2.9-37.3-2.5-74.6,3.6-111.6
		c1.4-8.2,2.8-16.4,3.8-24.7c0.7-5.6,3.2-9.1,8.4-11c3.4-1.2,6.7-2.9,10.8-4.8c2.1,13,4,25.4,6.1,37.8c4.1,24.3,8.8,48.5,15.9,72.1
		c4.4,14.8,9.9,29,20.2,40.9C1250.9,1379.7,1251.9,1380.7,1251.1,1383.2z"/>
	<path class="st2" d="M694.8,1501.3c0.5-2.2,2.3-3.2,3.8-4.4c25.8-20.7,49-44,71.1-68.5c3.9-4.3,7.8-6,13.7-5.9
		c31.3,0.6,62.5,0,93.6-4.2c3.2-0.4,6.5-0.5,10.7-0.8c0,6.4-0.2,12.2,0.1,18.1c0.2,4.5-1.5,6.4-6.1,7.1c-12.5,2-24.8,4.9-37,8.3
		c-47.8,13.2-94.3,30.3-140.6,48.1c-2.5,0.9-5,1.9-7.5,2.7C696.1,1501.9,695.4,1501.5,694.8,1501.3z"/>
	<path class="st1" d="M859,1193c1,5.1,2.5,12.7,4,20.3c0.4,1.9,1.6,3.9,0,5.6c-1.3,1.5-3,0.3-4.5-0.2c-3.1-1-2.5-3.7-2.1-5.8
		C857.7,1205.5,856.9,1197.9,859,1193z"/>
	<path class="st1" d="M1201.2,1181.1c1.7,3.9,2.6,7,2.5,10.2c-0.1,1.5-0.8,2.4-2.4,2.4c-1.4-0.1-2.6-0.7-2.2-2.4
		C1199.6,1188.2,1200.3,1185.1,1201.2,1181.1z"/>
	<path class="st2" d="M936,568c1.1,0.2,1.6,0.9,1.7,1.9c0.2,0.9,0.3,2-0.9,2.3c-0.2,0-0.8-1.5-1-2.3
		C935.7,569.3,935.9,568.6,936,568C936,568,936,568,936,568z"/>
	<path class="st2" d="M1371.9,1508.1c1-0.6,1.8-0.1,2.5,0.6c0,0-0.3,0.7-0.5,0.7c-1.1,0.2-1.8-0.2-1.9-1.4
		C1372,1508,1371.9,1508.1,1371.9,1508.1z"/>
	<path class="st1" d="M354,706c-0.8,0-1.3-0.3-1.2-1c0-0.1,0.9-0.3,1.2-0.2c0.6,0.3,0.4,0.9-0.3,1.3C353.8,706.1,354,706,354,706z"
		/>
	<path class="st2" d="M326.5,657.5c0.4,0.4,1.2,1.2,1.1,1.3c-0.7,1.1-1.5,0.6-2.2-0.2C325.7,658.3,326.1,657.9,326.5,657.5z"/>
	<path class="st2" d="M569.9,1164.1c1.5-0.2,1.8,0.8,1.9,2l0.1,0.1c-0.6-0.8-1.3-1.5-1.9-2.3C570,1163.9,569.9,1164.1,569.9,1164.1z
		"/>
	<path class="st2" d="M571.8,1166.1l0.4,0.1c0,0-0.3,0-0.3,0C571.9,1166.2,571.8,1166.1,571.8,1166.1z"/>
	<path class="st0" d="M883,741.1c-0.9,0.6-1.8,1-2.4-0.1c-0.1-0.2,0.7-0.8,1.1-1.3C882.1,740.1,882.6,740.6,883,741.1z"/>
	<path class="st0" d="M897,755.3c-0.9,0.5-1.7,0.7-2.3-0.3c-0.1-0.1,0.7-0.8,1.1-1.2C896.3,754.3,896.7,754.8,897,755.3z"/>
</g>
</svg>
