<?xml version="1.0" standalone="no"?>
<!DOCTYPE svg PUBLIC "-//W3C//DTD SVG 20010904//EN"
 "http://www.w3.org/TR/2001/REC-SVG-20010904/DTD/svg10.dtd">
<svg version="1.0" xmlns="http://www.w3.org/2000/svg"
 width="2054.000000pt" height="2054.000000pt" viewBox="0 0 2054.000000 2054.000000"
 preserveAspectRatio="xMidYMid meet">

<g transform="translate(0.000000,2054.000000) scale(0.100000,-0.100000)"
fill="#000000" stroke="none">
<path d="M9885 20533 c-236 -11 -468 -27 -636 -43 -2182 -217 -4211 -1115
-5854 -2589 -193 -173 -583 -563 -756 -756 -1485 -1654 -2389 -3712 -2594
-5905 -27 -289 -35 -456 -42 -805 -29 -1636 325 -3225 1046 -4690 413 -840
885 -1547 1516 -2270 193 -220 691 -719 915 -914 1610 -1408 3548 -2267 5645
-2500 631 -71 1393 -80 2035 -25 2850 242 5462 1666 7232 3942 1207 1551 1945
3439 2112 5402 55 642 46 1404 -25 2035 -132 1184 -463 2321 -990 3390 -396
806 -899 1556 -1510 2255 -195 224 -694 722 -914 915 -723 631 -1430 1103
-2270 1516 -1275 627 -2623 972 -4065 1039 -192 9 -687 11 -845 3z m820 -573
c2236 -107 4278 -929 5964 -2399 215 -187 706 -679 896 -896 1044 -1197 1768
-2589 2134 -4105 197 -817 281 -1572 268 -2435 -6 -392 -20 -628 -57 -960
-162 -1430 -645 -2811 -1410 -4037 -772 -1234 -1854 -2316 -3088 -3088 -528
-329 -1138 -632 -1712 -849 -867 -326 -1740 -519 -2700 -597 -268 -21 -920
-30 -1195 -15 -941 49 -1789 210 -2651 502 -1204 407 -2301 1041 -3279 1894
-217 190 -709 681 -896 896 -1753 2010 -2596 4575 -2374 7224 136 1620 684
3190 1584 4540 870 1304 2017 2362 3396 3130 176 98 585 301 775 384 1088 478
2252 752 3440 810 245 12 667 12 905 1z"/>
<path d="M10519 18757 c-114 -79 -224 -158 -244 -176 -55 -48 -120 -125 -176
-211 l-49 -74 0 184 c0 113 -4 180 -9 175 -26 -26 -419 -801 -447 -882 -105
-294 -235 -1014 -301 -1663 -12 -125 -17 -266 -18 -495 0 -339 5 -401 51 -593
14 -57 23 -109 21 -115 -2 -7 2 -26 10 -44 7 -18 13 -42 13 -54 0 -12 -36 49
-79 137 -133 268 -282 475 -482 669 l-113 110 -239 420 c-131 231 -241 422
-243 424 -8 9 -13 -10 -53 -224 -23 -121 -44 -229 -48 -240 -4 -14 -13 1 -32
55 -37 103 -85 196 -141 273 -86 116 -280 269 -523 411 -88 52 -418 218 -423
213 -1 -1 13 -108 32 -237 79 -541 116 -870 120 -1065 6 -262 46 -529 121
-805 87 -324 170 -464 373 -630 233 -191 287 -239 337 -305 150 -196 145 -395
-26 -1085 -54 -216 -53 -216 -66 -15 -15 220 -58 478 -116 693 -222 838 -852
1383 -1770 1532 -362 59 -818 37 -1132 -55 -97 -28 -435 -192 -421 -204 5 -5
83 -39 174 -76 328 -134 533 -228 514 -235 -11 -4 -139 -20 -286 -35 -148 -16
-265 -32 -260 -37 4 -4 154 -74 334 -157 438 -200 686 -336 844 -462 74 -58
100 -100 142 -220 102 -292 132 -657 93 -1129 -28 -333 -41 -594 -41 -808 l0
-173 -30 21 c-58 42 -201 183 -250 249 -28 37 -111 185 -187 336 -166 329
-262 504 -361 655 -168 258 -288 389 -527 580 -331 263 -534 405 -694 486 -92
46 -839 329 -848 321 -4 -4 70 -91 194 -228 l23 -25 -92 23 c-153 39 -249 40
-513 3 -126 -17 -231 -32 -232 -34 -2 -2 90 -61 204 -131 113 -71 243 -156
287 -189 102 -77 254 -223 313 -301 39 -52 93 -144 93 -160 0 -3 -59 -43 -130
-90 -72 -46 -130 -86 -130 -88 0 -2 32 -71 71 -153 179 -373 296 -661 340
-830 53 -208 131 -380 268 -587 133 -202 276 -355 410 -442 41 -26 180 -99
310 -162 407 -197 493 -247 595 -349 87 -88 122 -173 236 -589 124 -452 226
-708 364 -917 24 -38 42 -68 39 -68 -7 0 -104 84 -276 240 -230 207 -368 303
-541 375 -292 121 -716 134 -1127 36 -289 -68 -571 -209 -742 -370 -61 -58
-507 -595 -507 -611 0 -3 106 11 236 32 314 50 516 68 758 68 217 0 356 -15
466 -51 81 -27 118 -65 220 -223 198 -309 376 -571 456 -671 109 -138 308
-341 437 -448 371 -308 857 -577 1329 -736 l136 -46 -70 -85 c-208 -253 -363
-470 -429 -603 -53 -106 -84 -146 -126 -164 -43 -17 -60 -12 -148 47 -97 65
-333 207 -435 262 -210 113 -304 125 -382 51 -105 -100 35 -269 286 -348 88
-27 118 -41 143 -67 41 -44 63 -89 70 -147 5 -48 5 -49 -28 -59 -142 -44 -360
-9 -457 73 -55 47 -74 108 -76 237 -1 96 -2 101 -29 124 -55 47 -150 51 -190
6 -26 -29 -75 -142 -96 -225 -46 -177 -52 -387 -15 -492 36 -101 173 -197 405
-284 109 -41 285 -92 382 -111 38 -8 57 -16 57 -26 0 -8 -24 -67 -53 -132 -91
-199 -118 -300 -118 -437 0 -206 89 -342 311 -475 203 -122 460 -189 812 -210
676 -41 1975 188 3247 571 231 70 281 82 400 94 414 42 730 22 916 -56 84 -36
656 -180 1123 -283 699 -155 1170 -237 1722 -298 178 -19 631 -16 755 5 281
49 477 136 601 268 106 113 147 221 147 384 0 111 -13 181 -53 292 -22 58 -98
211 -129 258 l-20 31 102 2 c271 8 543 91 719 222 123 91 254 274 311 437 27
76 31 102 31 188 0 103 -17 182 -55 256 -34 68 -96 63 -171 -12 -26 -26 -48
-53 -48 -60 0 -6 -19 -53 -43 -103 -58 -121 -163 -236 -217 -236 -6 0 -18 16
-26 36 -13 30 -13 48 -3 116 31 211 -41 356 -209 418 -136 51 -260 9 -307
-104 -19 -46 -13 -80 18 -100 12 -9 67 -22 122 -31 55 -9 106 -21 113 -28 11
-9 13 -33 9 -112 -6 -119 -21 -167 -63 -212 -41 -43 -93 -45 -152 -5 -114 76
-150 220 -92 370 24 62 26 129 4 160 -49 70 -196 69 -289 -2 -37 -28 -86 -118
-109 -199 -9 -32 -21 -55 -26 -52 -5 3 -134 171 -286 373 -153 202 -335 440
-406 530 -77 98 -123 164 -116 167 7 2 120 34 250 70 300 83 635 184 763 229
361 129 781 534 932 899 70 170 218 371 437 596 147 149 272 260 391 346 l80
57 85 -5 c108 -7 181 -30 225 -68 30 -26 42 -54 97 -220 34 -104 65 -189 68
-189 3 0 54 98 113 217 100 204 157 356 157 419 0 13 2 24 4 24 18 0 220 -72
243 -87 15 -9 151 -138 302 -286 150 -147 275 -266 277 -264 7 6 -284 717
-334 816 -221 443 -573 765 -923 845 -197 46 -532 46 -745 2 -326 -68 -631
-229 -926 -489 -43 -37 -78 -66 -78 -64 0 2 9 30 20 63 12 32 68 219 126 414
189 635 207 683 298 775 105 106 184 151 686 393 192 92 308 171 410 279 253
267 452 625 490 879 35 239 146 556 351 1003 126 275 275 561 468 902 l32 57
-136 17 c-83 11 -163 16 -208 12 -90 -7 -216 -46 -331 -104 -48 -24 -90 -43
-92 -41 -2 2 19 60 45 128 27 69 48 126 46 128 -7 8 -550 -204 -624 -244 -154
-84 -361 -230 -656 -465 -383 -304 -565 -555 -907 -1248 -158 -322 -223 -429
-337 -551 l-70 -75 -1 65 c-1 219 -32 799 -56 1075 -31 349 3 714 93 990 53
166 90 213 253 322 185 124 376 222 841 434 184 83 338 155 344 160 5 5 -58
10 -155 10 -91 1 -237 4 -325 8 l-159 6 327 160 c180 88 327 162 327 165 0 3
-80 45 -177 93 -185 90 -236 107 -458 149 -155 29 -440 32 -610 5 -691 -108
-1473 -521 -1795 -949 -52 -69 -60 -76 -65 -56 -27 121 -37 211 -31 283 17
234 165 609 436 1105 76 140 138 256 136 257 -3 3 -623 -280 -704 -321 -30
-15 -56 -26 -58 -23 -7 6 159 336 261 517 54 96 188 322 297 502 109 180 198
330 198 333 0 7 -473 -234 -635 -323 -350 -193 -747 -454 -1002 -659 -285
-229 -466 -425 -569 -617 l-31 -58 -7 78 c-27 303 -126 637 -286 959 -66 133
-99 212 -125 305 -53 189 -109 461 -167 808 -29 171 -55 312 -58 312 -3 0 -86
-97 -184 -216 l-179 -216 -23 29 c-90 109 -104 362 -38 678 19 90 155 530 201
653 3 6 1 12 -3 11 -5 0 -102 -64 -215 -142z m-324 -1157 c48 -184 200 -390
369 -499 l68 -45 32 35 c17 18 45 52 63 73 31 38 32 39 37 15 101 -459 129
-549 235 -764 154 -311 232 -559 262 -834 16 -146 -2 -258 -92 -588 l-31 -111
-41 -6 c-23 -3 -77 -9 -120 -12 l-79 -7 7 68 c6 49 4 69 -5 75 -9 6 -10 34 0
134 7 70 10 129 8 131 -1 2 -117 -68 -256 -156 -139 -87 -256 -159 -260 -159
-4 0 -72 95 -152 210 -79 116 -147 207 -151 202 -4 -4 -55 -118 -114 -253
l-108 -246 -87 54 c-49 30 -93 59 -98 66 -5 7 -17 46 -27 87 -80 339 -71 814
31 1515 50 345 145 859 164 878 4 5 35 -39 70 -97 34 -58 64 -106 65 -106 2 0
29 78 61 173 31 94 71 210 88 257 l30 85 8 -57 c4 -31 14 -84 23 -118z m-2680
-1196 c165 -124 240 -235 300 -439 32 -110 71 -336 80 -467 4 -54 9 -98 12
-98 18 0 195 56 225 71 55 28 113 94 156 176 20 40 40 73 44 73 3 0 32 -47 65
-104 50 -89 71 -114 147 -182 161 -142 334 -368 441 -575 l47 -92 -51 7 c-28
4 -51 4 -51 1 0 -3 44 -72 98 -153 54 -81 102 -153 107 -161 7 -11 1 -13 -31
-8 -21 3 -61 9 -89 13 l-50 7 69 -72 c39 -41 65 -76 60 -80 -5 -5 -106 -37
-224 -71 -118 -34 -216 -63 -218 -64 -1 -2 88 -52 198 -112 110 -60 200 -111
200 -114 0 -3 -97 -75 -215 -160 l-216 -155 188 -8 c103 -5 189 -10 191 -12 2
-2 -46 -115 -106 -252 -60 -136 -108 -249 -107 -251 1 -1 44 14 96 33 90 33
119 41 119 30 0 -2 -16 -48 -36 -100 -20 -53 -34 -98 -31 -101 2 -2 24 4 48
15 41 19 44 19 50 3 3 -9 23 -111 45 -227 l39 -210 5 100 5 100 12 -71 c16
-94 59 -226 82 -255 l18 -22 8 44 c5 28 9 37 12 24 2 -11 13 -47 24 -80 17
-54 24 -62 66 -85 40 -21 54 -37 91 -103 23 -43 74 -126 113 -183 90 -134 135
-225 159 -321 45 -173 12 -323 -106 -489 -109 -154 -294 -267 -614 -375 -63
-21 -122 -39 -130 -39 -17 0 -264 189 -406 310 -70 59 -91 84 -121 143 -80
159 -142 361 -184 592 -18 102 -20 145 -16 285 6 196 27 318 127 730 117 484
147 674 137 865 -6 122 -26 209 -67 302 -67 148 -161 256 -390 443 -193 158
-243 211 -286 305 -90 195 -205 747 -191 920 7 91 -32 516 -69 749 l-6 40 28
-18 c16 -10 61 -42 99 -72z m5366 -242 c-73 -146 -143 -308 -164 -382 -18 -61
-149 -782 -143 -787 2 -2 86 65 187 150 170 142 331 268 335 264 1 -1 -24 -81
-56 -177 -117 -348 -125 -451 -60 -815 36 -205 43 -267 47 -425 15 -512 -132
-1060 -456 -1708 -182 -363 -338 -612 -502 -799 -137 -157 -312 -374 -408
-508 -40 -55 -77 -102 -82 -103 -11 -4 -216 103 -306 160 -35 22 -78 57 -96
78 -18 21 -67 116 -110 213 l-77 175 0 89 c0 98 22 203 63 293 13 30 72 127
131 215 60 88 119 181 132 207 18 36 34 51 66 66 24 10 49 26 57 35 14 18 50
208 51 272 0 51 11 36 46 -67 14 -43 29 -80 33 -82 4 -3 36 171 71 385 46 278
68 388 77 385 8 -3 10 5 6 30 l-6 34 122 0 c66 0 121 3 121 7 0 4 -48 56 -107
115 -73 73 -102 109 -92 112 8 3 54 12 103 20 49 9 91 18 94 20 2 3 -28 39
-67 80 l-73 74 56 13 c31 7 56 15 56 18 -1 3 -54 49 -120 101 -65 52 -117 96
-115 98 2 2 54 16 115 32 61 16 114 30 116 33 3 2 -42 42 -98 87 -57 46 -109
88 -116 95 -20 18 51 559 103 780 30 129 81 287 112 350 79 158 286 367 594
601 113 85 400 283 412 284 4 0 -20 -53 -52 -118z m2659 -949 c43 -4 57 -9 46
-15 -8 -5 -191 -85 -406 -178 -215 -93 -397 -173 -405 -177 -10 -6 58 -34 200
-83 118 -41 215 -77 215 -80 0 -3 -29 -23 -64 -43 -162 -95 -306 -215 -362
-303 -173 -270 -266 -898 -209 -1409 17 -154 37 -568 42 -905 l6 -386 -129
-65 c-696 -351 -669 -335 -1039 -629 -301 -240 -457 -356 -638 -475 l-148 -97
-67 35 c-37 19 -105 49 -152 65 -47 17 -148 60 -225 97 -77 37 -168 80 -203
96 l-64 29 149 157 c532 566 862 971 978 1203 133 264 191 525 265 1185 90
805 151 1003 383 1238 337 342 959 642 1497 721 95 14 135 18 236 24 17 1 59
-1 94 -5z m-9620 -378 c671 -99 1169 -441 1425 -977 194 -408 272 -1011 235
-1820 l-13 -288 28 -86 c75 -229 349 -540 781 -884 l82 -64 -82 -32 c-186 -72
-312 -152 -427 -272 -41 -42 -84 -90 -95 -106 l-20 -28 -465 349 c-491 370
-501 376 -814 548 -227 125 -229 127 -262 276 -31 135 -20 580 28 1129 10 124
19 270 19 325 0 375 -97 838 -217 1045 -15 25 -54 74 -87 109 -34 35 -54 62
-46 59 8 -3 62 -22 118 -42 57 -21 105 -36 107 -34 2 2 -27 80 -65 173 -49
124 -78 182 -106 214 -59 68 -224 170 -488 301 -216 107 -235 119 -205 123 74
11 457 -1 569 -18z m11590 -1137 c-271 -558 -429 -978 -475 -1269 -18 -117
-38 -176 -100 -299 -100 -199 -286 -444 -402 -529 -68 -50 -120 -77 -483 -255
-289 -140 -396 -209 -516 -330 -142 -143 -175 -221 -360 -845 -136 -462 -247
-791 -325 -969 -68 -158 -74 -164 -205 -230 -140 -71 -270 -83 -763 -75 -345
6 -611 -5 -806 -32 -55 -7 -100 -13 -101 -12 0 1 4 101 9 222 11 263 -3 597
-33 769 -11 64 -35 156 -53 205 l-33 88 75 48 c141 89 365 254 631 465 389
309 452 350 735 475 380 168 635 328 842 528 193 187 254 278 465 702 228 456
327 624 489 824 112 140 200 219 499 448 134 102 349 253 362 253 5 0 6 -10 2
-22 -17 -55 -101 -489 -93 -486 4 2 79 64 165 138 178 153 275 230 384 303 63
43 200 127 207 127 1 0 -52 -109 -117 -242z m-13665 -366 c77 -45 140 -80 141
-79 1 1 -8 54 -21 117 -13 63 -22 116 -20 118 8 8 402 -289 577 -436 108 -90
223 -227 333 -392 104 -158 182 -298 347 -625 72 -143 151 -291 176 -330 162
-254 427 -467 917 -741 116 -64 260 -146 322 -181 71 -41 290 -198 600 -432
418 -314 488 -371 487 -392 -1 -13 -9 -87 -18 -164 -24 -202 -32 -513 -16
-665 16 -154 17 -137 -8 -245 -12 -50 -28 -149 -37 -220 -9 -71 -17 -131 -19
-132 -1 -1 -263 44 -582 100 l-579 103 -170 87 c-186 95 -217 121 -314 262
-146 212 -231 430 -385 992 -97 354 -165 494 -303 624 -92 85 -248 186 -423
271 -569 277 -569 277 -697 430 -167 202 -300 446 -352 648 -48 186 -119 372
-253 664 -37 82 -65 152 -62 155 3 3 46 33 97 66 l92 61 -3 69 c-6 132 -54
265 -142 395 l-41 61 108 -55 c59 -29 171 -90 248 -134z m12985 -3523 c63 -5
142 -17 174 -25 77 -20 184 -74 267 -135 66 -49 195 -177 236 -235 l23 -31
-68 14 c-82 17 -585 82 -592 76 -2 -2 67 -74 153 -161 89 -89 157 -165 157
-176 0 -14 -4 -16 -17 -10 -133 58 -319 89 -458 75 -60 -6 -80 -14 -140 -53
-378 -246 -842 -747 -985 -1064 -69 -153 -102 -212 -170 -302 -163 -219 -420
-425 -616 -495 -170 -61 -1098 -327 -1141 -327 -8 0 -58 41 -111 91 -80 75
-183 152 -288 215 -16 10 -19 35 -25 285 -4 151 -12 310 -19 354 -21 144 -110
472 -157 578 -14 31 -24 59 -22 61 2 3 76 12 164 22 134 15 234 18 620 16 621
-2 758 12 940 97 164 77 276 164 590 461 116 109 248 230 295 269 379 317 748
441 1190 400z m-12285 -544 c124 -19 207 -45 310 -98 123 -64 199 -124 461
-362 269 -246 488 -385 746 -474 298 -102 814 -209 1268 -261 102 -11 200 -23
219 -26 l34 -5 -7 -236 -7 -236 -198 -206 c-200 -208 -421 -445 -520 -557
l-53 -62 -67 15 c-36 8 -131 37 -211 63 -455 149 -966 442 -1306 747 -192 173
-388 414 -580 717 -287 451 -338 513 -469 577 -159 76 -443 117 -737 106 -82
-3 -148 -3 -148 -1 0 11 178 119 253 153 149 69 334 121 517 146 132 18 374
18 495 0z m7474 -622 c1 -29 -2 -33 -24 -33 -30 0 -29 -6 -8 83 l17 72 7 -45
c4 -25 8 -60 8 -77z m-3414 -178 c9 -44 18 -88 21 -97 6 -19 -19 -24 -61 -12
-20 5 -20 8 -8 132 6 70 13 136 14 147 1 11 5 -5 10 -35 5 -30 16 -91 24 -135z
m3495 -420 c81 -523 181 -928 277 -1119 20 -39 57 -99 84 -133 27 -35 49 -67
49 -71 0 -10 -17 -13 -225 -37 -113 -13 -471 -23 -481 -13 -12 13 -26 408 -21
618 6 250 18 370 74 719 l27 174 91 43 c58 28 91 39 92 31 2 -7 16 -102 33
-212z m-3450 -71 c36 -8 70 -18 76 -22 14 -9 70 -195 89 -297 51 -276 65 -422
65 -690 0 -145 -4 -266 -9 -269 -10 -7 -209 -32 -356 -46 -143 -13 -505 -25
-505 -17 0 4 45 64 101 133 127 160 144 188 191 307 68 170 161 593 194 870
l6 58 42 -6 c22 -4 70 -13 106 -21z m4210 -1671 c274 -312 552 -586 782 -771
58 -48 105 -88 104 -89 -1 -2 -78 27 -171 63 -664 257 -1298 462 -1642 530
l-143 28 0 145 0 146 203 1 c203 1 381 17 597 54 166 28 143 37 270 -107z
m-4000 -52 l0 -119 -27 -6 c-16 -3 -57 -10 -93 -16 -282 -48 -936 -256 -1595
-508 -115 -44 -219 -83 -230 -87 -23 -8 -22 -7 130 119 154 128 343 309 525
501 l165 176 290 3 c288 4 488 16 680 41 55 7 112 13 128 14 l27 1 0 -119z"/>
</g>
</svg>
