<svg xmlns="http://www.w3.org/2000/svg" viewBox="0 0 495 495"><defs><style>.cls-1{fill:#00b0e1;}.cls-2{fill:#040404;}.cls-3{fill:gray;}.cls-4{fill:#fefefe;}.cls-5{fill:#1aace3;}.cls-6{fill:#090606;}</style></defs><g id="Layer_3" data-name="Layer 3"><circle class="cls-1" cx="247.5" cy="247.5" r="247.5"/></g><g id="Layer_1" data-name="Layer 1"><path class="cls-2" d="M20.82,404.89c.05-.05.14-.09.15-.14a9.08,9.08,0,0,1,1.48-3.18c1.31-2,2.73-3.91,4.19-5.8,4-5.12,8-10.22,11.93-15.35,5.13-6.62,10.17-13.3,14.84-20.26A114.28,114.28,0,0,0,61.25,347,138.73,138.73,0,0,0,67,333.17c2.71-7.43,5.05-15,7.29-22.57,3.1-10.52,6-21.11,8.89-31.68,2.71-9.73,5.45-19.45,8.63-29A295.4,295.4,0,0,1,105,216.55a171.64,171.64,0,0,1,8.64-16.1,5.39,5.39,0,0,0,.6-1.34c.37-1.19.78-2.37,1.17-3.55a.8.8,0,0,0,.06-.6c-.5.06-1,.12-1.53.2-2.35.39-4.72.66-7.09.91a162.52,162.52,0,0,1-17.37.84H78.07c-.31,0-.61,0-.91,0a.17.17,0,0,1-.11-.26,4.24,4.24,0,0,1,.38-.56q4.42-5.91,8.87-11.82A24.83,24.83,0,0,1,90.57,180a104.69,104.69,0,0,1,9.6-6.87c1.58-1,3.2-2,4.79-3,.22-.14.49-.22.64-.54l-.81-1a70.16,70.16,0,0,1-7.07-11,120.78,120.78,0,0,1-8-18.67c-.92-2.77-1.87-5.52-2.82-8.27a1.76,1.76,0,0,1-.17-.94c.51.06,1,.1,1.54.17,1.83.27,3.66.56,5.5.82l5.51.76,4.39.59c.79.1,1.58.2,2.37.27,2.07.19,4.15.33,6.23.53,3.17.31,6.35.41,9.53.56,2.39.11,4.78.11,7.16.15.52,0,.54,0,.57-.6.16-2.88.29-5.76.49-8.63.23-3.25.53-6.5.8-9.75.18-2,.35-4.07.54-6.11s.39-3.85.58-5.77c.18-1.73.35-3.47.54-5.2s.4-3.69.6-5.54c.18-1.58.35-3.16.53-4.74.28-2.33.56-4.67.83-7s.51-4.36.77-6.54c.21-1.73.42-3.46.64-5.19,0-.14,0-.3.14-.39.3,0,.41.31.58.51l15.54,18.13a4.9,4.9,0,0,1,.91,1.54,81.62,81.62,0,0,0,6.21,12.49c0,.06.11.1.18.17.23,0,.18-.27.26-.4a2.16,2.16,0,0,0,.14-.43,188.15,188.15,0,0,1,7.5-19.48A108.33,108.33,0,0,1,176.6,64a57.32,57.32,0,0,1,7.4-8.9,26,26,0,0,1,6.73-4.78c3.48-1.67,6.92-3.42,10.37-5.14.06,0,.09-.1.14-.16h.23q-.14,3-.28,5.91c-.1,1.85-.24,3.7-.34,5.56-.12,2.08-.21,4.16-.32,6.24-.11,2.24-.23,4.47-.33,6.7-.06,1.33-.07,2.66-.13,4a4,4,0,0,0,.36,1.65c.73,1.95,1.45,3.9,2.24,5.83,1,2.48,2.11,4.94,3.18,7.4a1.9,1.9,0,0,0,.51.9,4,4,0,0,0,1.06-.6c8.27-5.12,16.68-10,25.39-14.31a161.81,161.81,0,0,1,19.79-8.44,85.49,85.49,0,0,1,10.91-3,44,44,0,0,1,7.66-.87,19.84,19.84,0,0,1,7.47,1.15c2.69,1,5.42,1.9,8.13,2.84l1,.37c-.58.85-1.19,1.56-1.77,2.3s-1.21,1.55-1.82,2.33l-1.76,2.23-1.76,2.24c-.61.77-1.22,1.54-1.82,2.32s-1.17,1.46-1.73,2.24a1.24,1.24,0,0,0,.88,0c5.09-1.28,10.2-2.49,15.34-3.55,3.92-.81,7.84-1.64,11.77-2.41,3.05-.6,6.1-1.12,9.15-1.67,2.38-.43,4.76-.87,7.15-1.28,2-.35,4.11-.66,6.16-1,1.68-.27,3.36-.55,5-.8l5.28-.78,4.16-.6,3.7-.54,5.84-.84,5.51-.77c.27,0,.53-.08.79-.13a5.18,5.18,0,0,1,1.17-.09c0,.11.05.15,0,.18s0,.06-.07.09a.3.3,0,0,1-.08.08l-.16.17-.08.07-.08.09-.08.08-.08.08c-.05,0-.11.1-.16.16l-39.15,38.37L319,105a.6.6,0,0,1-.08.08l-.08.08a.6.6,0,0,1-.08.08.6.6,0,0,1-.08.08l-.06.09-.08.18c.44.26.94.13,1.39.22s1.05.13,1.58.2l1.46.19,1.46.21,1.58.19,1.47.16,1.47.16,1.57.21,1.46.2,1.47.2,1.58.18c.49.06,1,.1,1.47.15l1.57.19,1.47.2,1.46.21,1.58.19,1.46.16,1.47.16,1.58.2,1.46.21,1.46.19,1.58.19,1.47.15,1.47.18,1.57.21,1.47.2c.48.07,1,.13,1.46.18l1.58.18,1.47.16,1.46.19,1.58.22,1.46.19,1.47.17,1.58.17c.49,0,1,.11,1.46.18s1.05.13,1.58.21l1.46.2,1.47.18,1.58.18,1.47.16,1.46.19,1.57.21,1.47.2,1.46.16,1.59.18,1.47.21c.12.37-.25.4-.43.52q-5.14,3.14-10.29,6.24l-9,5.47c-.17.11-.45.14-.48.45a6.35,6.35,0,0,0,1.68.17c4.06.07,8.12.17,12.17-.11,1.66-.11,3.33-.16,5-.31s3.39-.34,5.08-.58c4.38-.63,8.71-1.52,13.07-2.31,3.34-.62,6.69-1.22,10-1.83.2,0,.43-.13.63,0,0,.28-.19.4-.33.56q-7,7.93-14,15.87a51.11,51.11,0,0,1-9.19,7.93,133.13,133.13,0,0,1-14.73,8.75c-4.52,2.37-9.12,4.57-13.79,6.7,0,.39.37.54.59.76a87.18,87.18,0,0,1,16.57,21.39,78.83,78.83,0,0,1,7,16.59c.58,2,1,4,1.47,6.06,1,4.47,2,8.94,3,13.4a8.87,8.87,0,0,0,.52,1.5q7.88,18.48,15.77,37,15.48,36.25,31,72.52c1.38,3.23,2.78,6.46,4.16,9.69a39.54,39.54,0,0,0,3.08,5.69c2.28,3.58,4.83,7,7.43,10.33,3.73,4.82,7.51,9.62,11.24,14.44,2.62,3.39,5.14,6.85,7.47,10.45a55.59,55.59,0,0,1,4.5,8.14,23.67,23.67,0,0,1,1.67,6.11,12.39,12.39,0,0,1,.07,1.36,4.7,4.7,0,0,0,.21,2.29v3.18a4.66,4.66,0,0,0-.22,2.28,10.36,10.36,0,0,1-.1,1.25,23.83,23.83,0,0,1-6.21,12.29,31.74,31.74,0,0,1-7.55,5.79,57.94,57.94,0,0,1-10.85,4.55,47.53,47.53,0,0,1-12.52,2,67.19,67.19,0,0,1-8.86-.14,73.08,73.08,0,0,1-8.08-1.15,49.9,49.9,0,0,1-14.2-5.22,64.68,64.68,0,0,1-17.6-14.57,85.13,85.13,0,0,1-13-20.71,95,95,0,0,1-8.23-33,3,3,0,0,0-.18-1.18c-.09,0-.14,0-.16,0a7.37,7.37,0,0,0-.61.5,202.29,202.29,0,0,1-19.15,15.53,300.57,300.57,0,0,1-35.76,22c-3.45,1.81-6.92,3.58-10.44,5.23a1.35,1.35,0,0,0-.88,1.06c-.23,1.11-.56,2.2-.81,3.31a23.11,23.11,0,0,1-4,8.6,35.39,35.39,0,0,1-4.11,4.71,58,58,0,0,1-11.62,8.68q-4.87,2.79-9.8,5.5a2.55,2.55,0,0,0-1.22,1.4c-1,2.64-2.13,5.26-3.2,7.88l-2.91,7.15c-.12.31-.16.79-.45.85s-.48-.4-.67-.66c-.83-1.13-1.66-2.26-2.44-3.43a3,3,0,0,0-1.48-1.15q-8.37-3.32-16.74-6.67c-3.65-1.45-7.29-2.92-10.79-4.73a74.78,74.78,0,0,1-12.77-8,33.72,33.72,0,0,1-8-8.65,11,11,0,0,0-1.51-1.84,25.72,25.72,0,0,0-4.17-3.33,52.79,52.79,0,0,0-9.38-4.79,24,24,0,0,0-3.3-1.17c-3.71-.9-7.4-1.86-11.07-2.92a183.84,183.84,0,0,1-23.44-8.42,112.94,112.94,0,0,1-23.31-13.52c-.11-.09-.23-.19-.41-.08s-.14.33-.19.51a39.82,39.82,0,0,1-2.1,5.51,74,74,0,0,1-7.77,12.93,111.25,111.25,0,0,1-17.22,18.54A100.56,100.56,0,0,1,92,427.49a69.35,69.35,0,0,1-26.21,8.63,45.9,45.9,0,0,1-7,.31c-2.42-.12-4.84-.25-7.25-.56a58.85,58.85,0,0,1-7.58-1.42,37.33,37.33,0,0,1-10.32-4.29,25.14,25.14,0,0,1-11.7-16.22,29.17,29.17,0,0,1-.67-4.15,2.68,2.68,0,0,0-.41-1.72Zm257.81-3.79.05,0c.15,0,.19-.07.18-.2.45-.45.9-.91,1.37-1.35.24-.22.44-.18.64.12a16.07,16.07,0,0,1,2.26,4.9,9,9,0,0,1-.47,6.18,48.24,48.24,0,0,0-1.81,4.63,4.63,4.63,0,0,0-.63,2,3,3,0,0,0,.5-.2A49.51,49.51,0,0,0,290.93,409a20,20,0,0,0,3.92-5.66,13.84,13.84,0,0,0,1.15-4.23,4.52,4.52,0,0,0,.37-1.07c.36-1.47.77-2.93,1.09-4.4a1.48,1.48,0,0,1,1-1.13c3.31-1.49,6.57-3.08,9.8-4.73a298.26,298.26,0,0,0,37.11-22.33A192.93,192.93,0,0,0,368,346.86a91.39,91.39,0,0,0,10.68-12.07,75.54,75.54,0,0,0,10.2-19.05,52.45,52.45,0,0,0,3-14.75,42.5,42.5,0,0,0-.84-10.85,94.69,94.69,0,0,0-3.62-13.35,48.9,48.9,0,0,0-4.12-8.83,22.77,22.77,0,0,0-6.56-7.15c-.12-.08-.25-.17-.36-.26a.42.42,0,0,1-.15-.51c0-.11.05-.22.08-.33a34.49,34.49,0,0,0,1.49-7.79,56.54,56.54,0,0,0-.47-13.38,73.38,73.38,0,0,0-3-12.56,101.83,101.83,0,0,0-9.75-20.82,142.49,142.49,0,0,0-10.86-15.41,6.63,6.63,0,0,1-.87-1.16c.28-.14.47,0,.68.1a144.1,144.1,0,0,1,13.86,6.46,64.88,64.88,0,0,1,9.13,5.71,2.59,2.59,0,0,0,1.77.6c.3,0,.6,0,.89,0a2.21,2.21,0,0,0-.27-1.37,79.72,79.72,0,0,0-31.23-40.18,2.81,2.81,0,0,0-1-.54,11.29,11.29,0,0,0-1.77-1.39c-2.28-1.76-4.55-3.51-6.85-5.24a15.39,15.39,0,0,0-4.29-2.51,1.27,1.27,0,0,1-.78-.62.82.82,0,0,1,.49-.44,4.56,4.56,0,0,1,2.09-.4c.72.07,1.44.12,2.15.23a53.35,53.35,0,0,1,7.29,1.64,69,69,0,0,1,11.44,4.58,2,2,0,0,0,1.9.08c5.81-2.65,11.58-5.39,17.2-8.43a117.14,117.14,0,0,0,12.56-7.72,43.88,43.88,0,0,0,5.81-4.91c.14-.14.39-.27.24-.59-1.67.19-3.36.41-5.05.59-1.28.14-2.56.27-3.84.35-2.05.13-4.09.18-6.13.31a120.69,120.69,0,0,1-13.18-.14c-3-.15-6-.43-8.94-.8-2.37-.29-4.73-.61-7.08-1-3.46-.6-6.89-1.33-10.29-2.22a112,112,0,0,1-16-5.44c0-.38.3-.2.47-.28l.33.06a49.92,49.92,0,0,0,11.18,1.77,49.13,49.13,0,0,0,12-.92A51.59,51.59,0,0,0,363,120.15c.43-.25,1-.31,1.21-.9-.42-.22-.88-.09-1.32-.18s-.82-.12-1.23-.17l-4.4-.54-4.73-.59-4.5-.56-4.62-.58c-1.5-.18-3-.35-4.51-.54l-4.84-.6-4.4-.54-4.73-.6-4.5-.55-4.62-.58-4.51-.54-4.84-.6-4.28-.52a2.26,2.26,0,0,1-.45-.1c-.12,0-.31,0-.33-.19a.36.36,0,0,1,0-.11.3.3,0,0,1,.08-.08L336,77.33l.33-.32a.6.6,0,0,1,.08-.08l.07-.08a.47.47,0,0,0,.05-.1.64.64,0,0,0,0-.14,3.23,3.23,0,0,0-.44,0l-3.25.49-7.72,1.28c-2.87.48-5.75.93-8.61,1.45-3.87.7-7.73,1.44-11.58,2.19s-7.79,1.53-11.67,2.37c-5.94,1.29-11.86,2.67-17.73,4.27a160.77,160.77,0,0,0-15.75,5,4.63,4.63,0,0,0-1.84.83,6.42,6.42,0,0,0-.85,1.6l-.09.2c-.78,1.64-1.57,3.28-2.35,4.91-.18.38-.34.78-.79.91a2.59,2.59,0,0,0-1.05.41c-1.21.62-2.43,1.23-3.6,1.91-2.74,1.6-5.45,3.24-8.18,4.87a1.32,1.32,0,0,0-.21.25l-.6.33-.35,0,.23-.25L258.5,90.67c.39-.41.79-.82,1.14-1.26Q267,80,274.4,70.63c.13-.16.34-.31.25-.58a13.88,13.88,0,0,0-4.63-.24A46,46,0,0,0,262.74,71a97.6,97.6,0,0,0-13.34,4.36A196.57,196.57,0,0,0,228,85.59C219.88,90,212,94.86,204.19,99.91l-1.2.77a1.93,1.93,0,0,1-.51-.82c-2.54-5.5-5-11-7.33-16.62A69.7,69.7,0,0,1,192.5,76a7.64,7.64,0,0,1-.33-2.47c.12-2.61.22-5.22.34-7.84.11-2.31.23-4.62.33-6.93,0-.19.14-.46-.25-.59-.45.33-1,.66-1.41,1a34.5,34.5,0,0,0-5.24,5.36,72.14,72.14,0,0,0-7,10.49,138.53,138.53,0,0,0-8.45,18.46A245,245,0,0,0,162.58,119c-.08.28-.08.59-.34.81a2.39,2.39,0,0,1-.71-.87c-2.88-4.18-5.64-8.44-8.23-12.81A100.39,100.39,0,0,1,146,91.87a2.84,2.84,0,0,0-.54-.86l-3.4-4c-.1-.11-.17-.27-.39-.24a1.73,1.73,0,0,0-.08.27c-.18,1.51-.36,3-.53,4.52-.2,1.81-.4,3.61-.59,5.42s-.37,3.47-.54,5.2q-.3,2.9-.59,5.77c-.19,2-.36,3.93-.53,5.89-.2,2.19-.42,4.37-.59,6.57-.2,2.68-.36,5.37-.54,8.05-.27,4-.46,8-.37,12a3.38,3.38,0,0,1,0,.45.37.37,0,0,1-.43.4h-.8c-2.73,0-5.46,0-8.19,0-3,0-6-.14-9-.26-1.93-.08-3.86-.25-5.79-.39-2.22-.16-4.45-.34-6.68-.52-.83-.07-1.66-.18-2.48-.28l-5.08-.61c-.18,0-.37-.09-.54.06a1.39,1.39,0,0,0,.13.66c.36.91.69,1.84,1.06,2.75A100.55,100.55,0,0,0,107,158a46.42,46.42,0,0,0,5.45,7.4,18.78,18.78,0,0,0,6.69,5l.09,0c.11.09.12.21,0,.28-.27.19-.57.36-.86.53-4,2.32-8,4.71-12,7.22-3.26,2.07-6.48,4.2-9.54,6.56A28,28,0,0,0,93,188.47c-.11.13-.32.23-.21.47a1.24,1.24,0,0,0,.66.06c2.92,0,5.83-.2,8.74-.4,2.61-.18,5.21-.45,7.8-.78s5.24-.77,7.82-1.34a45.06,45.06,0,0,0,10.73-3.55c.15-.07.32-.2.49,0-.36.75-.72,1.5-1.07,2.26a137.87,137.87,0,0,0-6.8,18,150.68,150.68,0,0,0-3.84,15.65c-.49,2.61-.9,5.23-1.25,7.85s-.61,5.12-.8,7.69c-.16,2.15-.23,4.32-.32,6.47-.14,3.45-.06,6.9.13,10.35.16,3,.46,6,.78,9.06.3,2.71.62,5.42,1,8.12.64,4.3,1.43,8.58,2.44,12.82a97.62,97.62,0,0,0,4.34,14.09A42.16,42.16,0,0,0,129,305.41a.69.69,0,0,1,.07.23,2.79,2.79,0,0,1-.16.28A47.06,47.06,0,0,0,121.13,330a52.07,52.07,0,0,0,.45,10.21,39.37,39.37,0,0,0,2,8.15,44.7,44.7,0,0,0,8,13.52,66.91,66.91,0,0,0,12.22,11.19,106.34,106.34,0,0,0,18.17,10.43,183.55,183.55,0,0,0,31.9,10.9,43.22,43.22,0,0,1,6.3,1.83c.9.38,1.82.73,2.72,1.13a55.45,55.45,0,0,1,10.78,6,24.27,24.27,0,0,1,6.72,7,8.56,8.56,0,0,0,.7.89,5.79,5.79,0,0,0,1,1.34,38,38,0,0,0,6.32,5.49,81,81,0,0,0,13.95,7.7,2.16,2.16,0,0,0,1,.34.87.87,0,0,0-.09-.33c-.16-.25-.25-.56-.53-.71-1.09-1.73-2.18-3.45-3.25-5.19-1.78-2.9-3.53-5.82-5.09-8.85a21.89,21.89,0,0,1-1.28-2.89,2.87,2.87,0,0,1-.2-1,.43.43,0,0,1,.45-.4,5.64,5.64,0,0,1,1.51.47,27.87,27.87,0,0,1,3.1,1.65,149.78,149.78,0,0,1,18.6,13.35,31,31,0,0,1,3.91,3.78c.61.86,1.21,1.72,1.85,2.57s1.21,1.77,1.9,2.58a1.09,1.09,0,0,0,.39-.62c1-2.44,2-4.89,3-7.33q2.44-5.73,5.16-11.35a84,84,0,0,1,5.42-9.95.86.86,0,0,0,.25-.61l0,0C278.62,401.3,278.67,401.23,278.63,401.1ZM113.73,295.58c-1.65,4.59-3.33,9.09-5.09,13.56-2.39,6.06-4.87,12.07-7.76,17.92a39.6,39.6,0,0,1-2.83,5Q74.7,366.24,51.36,400.41A24.27,24.27,0,0,1,45,406.8a37.36,37.36,0,0,1-10.69,4.88,3.69,3.69,0,0,0-.93.34,1,1,0,0,0,.11.66A22.52,22.52,0,0,0,38,420.1a19.5,19.5,0,0,0,7.1,5.17,39.32,39.32,0,0,0,9.66,2.36,41.43,41.43,0,0,0,5.22.31,38.68,38.68,0,0,0,7.13-.48c.89-.17,1.79-.36,2.69-.45a43.41,43.41,0,0,0,6.78-1.31,70,70,0,0,0,18.48-7.94,82.7,82.7,0,0,0,22.54-20.25A106.09,106.09,0,0,0,130,377.05c.24-.51.46-1,.71-1.54a.53.53,0,0,0-.11-.71,3.22,3.22,0,0,1-.32-.32,73.7,73.7,0,0,1-7.15-8.24,64.28,64.28,0,0,1-8.9-15.78,41.48,41.48,0,0,1-2.9-13.6,31.84,31.84,0,0,1,.47-7.36c.37-1.85.75-3.71,1.16-5.56,1.14-5.25,2.16-10.52,3.45-15.75a3.79,3.79,0,0,0,.1-1.46c-.09-.67-.18-1.35-.3-2a84.86,84.86,0,0,0-2.14-8.59A.93.93,0,0,0,113.73,295.58Zm283.74,19.29-.36,1a155.19,155.19,0,0,1-5.88,14.4,73.71,73.71,0,0,1-5.93,10.59,28.65,28.65,0,0,1-3.53,4.3,12,12,0,0,1-3.69,2.61c-.53.22-.54.26-.46.87.15,1.16.29,2.33.46,3.49.57,3.74,1.21,7.48,2,11.18a143,143,0,0,0,4.54,16.76,61,61,0,0,0,10.65,19.54,70.58,70.58,0,0,0,18.07,15.77A50.25,50.25,0,0,0,438.91,423c1.51,0,3,0,4.54-.17a51.15,51.15,0,0,0,6.72-1.1,41.73,41.73,0,0,0,7.76-2.48,20.25,20.25,0,0,0,6.06-4,11.41,11.41,0,0,0,3.42-10.67,7.86,7.86,0,0,0-2.36-4.55,28.05,28.05,0,0,0-3-2.43,69.43,69.43,0,0,0-6.39-3.9c-3.88-2.13-7.78-4.23-11.65-6.38a102,102,0,0,1-9.72-6.09,39.32,39.32,0,0,1-9.22-9c-.79-1.11-1.63-2.19-2.4-3.31a200.71,200.71,0,0,1-16-27.49A125.33,125.33,0,0,1,400,325.06a45.91,45.91,0,0,1-2.22-9.61A.71.71,0,0,0,397.47,314.87Z" transform="translate(-2.5 -2.5)"/><path class="cls-3" d="M478.82,399.43a4.7,4.7,0,0,1-.21-2.29.15.15,0,0,0,.21,0Z" transform="translate(-2.5 -2.5)"/><path class="cls-3" d="M478.82,404.89a.16.16,0,0,0-.22,0,4.66,4.66,0,0,1,.22-2.28Z" transform="translate(-2.5 -2.5)"/><path class="cls-4" d="M346.64,159.37a2.81,2.81,0,0,1,1,.54,79.72,79.72,0,0,1,31.23,40.18,2.21,2.21,0,0,1,.27,1.37c-.29,0-.59,0-.89,0a2.59,2.59,0,0,1-1.77-.6,64.88,64.88,0,0,0-9.13-5.71,144.1,144.1,0,0,0-13.86-6.46c-.21-.09-.4-.24-.68-.1a6.63,6.63,0,0,0,.87,1.16,142.49,142.49,0,0,1,10.86,15.41A101.83,101.83,0,0,1,374.28,226a73.38,73.38,0,0,1,3,12.56,56.54,56.54,0,0,1,.47,13.38,34.49,34.49,0,0,1-1.49,7.79c0,.11,0,.22-.08.33a.42.42,0,0,0,.15.51c.11.09.24.18.36.26a22.77,22.77,0,0,1,6.56,7.15,48.9,48.9,0,0,1,4.12,8.83A94.69,94.69,0,0,1,391,290.14a42.5,42.5,0,0,1,.84,10.85,52.45,52.45,0,0,1-3,14.75,75.54,75.54,0,0,1-10.2,19.05A91.39,91.39,0,0,1,368,346.86a192.93,192.93,0,0,1-22.63,18.61,298.26,298.26,0,0,1-37.11,22.33c-3.23,1.65-6.49,3.24-9.8,4.73a1.48,1.48,0,0,0-1,1.13c-.32,1.47-.73,2.93-1.09,4.4a4.52,4.52,0,0,1-.37,1.07,2.89,2.89,0,0,0-1.09.77c-1,.86-2,1.72-3,2.6-2.15,1.9-4.29,3.83-6.32,5.85a13.1,13.1,0,0,0-2.91,4c-.4.9-.89,1.76-1.35,2.63a3.2,3.2,0,0,1-.3.45l-.18-.1a48.24,48.24,0,0,1,1.81-4.63,9,9,0,0,0,.47-6.18,16.07,16.07,0,0,0-2.26-4.9c-.2-.3-.4-.34-.64-.12-.47.44-.92.9-1.37,1.35-.14,0-.2.06-.18.2l-.05,0c-.14,0-.21,0-.16.19l0,0c-.27-.05-.41.17-.57.31a70.93,70.93,0,0,0-7.57,7.34,29,29,0,0,0-4,5.78c-1.8,3.46-3.53,6.94-5.22,10.46-.09.2-.18.41-.28.61s-.23.18-.38.21a31,31,0,0,0-3.91-3.78,149.78,149.78,0,0,0-18.6-13.35,27.87,27.87,0,0,0-3.1-1.65,5.64,5.64,0,0,0-1.51-.47.43.43,0,0,0-.45.4,2.87,2.87,0,0,0,.2,1,21.89,21.89,0,0,0,1.28,2.89c1.56,3,3.31,5.95,5.09,8.85,1.07,1.74,2.16,3.46,3.25,5.19-.08.11-.17.16-.28.06s-.48-.48-.71-.73c-1.49-1.66-3.13-3.18-4.77-4.68a28.31,28.31,0,0,0-6.31-4.39q-2.58-1.31-5.25-2.42c-1.43-.59-2.84-1.22-4.32-1.67a8.56,8.56,0,0,1-.7-.89,24.27,24.27,0,0,0-6.72-7,55.45,55.45,0,0,0-10.78-6c-.9-.4-1.82-.75-2.72-1.13a43.22,43.22,0,0,0-6.3-1.83,183.55,183.55,0,0,1-31.9-10.9,106.34,106.34,0,0,1-18.17-10.43,66.91,66.91,0,0,1-12.22-11.19,44.7,44.7,0,0,1-8-13.52,39.37,39.37,0,0,1-2-8.15,52.07,52.07,0,0,1-.45-10.21A47.06,47.06,0,0,1,129,305.92a2.79,2.79,0,0,0,.16-.28.69.69,0,0,0-.07-.23,42.16,42.16,0,0,1-5.37-10.09,97.62,97.62,0,0,1-4.34-14.09c-1-4.24-1.8-8.52-2.44-12.82-.41-2.7-.73-5.41-1-8.12-.32-3-.62-6-.78-9.06-.19-3.45-.27-6.9-.13-10.35.09-2.15.16-4.32.32-6.47q.28-3.85.8-7.69c.35-2.62.76-5.24,1.25-7.85a150.68,150.68,0,0,1,3.84-15.65,137.87,137.87,0,0,1,6.8-18c.35-.76.71-1.51,1.07-2.26-.17-.2-.34-.07-.49,0a45.06,45.06,0,0,1-10.73,3.55c-2.58.57-5.2,1-7.82,1.34s-5.19.6-7.8.78c-2.91.2-5.82.41-8.74.4a1.24,1.24,0,0,1-.66-.06c-.11-.24.1-.34.21-.47A28,28,0,0,1,96.91,185c3.06-2.36,6.28-4.49,9.54-6.56,3.93-2.51,7.92-4.9,12-7.22.29-.17.59-.34.86-.53.1-.07.09-.19,0-.28l-.09,0a18.78,18.78,0,0,1-6.69-5A46.42,46.42,0,0,1,107,158a100.55,100.55,0,0,1-7.46-15.16c-.37-.91-.7-1.84-1.06-2.75a1.39,1.39,0,0,1-.13-.66c.17-.15.36-.08.54-.06L104,140c.82.1,1.65.21,2.48.28,2.23.18,4.46.36,6.68.52,1.93.14,3.86.31,5.79.39,3,.12,6,.21,9,.26,2.73,0,5.46,0,8.19,0h.8a.37.37,0,0,0,.43-.4,3.38,3.38,0,0,0,0-.45c-.09-4,.1-8,.37-12,.18-2.68.34-5.37.54-8.05.17-2.2.39-4.38.59-6.57.17-2,.34-3.93.53-5.89s.39-3.84.59-5.77c.17-1.73.35-3.46.54-5.2s.39-3.61.59-5.42c.17-1.51.35-3,.53-4.52a1.73,1.73,0,0,1,.08-.27c.22,0,.29.13.39.24l3.4,4a2.84,2.84,0,0,1,.54.86,100.39,100.39,0,0,0,7.28,14.23c2.59,4.37,5.35,8.63,8.23,12.81a2.39,2.39,0,0,0,.71.87c.26-.22.26-.53.34-.81a245,245,0,0,1,7.93-25.45A138.53,138.53,0,0,1,179,75.06a72.14,72.14,0,0,1,7-10.49,34.5,34.5,0,0,1,5.24-5.36c.46-.38,1-.71,1.41-1,.39.13.26.4.25.59-.1,2.31-.22,4.62-.33,6.93-.12,2.62-.22,5.23-.34,7.84A7.64,7.64,0,0,0,192.5,76a69.7,69.7,0,0,0,2.65,7.24c2.3,5.6,4.79,11.12,7.33,16.62a1.93,1.93,0,0,0,.51.82l1.2-.77C212,94.86,219.88,90,228,85.59A196.57,196.57,0,0,1,249.4,75.36,97.6,97.6,0,0,1,262.74,71,46,46,0,0,1,270,69.81a13.88,13.88,0,0,1,4.63.24c.09.27-.12.42-.25.58Q267,80,259.64,89.41c-.35.44-.75.85-1.14,1.26l-18.43,18.89-.23.25a1.5,1.5,0,0,0-.25.19c-.05,0-.06.12-.08.19s.13.08.18.06c.21-.08.42-.15.5-.39l.6-.33c.17.09.17.21.05.35-.65.74-1.3,1.48-1.93,2.23a22.6,22.6,0,0,0-2.2,3c-.08.14-.25.3,0,.54.25-.15.51-.29.76-.45,2.09-1.29,4.17-2.6,6.28-3.86a51.94,51.94,0,0,1,7.21-3.85,1.17,1.17,0,0,0,.62-.62c.75-1.61,1.52-3.21,2.29-4.82.45-.13.61-.53.79-.91.78-1.63,1.57-3.27,2.35-4.91l.09-.2a6.42,6.42,0,0,1,.85-1.6,4.63,4.63,0,0,1,1.84-.83,160.77,160.77,0,0,1,15.75-5c5.87-1.6,11.79-3,17.73-4.27,3.88-.84,7.77-1.6,11.67-2.37s7.71-1.49,11.58-2.19c2.86-.52,5.74-1,8.61-1.45l7.72-1.28,3.25-.49a3.23,3.23,0,0,1,.44,0,.64.64,0,0,1,0,.14.47.47,0,0,1-.05.1l-.07.08a.6.6,0,0,0-.08.08l-.33.32-34.42,33.75a.3.3,0,0,0-.08.08.36.36,0,0,0,0,.11c0,.21.21.15.33.19a2.26,2.26,0,0,0,.45.1l4.28.52,4.84.6,4.51.54,4.62.58,4.5.55,4.73.6,4.4.54,4.84.6c1.5.19,3,.36,4.51.54l4.62.58,4.5.56,4.73.59,4.4.54c.41,0,.83.09,1.23.17s.9,0,1.32.18c-.19.59-.78.65-1.21.9a51.59,51.59,0,0,1-15.42,5.77,49.13,49.13,0,0,1-12,.92,49.92,49.92,0,0,1-11.18-1.77l-.33-.06a8.55,8.55,0,0,0-1.95-.69,4.23,4.23,0,0,0-1.48-.4c-.06,0-.07-.2-.19-.07l.21.05a9.45,9.45,0,0,0,2.94,1.39,112,112,0,0,0,16,5.44c3.4.89,6.83,1.62,10.29,2.22,2.35.4,4.71.72,7.08,1,3,.37,5.95.65,8.94.8a120.69,120.69,0,0,0,13.18.14c2-.13,4.08-.18,6.13-.31,1.28-.08,2.56-.21,3.84-.35,1.69-.18,3.38-.4,5.05-.59.15.32-.1.45-.24.59a43.88,43.88,0,0,1-5.81,4.91,117.14,117.14,0,0,1-12.56,7.72c-5.62,3-11.39,5.78-17.2,8.43a2,2,0,0,1-1.9-.08A69,69,0,0,0,345,150.64a53.35,53.35,0,0,0-7.29-1.64c-.71-.11-1.43-.16-2.15-.23a4.56,4.56,0,0,0-2.09.4.82.82,0,0,0-.49.44c-.37-.05-.75-.1-1.12-.13a5.69,5.69,0,0,0-2.69.17c-.31.11-.73.16-.71.6s.36.46.64.56a16.36,16.36,0,0,1,4.38,2.58c1.64,1.22,3.25,2.48,4.87,3.72,1.38,1.06,2.74,2.15,4.2,3.09.39.24.8.44,1.2.65a.59.59,0,0,0,.64,0ZM225.77,251.8v0c.23.37.65.07.93.28,0,.3-.24.45-.35.68-.29.55-1,.87-.93,1.6a7.11,7.11,0,0,0,1.78.11,1.25,1.25,0,0,0,1.22-.63c1.14-1.52,2.32-3,3.48-4.49l6.33-8.17c.17-.22.45-.42.35-.83H236c-.4,0-.6.26-.65.64l-.2.07-1.24,0a.34.34,0,0,0-.35.22q-3.86,5.15-7.73,10.28C225.64,251.68,225.64,251.68,225.77,251.8Zm-35-120.36c.32.26.18.63.16.94-.15,2-.12,3.94-.12,5.91a1.36,1.36,0,0,0,.09.68,3.81,3.81,0,0,0,.22-.53,28.62,28.62,0,0,1,2.74-7.43,67.08,67.08,0,0,1,4.62-7.68,153.38,153.38,0,0,1,12.85-16c1.9-2.11,3.87-4.16,5.85-6.18.2-.21.49-.36.54-.79-.42.18-.8.34-1.16.51l-2.87,1.36c-.14.07-.29.1-.37-.1l1.8-1.69a1.75,1.75,0,0,0-.87.2c-2.58,1.22-5.15,2.45-7.74,3.65-1.6.74-3.23,1.43-4.84,2.14l-3.3-5.65c-.11-.19-.17-.43-.43-.46-.38.14-.42.65-.85.71-.24-.23-.27-.62-.62-.82-.36.17-.51.53-.71.83a24.36,24.36,0,0,0-2.94,6.49,68.22,68.22,0,0,0-2.51,13.59c-.14,1.39-.21,2.79-.32,4.19-.21,2.9-.24,5.82-.23,8.74,0,.13,0,.31.21.36A15.58,15.58,0,0,1,190.79,131.44Zm-59.6,48.86c.74.08,1.48.13,2.22.23a.87.87,0,0,0,.93-.43c.38,0,.76,0,1.13,0,1.25.12,2.49.23,3.73.39a1.16,1.16,0,0,0,1.26-.52c.32-.5.7-1,1-1.48l10.75-14.79c.12-.17.35-.3.28-.59a3.26,3.26,0,0,0-1,.38l-4.63,2.15-2.38,1.08c-.15.07-.28.09-.39-.07l2.2-3,.25-.38a.2.2,0,0,0,0-.11s-.05,0-.08-.07c-.33-.06-.57.17-.83.29-3.15,1.44-6.31,2.9-9.45,4.37a4.79,4.79,0,0,1-2.17.49c-2.65,0-5.3,0-8,0h-.8c-.37,0-.47.11-.47.47,0,1,0,2,0,3.06,0,1.58.26,1.12-1.12,1.88q-10.86,6-21.74,12l-1,.55s-.07.13-.08.19,0,.13.14.12c.61,0,1.21,0,1.81-.09,1.25-.1,2.49-.23,3.73-.35a2.07,2.07,0,0,0,1.7.41,57.79,57.79,0,0,0,7.53-.93,53.39,53.39,0,0,0,14.11-4.76A3.93,3.93,0,0,1,131.19,180.3ZM318.29,211a25.14,25.14,0,0,0,.15-4.42,5.47,5.47,0,0,0-.31-1.56,2.82,2.82,0,0,0-3.24-2.05,34,34,0,0,0-4.13.73,68.73,68.73,0,0,0-10,3.3,67.17,67.17,0,0,0-14.21,7.71,85.21,85.21,0,0,0-9.31,8c-1.92,1.88-3.79,3.81-5.57,5.84a1.43,1.43,0,0,0-.36,1.24,3.74,3.74,0,0,1,.21,1.33c-.4.3-.22.71-.14,1,.25,1,.55,2,.84,2.95.11.37.28.42.57.16l3.29-3a119.65,119.65,0,0,1,11.46-9.12,42.61,42.61,0,0,1,7.16-4.15,78.26,78.26,0,0,1,22.21-5.76l.9-.11c.16,0,.31-.1.33-.27C318.23,212.23,318.55,211.62,318.29,211ZM207.63,245.19c.39-.33,1-.21,1.37-.6-.16-.16-.3-.34-.47-.48-.75-.63-1.5-1.27-2.29-1.86a50.41,50.41,0,0,0-12-6.37,74.56,74.56,0,0,0-18.69-4.38,63.92,63.92,0,0,0-7.82-.41,31.69,31.69,0,0,0-7.19.92,15.16,15.16,0,0,0-5,2.17,8.46,8.46,0,0,0-2.92,3.25,3.65,3.65,0,0,0-.55,2.06c-.26.16-.26.44-.33.69-.17.57-.15.64.3.95s1,.67,1.51,1a1.12,1.12,0,0,0,1,.14c1.76-.47,3.51-.94,5.28-1.33a71.82,71.82,0,0,1,7.83-1.3c1.17-.13,2.34-.17,3.51-.28a34.33,34.33,0,0,1,8.71.45,56.48,56.48,0,0,1,9.71,2.73,98.59,98.59,0,0,1,11.64,5.09,2.26,2.26,0,0,0,1.83.15c1.52-.47,3-.89,4.57-1.36.23-.07.54,0,.67-.31C208.31,245.68,207.84,245.54,207.63,245.19Zm44.92,24a2.33,2.33,0,0,1,.12-.55,2,2,0,0,0,0-1.86,6.25,6.25,0,0,1-.26-.87,3.74,3.74,0,0,1-.25-1.66,8.27,8.27,0,0,1,1.32-.22,5.91,5.91,0,0,0,3-1.11,3.86,3.86,0,0,0,1.71-3,.8.8,0,0,0-.21-.72c.06-.41.11-.83.18-1.24a3.42,3.42,0,0,0,0-1,4.85,4.85,0,0,0-1.51-3.09,11.17,11.17,0,0,0-3.21-2.09,21.54,21.54,0,0,0-6.66-1.68,12.88,12.88,0,0,0-7.66,1.45,38.18,38.18,0,0,0-4,2.53,52.56,52.56,0,0,0-7.58,6.47c-.52.55-1,1.15-1.46,1.73a2.61,2.61,0,0,0-.48,2.25c.05.3.12.59.17.89a.61.61,0,0,0-.21.5,4.72,4.72,0,0,0,.7,2.59,11.25,11.25,0,0,0,2.77,3.14,2.28,2.28,0,0,0,1.7.48c.68-.05,1.36-.1,2-.2a11.61,11.61,0,0,1,6.55.88c1.42.62,2.76,1.41,4.12,2.16.92.52,1.86,1,2.79,1.52a1.74,1.74,0,0,0,1.93-.1,12.38,12.38,0,0,0,1.08-.83,16.44,16.44,0,0,0,3.06-3.93c.16-.3.29-.62.42-.93A1.33,1.33,0,0,0,252.55,269.23ZM188.35,328a.47.47,0,0,0-.27.45,3.42,3.42,0,0,0,.6,2,7,7,0,0,0,3.31,2.84,30,30,0,0,0,14.3,2.43,10.79,10.79,0,0,0,4.32-1.3,45.11,45.11,0,0,0,4.47-2.92,185.07,185.07,0,0,0,15.23-12.43c1-.89,2-1.75,3.05-2.55A71.27,71.27,0,0,1,247,308.67a52.44,52.44,0,0,1,9.65-3.33,27.63,27.63,0,0,1,7.9-.72c1.7.1,3.4.23,5.1.38s3.46.34,5.19.55c2.11.25,4.21.54,6.31.82s4,.56,6.07.82,4.13.53,6.2.78c1.5.19,3,.37,4.51.53,2,.21,4,.42,6,.59,1.5.13,3,.16,4.53.29a46.44,46.44,0,0,0,9.86-.24,34.94,34.94,0,0,0,10.13-2.86,27.13,27.13,0,0,0,8.56-6.1c.72-.77.71-1.18,0-2a1.2,1.2,0,0,1,.2-.39,1.24,1.24,0,0,0,.07-1.75,4.5,4.5,0,0,0-.64-.8,11.58,11.58,0,0,0-4.34-2.81c-.21-.08-.44-.12-.65-.18a1.61,1.61,0,0,0-1.68.41c-.56.51-1.12,1-1.66,1.55a34.62,34.62,0,0,1-3.78,3.27,23.57,23.57,0,0,1-13,4.58,59.26,59.26,0,0,1-9.41-.51c-2.06-.23-4.12-.54-6.19-.82l-6.06-.86-3.83-.53-3.93-.56c-1.39-.19-2.77-.39-4.16-.56-1.58-.19-3.16-.37-4.74-.53-2-.21-3.91-.44-5.88-.59-2.34-.17-4.69-.3-7-.3a59,59,0,0,0-8.61.46,23.86,23.86,0,0,0-6.2,1.75,45.92,45.92,0,0,0-8.66,5.15,126.49,126.49,0,0,0-11.31,9.49c-3.43,3.17-6.82,6.36-10.25,9.53a52.32,52.32,0,0,1-5.08,4.19,14.24,14.24,0,0,1-2.43,1.46,4.72,4.72,0,0,1-2.53.49c-.64-.07-1.27-.18-1.9-.31a27,27,0,0,1-4.32-1.34,70,70,0,0,1-7.82-3.6,1.31,1.31,0,0,0-1.47,0c-.22.14-.47.25-.68.41a2.26,2.26,0,0,0-.9,2.5C188.21,327.32,188.28,327.65,188.35,328Zm24.37-94.92a.46.46,0,0,0,.34-.43c.19-.88.41-1.77.57-2.66a20.14,20.14,0,0,0-.12-8,12.17,12.17,0,0,0-2.8-5.64c-3.12-3.37-6.92-5.21-11.61-4.83a11.23,11.23,0,0,0-5.51,1.92,4.91,4.91,0,0,0-1.76,2,19.2,19.2,0,0,0-1,2.64,6,6,0,0,0-.27,2,2.39,2.39,0,0,0,2.87,2.43,5.3,5.3,0,0,0,2.22-.8c.54-.35,1.07-.73,1.6-1.08s.77-.5,1.16-.73a1.23,1.23,0,0,1,1.28,0,36,36,0,0,1,7.87,5.35,18.3,18.3,0,0,1,4.91,7.13C212.52,232.63,212.62,232.83,212.72,233.06Zm50.58-8.54c-.06-.62-.12-1.14-.15-1.67q-.11-1.53-.18-3.06a15.74,15.74,0,0,1,.13-3.29,1.35,1.35,0,0,1,.55-.94c.31-.22.61-.46.92-.67,2-1.41,4.11-2.72,6.21-4a14.23,14.23,0,0,1,2-1.05,2.08,2.08,0,0,0,1.13-1,19,19,0,0,0,1.87-5.57,2.58,2.58,0,0,0-.08-1.35c-.13-.35-.35-.61-.74-.58a19.39,19.39,0,0,1-3.73-.34,9.52,9.52,0,0,0-4.67.62,14.32,14.32,0,0,0-3.87,2.35,15,15,0,0,0-4,4.87A7.43,7.43,0,0,0,258,213a18.37,18.37,0,0,0,1.82,6.17,44.23,44.23,0,0,0,3.22,5.21C263.05,224.43,263.14,224.45,263.3,224.52ZM198,221.61l.78.89c1.38,1.57,2.77,3.12,4.14,4.69a22.74,22.74,0,0,1,3.15,4.44,18.21,18.21,0,0,0,2.21,3.29,6,6,0,0,0,1.34,1.23,3,3,0,0,0,2.82.18c.36-.15.4-.23.23-.6a45.91,45.91,0,0,0-4.17-7.67,12.74,12.74,0,0,0-4-3.76,30.66,30.66,0,0,0-5.55-2.56A1.12,1.12,0,0,0,198,221.61Zm76.57-10.43c-.28-.14-.47.06-.66.14a35.66,35.66,0,0,0-4.15,2.07,18.33,18.33,0,0,0-2.42,1.68,7.22,7.22,0,0,0-2.52,6.81,21.64,21.64,0,0,0,.9,3.63c0,.17,0,.45.31.53a2.46,2.46,0,0,0,.5-.89c1.24-2.59,2.52-5.16,3.9-7.67a43.44,43.44,0,0,1,3-4.83C273.77,212.15,274.18,211.67,274.57,211.18Z" transform="translate(-2.5 -2.5)"/><path class="cls-5" d="M113.73,295.58a.93.93,0,0,1,.35.54,84.86,84.86,0,0,1,2.14,8.59c.12.67.21,1.35.3,2a3.79,3.79,0,0,1-.1,1.46c-1.29,5.23-2.31,10.5-3.45,15.75-.41,1.85-.79,3.71-1.16,5.56a31.84,31.84,0,0,0-.47,7.36,41.48,41.48,0,0,0,2.9,13.6,64.28,64.28,0,0,0,8.9,15.78,73.7,73.7,0,0,0,7.15,8.24,3.22,3.22,0,0,0,.32.32.53.53,0,0,1,.11.71c-.25.51-.47,1-.71,1.54a106.09,106.09,0,0,1-12.4,20.46,82.7,82.7,0,0,1-22.54,20.25,70,70,0,0,1-18.48,7.94A43.41,43.41,0,0,1,69.81,427c-.9.09-1.8.28-2.69.45a38.68,38.68,0,0,1-7.13.48,41.43,41.43,0,0,1-5.22-.31,39.32,39.32,0,0,1-9.66-2.36A19.5,19.5,0,0,1,38,420.1a22.52,22.52,0,0,1-4.55-7.42,1,1,0,0,1-.11-.66,3.69,3.69,0,0,1,.93-.34A37.36,37.36,0,0,0,45,406.8a24.27,24.27,0,0,0,6.39-6.39q23.33-34.17,46.69-68.31a39.6,39.6,0,0,0,2.83-5c2.89-5.85,5.37-11.86,7.76-17.92C110.4,304.67,112.08,300.17,113.73,295.58Z" transform="translate(-2.5 -2.5)"/><path class="cls-5" d="M397.47,314.87a.71.71,0,0,1,.29.58,45.91,45.91,0,0,0,2.22,9.61,125.33,125.33,0,0,0,6.72,16.37,200.71,200.71,0,0,0,16,27.49c.77,1.12,1.61,2.2,2.4,3.31a39.32,39.32,0,0,0,9.22,9,102,102,0,0,0,9.72,6.09c3.87,2.15,7.77,4.25,11.65,6.38a69.43,69.43,0,0,1,6.39,3.9,28.05,28.05,0,0,1,3,2.43,7.86,7.86,0,0,1,2.36,4.55A11.41,11.41,0,0,1,464,415.28a20.25,20.25,0,0,1-6.06,4,41.73,41.73,0,0,1-7.76,2.48,51.15,51.15,0,0,1-6.72,1.1c-1.5.13-3,.19-4.54.17a50.25,50.25,0,0,1-25.58-7.57,70.58,70.58,0,0,1-18.07-15.77,61,61,0,0,1-10.65-19.54,143,143,0,0,1-4.54-16.76c-.78-3.7-1.42-7.44-2-11.18-.17-1.16-.31-2.33-.46-3.49-.08-.61-.07-.65.46-.87a12,12,0,0,0,3.69-2.61,28.65,28.65,0,0,0,3.53-4.3,73.71,73.71,0,0,0,5.93-10.59,155.19,155.19,0,0,0,5.88-14.4Z" transform="translate(-2.5 -2.5)"/><path class="cls-3" d="M260.42,426c.15,0,.3-.05.38-.21s.19-.41.28-.61c1.69-3.52,3.42-7,5.22-10.46a29,29,0,0,1,4-5.78,70.93,70.93,0,0,1,7.57-7.34c.16-.14.3-.36.57-.31a.86.86,0,0,1-.25.61,84,84,0,0,0-5.42,9.95q-2.72,5.61-5.16,11.35c-1,2.44-2,4.89-3,7.33a1.09,1.09,0,0,1-.39.62c-.69-.81-1.26-1.73-1.9-2.58S261,426.9,260.42,426Z" transform="translate(-2.5 -2.5)"/><path class="cls-3" d="M280.85,415.34l.18.1a3.2,3.2,0,0,0,.3-.45c.46-.87.95-1.73,1.35-2.63a13.1,13.1,0,0,1,2.91-4c2-2,4.17-4,6.32-5.85,1-.88,2-1.74,3-2.6a2.89,2.89,0,0,1,1.09-.77,13.84,13.84,0,0,1-1.15,4.23,20,20,0,0,1-3.92,5.66,49.51,49.51,0,0,1-10.21,8.08,3,3,0,0,1-.5.2A4.63,4.63,0,0,1,280.85,415.34Z" transform="translate(-2.5 -2.5)"/><path class="cls-3" d="M221,411.29c1.48.45,2.89,1.08,4.32,1.67q2.67,1.11,5.25,2.42a28.31,28.31,0,0,1,6.31,4.39c1.64,1.5,3.28,3,4.77,4.68.23.25.47.49.71.73s.2.05.28-.06c.28.15.37.46.53.71a.87.87,0,0,1,.09.33,2.16,2.16,0,0,1-1-.34,81,81,0,0,1-13.95-7.7,38,38,0,0,1-6.32-5.49A5.79,5.79,0,0,1,221,411.29Z" transform="translate(-2.5 -2.5)"/><path class="cls-3" d="M346.64,159.37l-2.28,1.47a.59.59,0,0,1-.64,0c-.4-.21-.81-.41-1.2-.65-1.46-.94-2.82-2-4.2-3.09-1.62-1.24-3.23-2.5-4.87-3.72a16.36,16.36,0,0,0-4.38-2.58c-.28-.1-.63-.21-.64-.56s.4-.49.71-.6a5.69,5.69,0,0,1,2.69-.17c.37,0,.75.08,1.12.13a1.27,1.27,0,0,0,.78.62,15.39,15.39,0,0,1,4.29,2.51c2.3,1.73,4.57,3.48,6.85,5.24A11.29,11.29,0,0,1,346.64,159.37Z" transform="translate(-2.5 -2.5)"/><path class="cls-3" d="M253.83,102.09c-.77,1.61-1.54,3.21-2.29,4.82a1.17,1.17,0,0,1-.62.62,51.94,51.94,0,0,0-7.21,3.85c-2.11,1.26-4.19,2.57-6.28,3.86-.25.16-.51.3-.76.45-.21-.24,0-.4,0-.54a22.6,22.6,0,0,1,2.2-3c.63-.75,1.28-1.49,1.93-2.23.12-.14.12-.26-.05-.35a1.32,1.32,0,0,1,.21-.25c2.73-1.63,5.44-3.27,8.18-4.87,1.17-.68,2.39-1.29,3.6-1.91A2.59,2.59,0,0,1,253.83,102.09Z" transform="translate(-2.5 -2.5)"/><path class="cls-3" d="M323.65,125.29a9.45,9.45,0,0,1-2.94-1.39l0,0a4.23,4.23,0,0,1,1.48.4,8.55,8.55,0,0,1,1.95.69C324,125.09,323.63,124.91,323.65,125.29Z" transform="translate(-2.5 -2.5)"/><path class="cls-3" d="M240.19,109.86c-.08.24-.29.31-.5.39-.05,0-.12,0-.18-.06s0-.15.08-.19a1.5,1.5,0,0,1,.25-.19Z" transform="translate(-2.5 -2.5)"/><path class="cls-3" d="M278.68,401.06c0-.14,0-.2.18-.2S278.83,401.07,278.68,401.06Z" transform="translate(-2.5 -2.5)"/><path class="cls-3" d="M278.47,401.29c-.05-.15,0-.2.16-.19S278.62,401.3,278.47,401.29Z" transform="translate(-2.5 -2.5)"/><path class="cls-6" d="M188.35,328c-.07-.33-.14-.66-.22-1a2.26,2.26,0,0,1,.9-2.5c.21-.16.46-.27.68-.41a1.31,1.31,0,0,1,1.47,0,70,70,0,0,0,7.82,3.6,27,27,0,0,0,4.32,1.34c.63.13,1.26.24,1.9.31a4.72,4.72,0,0,0,2.53-.49,14.24,14.24,0,0,0,2.43-1.46,52.32,52.32,0,0,0,5.08-4.19c3.43-3.17,6.82-6.36,10.25-9.53a126.49,126.49,0,0,1,11.31-9.49,45.92,45.92,0,0,1,8.66-5.15,23.86,23.86,0,0,1,6.2-1.75,59,59,0,0,1,8.61-.46c2.35,0,4.7.13,7,.3,2,.15,3.92.38,5.88.59,1.58.16,3.16.34,4.74.53,1.39.17,2.77.37,4.16.56l3.93.56,3.83.53,6.06.86c2.07.28,4.13.59,6.19.82a59.26,59.26,0,0,0,9.41.51,23.57,23.57,0,0,0,13-4.58,34.62,34.62,0,0,0,3.78-3.27c.54-.53,1.1-1,1.66-1.55a1.61,1.61,0,0,1,1.68-.41c.21.06.44.1.65.18a11.58,11.58,0,0,1,4.34,2.81,4.5,4.5,0,0,1,.64.8,1.24,1.24,0,0,1-.07,1.75,1.2,1.2,0,0,0-.2.39c-.36,0-.51.31-.71.51a27.38,27.38,0,0,1-6.43,4.63,36.76,36.76,0,0,1-16,3.93,39.8,39.8,0,0,1-4.88-.11c-1.85-.16-3.71-.19-5.55-.34-2.23-.19-4.45-.44-6.67-.67-.79-.08-1.58-.18-2.36-.28l-4.73-.61-4.27-.57-4.05-.55c-1.5-.2-3-.41-4.5-.59s-3.08-.38-4.62-.55c-1.05-.12-2.12-.15-3.16-.3-1.51-.22-3-.23-4.53-.33A29.32,29.32,0,0,0,254,303.75a69.48,69.48,0,0,0-13.61,5.94,60.63,60.63,0,0,0-7.78,5.11c-1.25,1-2.39,2.11-3.58,3.15-3.37,2.95-6.78,5.83-10.33,8.56-2.37,1.83-4.79,3.58-7.31,5.2a13.47,13.47,0,0,1-7.71,1.88,26.7,26.7,0,0,1-5.41-.61,31.88,31.88,0,0,1-6.38-2,7.22,7.22,0,0,1-3.11-2.57C188.7,328.24,188.64,328,188.35,328Z" transform="translate(-2.5 -2.5)"/><path class="cls-2" d="M252.18,264.29a3.74,3.74,0,0,0,.25,1.66,6.25,6.25,0,0,0,.26.87,2,2,0,0,1,0,1.86,2.33,2.33,0,0,0-.12.55c-.27,0-.32.3-.44.48-.53.74-1,1.51-1.59,2.22a9.5,9.5,0,0,1-2,2,2.16,2.16,0,0,1-2.45.16c-1-.53-1.92-1.06-2.87-1.6a30.27,30.27,0,0,0-4.78-2.35,8.54,8.54,0,0,0-2.53-.58,18.37,18.37,0,0,0-3.85.16,15.56,15.56,0,0,1-1.81.08,1.6,1.6,0,0,1-1-.39,10.51,10.51,0,0,1-3-3.39c-.1-.19-.14-.44-.37-.55-.05-.3-.12-.59-.17-.89a2.61,2.61,0,0,1,.48-2.25c.48-.58.94-1.18,1.46-1.73a52.56,52.56,0,0,1,7.58-6.47,38.18,38.18,0,0,1,4-2.53,12.88,12.88,0,0,1,7.66-1.45,21.54,21.54,0,0,1,6.66,1.68,11.17,11.17,0,0,1,3.21,2.09,4.85,4.85,0,0,1,1.51,3.09,3.42,3.42,0,0,1,0,1c-.07.41-.12.83-.18,1.24a.41.41,0,0,0-.36.23,5.27,5.27,0,0,1-3,2.05,5,5,0,0,1-1.66.29.85.85,0,0,0-.94.66A2.32,2.32,0,0,0,252.18,264.29Z" transform="translate(-2.5 -2.5)"/><path class="cls-6" d="M152.14,239.49a3.65,3.65,0,0,1,.55-2.06,8.46,8.46,0,0,1,2.92-3.25,15.16,15.16,0,0,1,5-2.17,31.69,31.69,0,0,1,7.19-.92,63.92,63.92,0,0,1,7.82.41,74.56,74.56,0,0,1,18.69,4.38,50.41,50.41,0,0,1,12,6.37c.79.59,1.54,1.23,2.29,1.86.17.14.31.32.47.48-.41.39-1,.27-1.37.6a1.54,1.54,0,0,0-.67.1c-1.19.36-2.4.67-3.58,1.06a1.67,1.67,0,0,1-1.4-.12q-3.61-1.89-7.4-3.46A61.92,61.92,0,0,0,178.42,238a28.6,28.6,0,0,0-4.53-.23,43.35,43.35,0,0,0-5.21.31c-1.41.22-2.85.32-4.27.56a73.59,73.59,0,0,0-9.16,2.09,1.48,1.48,0,0,1-1.38-.22A6,6,0,0,0,152.14,239.49Z" transform="translate(-2.5 -2.5)"/><path class="cls-3" d="M188.35,328c.29,0,.35.26.47.44a7.22,7.22,0,0,0,3.11,2.57,31.88,31.88,0,0,0,6.38,2,26.7,26.7,0,0,0,5.41.61,13.47,13.47,0,0,0,7.71-1.88c2.52-1.62,4.94-3.37,7.31-5.2,3.55-2.73,7-5.61,10.33-8.56,1.19-1,2.33-2.16,3.58-3.15a60.63,60.63,0,0,1,7.78-5.11A69.48,69.48,0,0,1,254,303.75a29.32,29.32,0,0,1,10.52-1.41c1.51.1,3,.11,4.53.33,1,.15,2.11.18,3.16.3,1.54.17,3.08.35,4.62.55s3,.39,4.5.59l4.05.55,4.27.57,4.73.61c.78.1,1.57.2,2.36.28,2.22.23,4.44.48,6.67.67,1.84.15,3.7.18,5.55.34a39.8,39.8,0,0,0,4.88.11,36.76,36.76,0,0,0,16-3.93,27.38,27.38,0,0,0,6.43-4.63c.2-.2.35-.51.71-.51.75.83.76,1.24,0,2a27.13,27.13,0,0,1-8.56,6.1,34.94,34.94,0,0,1-10.13,2.86,46.44,46.44,0,0,1-9.86.24c-1.51-.13-3-.16-4.53-.29-2-.17-4-.38-6-.59-1.5-.16-3-.34-4.51-.53-2.07-.25-4.13-.51-6.2-.78s-4.05-.55-6.07-.82-4.2-.57-6.31-.82c-1.73-.21-3.46-.39-5.19-.55s-3.4-.28-5.1-.38a27.63,27.63,0,0,0-7.9.72,52.44,52.44,0,0,0-9.65,3.33,71.27,71.27,0,0,0-13.65,7.87c-1.07.8-2.07,1.66-3.05,2.55a185.07,185.07,0,0,1-15.23,12.43,45.11,45.11,0,0,1-4.47,2.92,10.79,10.79,0,0,1-4.32,1.3,30,30,0,0,1-14.3-2.43,7,7,0,0,1-3.31-2.84,3.42,3.42,0,0,1-.6-2A.47.47,0,0,1,188.35,328Z" transform="translate(-2.5 -2.5)"/><path class="cls-6" d="M271.53,231.07a3.74,3.74,0,0,0-.21-1.33,1.43,1.43,0,0,1,.36-1.24c1.78-2,3.65-4,5.57-5.84a85.21,85.21,0,0,1,9.31-8A67.17,67.17,0,0,1,300.77,207a68.73,68.73,0,0,1,10-3.3,34,34,0,0,1,4.13-.73,2.82,2.82,0,0,1,3.24,2.05,5.47,5.47,0,0,1,.31,1.56,25.14,25.14,0,0,1-.15,4.42,40.87,40.87,0,0,0-5.41.59,89.28,89.28,0,0,0-13.27,3.37,46,46,0,0,0-11.83,5.91c-3,2.1-5.91,4.35-8.72,6.71q-3.13,2.63-6.12,5.42a2.39,2.39,0,0,1-.35.28.19.19,0,0,1-.28-.08c-.12-.32-.2-.65-.33-1S271.85,231.38,271.53,231.07Z" transform="translate(-2.5 -2.5)"/><path class="cls-6" d="M134.34,180.1a.87.87,0,0,1-.93.43c-.74-.1-1.48-.15-2.22-.23a1.17,1.17,0,0,0-.31-.12c-1.43-.11-2.87-.19-4.3-.34a2.81,2.81,0,0,0-1.73.35,48.15,48.15,0,0,1-10.2,4.1,38.16,38.16,0,0,1-7.55,1.53,2.21,2.21,0,0,0-.53.18c-1.24.12-2.48.25-3.73.35-.6.06-1.2.06-1.81.09-.1,0-.16,0-.14-.12s0-.16.08-.19l1-.55q10.88-6,21.74-12c1.38-.76,1.09-.3,1.12-1.88,0-1,0-2,0-3.06,0-.36.1-.46.47-.47h.8c2.65,0,5.3,0,8,0a4.79,4.79,0,0,0,2.17-.49c3.14-1.47,6.3-2.93,9.45-4.37.26-.12.5-.35.83-.29,0,0,.07.05.08.07a.2.2,0,0,1,0,.11l-.25.38-2.2,3s-.08,0-.1,0q-1.71,2.4-3.43,4.78Q137.47,175.8,134.34,180.1Z" transform="translate(-2.5 -2.5)"/><path class="cls-6" d="M201.69,106.4c1.61-.71,3.24-1.4,4.84-2.14,2.59-1.2,5.16-2.43,7.74-3.65a1.75,1.75,0,0,1,.87-.2l-1.8,1.69c-.65.62-1.32,1.24-2,1.87-2.73,2.67-5.36,5.45-7.9,8.3-2.24,2.52-4.37,5.12-6.35,7.85A49.11,49.11,0,0,0,191,130.7c-.1.24-.33.44-.23.74a15.58,15.58,0,0,0-.8,2.94c-.25,0-.21-.23-.21-.36,0-2.92,0-5.84.23-8.74.11-1.4.18-2.8.32-4.19a68.22,68.22,0,0,1,2.51-13.59,24.36,24.36,0,0,1,2.94-6.49c.2-.3.35-.66.71-.83.35.2.38.59.62.82l2.91,5.11c.5.86.51.86,1.39.48A2.75,2.75,0,0,0,201.69,106.4Z" transform="translate(-2.5 -2.5)"/><path class="cls-3" d="M212.72,233.06c-.1-.23-.2-.43-.27-.64a18.3,18.3,0,0,0-4.91-7.13,36,36,0,0,0-7.87-5.35,1.23,1.23,0,0,0-1.28,0c-.39.23-.78.48-1.16.73s-1.06.73-1.6,1.08a5.3,5.3,0,0,1-2.22.8,2.39,2.39,0,0,1-2.87-2.43,6,6,0,0,1,.27-2,19.2,19.2,0,0,1,1-2.64,4.91,4.91,0,0,1,1.76-2,11.23,11.23,0,0,1,5.51-1.92c4.69-.38,8.49,1.46,11.61,4.83a12.17,12.17,0,0,1,2.8,5.64,20.14,20.14,0,0,1,.12,8c-.16.89-.38,1.78-.57,2.66A.46.46,0,0,1,212.72,233.06Z" transform="translate(-2.5 -2.5)"/><path class="cls-3" d="M263.3,224.52c-.16-.07-.25-.09-.29-.14a44.23,44.23,0,0,1-3.22-5.21A18.37,18.37,0,0,1,258,213a7.43,7.43,0,0,1,.72-4.2,15,15,0,0,1,4-4.87,14.32,14.32,0,0,1,3.87-2.35,9.52,9.52,0,0,1,4.67-.62,19.39,19.39,0,0,0,3.73.34c.39,0,.61.23.74.58a2.58,2.58,0,0,1,.08,1.35,19,19,0,0,1-1.87,5.57,2.08,2.08,0,0,1-1.13,1,14.23,14.23,0,0,0-2,1.05c-2.1,1.27-4.19,2.58-6.21,4-.31.21-.61.45-.92.67a1.35,1.35,0,0,0-.55.94,15.74,15.74,0,0,0-.13,3.29q.07,1.53.18,3.06C263.18,223.38,263.24,223.9,263.3,224.52Z" transform="translate(-2.5 -2.5)"/><path class="cls-3" d="M190.79,131.44c-.1-.3.13-.5.23-.74a49.11,49.11,0,0,1,6.11-10.58c2-2.73,4.11-5.33,6.35-7.85,2.54-2.85,5.17-5.63,7.9-8.3.64-.63,1.31-1.25,2-1.87.08.2.23.17.37.1l2.87-1.36c.36-.17.74-.33,1.16-.51-.05.43-.34.58-.54.79-2,2-3.95,4.07-5.85,6.18a153.38,153.38,0,0,0-12.85,16,67.08,67.08,0,0,0-4.62,7.68,28.62,28.62,0,0,0-2.74,7.43,3.81,3.81,0,0,1-.22.53,1.36,1.36,0,0,1-.09-.68c0-2,0-3.94.12-5.91C191,132.07,191.11,131.7,190.79,131.44Z" transform="translate(-2.5 -2.5)"/><path class="cls-3" d="M271.53,231.07c.32.31.3.76.45,1.13s.21.65.33,1a.19.19,0,0,0,.28.08,2.39,2.39,0,0,0,.35-.28q3-2.79,6.12-5.42c2.81-2.36,5.71-4.61,8.72-6.71a46,46,0,0,1,11.83-5.91,89.28,89.28,0,0,1,13.27-3.37,40.87,40.87,0,0,1,5.41-.59c.26.65-.06,1.26-.14,1.88,0,.17-.17.24-.33.27l-.9.11A78.26,78.26,0,0,0,294.71,219a42.61,42.61,0,0,0-7.16,4.15,119.65,119.65,0,0,0-11.46,9.12l-3.29,3c-.29.26-.46.21-.57-.16-.29-1-.59-2-.84-2.95C271.31,231.78,271.13,231.37,271.53,231.07Z" transform="translate(-2.5 -2.5)"/><path class="cls-3" d="M134.34,180.1q3.12-4.31,6.23-8.62,1.73-2.39,3.43-4.78s.07,0,.1,0c.11.16.24.14.39.07l2.38-1.08,4.63-2.15a3.26,3.26,0,0,1,1-.38c.07.29-.16.42-.28.59L141.51,178.5c-.35.49-.73,1-1,1.48a1.16,1.16,0,0,1-1.26.52c-1.24-.16-2.48-.27-3.73-.39C135.1,180.08,134.72,180.1,134.34,180.1Z" transform="translate(-2.5 -2.5)"/><path class="cls-3" d="M152.14,239.49a6,6,0,0,1,1.73,1,1.48,1.48,0,0,0,1.38.22,73.59,73.59,0,0,1,9.16-2.09c1.42-.24,2.86-.34,4.27-.56a43.35,43.35,0,0,1,5.21-.31,28.6,28.6,0,0,1,4.53.23,61.92,61.92,0,0,1,16.16,4.75q3.78,1.57,7.4,3.46a1.67,1.67,0,0,0,1.4.12c1.18-.39,2.39-.7,3.58-1.06a1.54,1.54,0,0,1,.67-.1c.21.35.68.49.79.94-.13.28-.44.24-.67.31-1.52.47-3.05.89-4.57,1.36a2.26,2.26,0,0,1-1.83-.15,98.59,98.59,0,0,0-11.64-5.09,56.48,56.48,0,0,0-9.71-2.73,34.33,34.33,0,0,0-8.71-.45c-1.17.11-2.34.15-3.51.28A71.82,71.82,0,0,0,160,241c-1.77.39-3.52.86-5.28,1.33a1.12,1.12,0,0,1-1-.14c-.5-.35-1-.67-1.51-1s-.47-.38-.3-.95C151.88,239.93,151.88,239.65,152.14,239.49Z" transform="translate(-2.5 -2.5)"/><path class="cls-3" d="M225.81,265.43c.23.11.27.36.37.55a10.51,10.51,0,0,0,3,3.39,1.6,1.6,0,0,0,1,.39,15.56,15.56,0,0,0,1.81-.08,18.37,18.37,0,0,1,3.85-.16,8.54,8.54,0,0,1,2.53.58,30.27,30.27,0,0,1,4.78,2.35c1,.54,1.91,1.07,2.87,1.6a2.16,2.16,0,0,0,2.45-.16,9.5,9.5,0,0,0,2-2c.56-.71,1.06-1.48,1.59-2.22.12-.18.17-.43.44-.48a1.33,1.33,0,0,1,.21,1.48c-.13.31-.26.63-.42.93a16.44,16.44,0,0,1-3.06,3.93,12.38,12.38,0,0,1-1.08.83,1.74,1.74,0,0,1-1.93.1c-.93-.5-1.87-1-2.79-1.52-1.36-.75-2.7-1.54-4.12-2.16a11.61,11.61,0,0,0-6.55-.88c-.68.1-1.36.15-2,.2a2.28,2.28,0,0,1-1.7-.48,11.25,11.25,0,0,1-2.77-3.14,4.72,4.72,0,0,1-.7-2.59A.61.61,0,0,1,225.81,265.43Z" transform="translate(-2.5 -2.5)"/><path class="cls-6" d="M198,221.61a1.12,1.12,0,0,1,.91.13,30.66,30.66,0,0,1,5.55,2.56,12.74,12.74,0,0,1,4,3.76,45.91,45.91,0,0,1,4.17,7.67c.17.37.13.45-.23.6a3,3,0,0,1-2.82-.18,6,6,0,0,1-1.34-1.23,18.21,18.21,0,0,1-2.21-3.29,22.74,22.74,0,0,0-3.15-4.44c-1.37-1.57-2.76-3.12-4.14-4.69Z" transform="translate(-2.5 -2.5)"/><path class="cls-6" d="M274.57,211.18c-.39.49-.8,1-1.17,1.47a43.44,43.44,0,0,0-3,4.83c-1.38,2.51-2.66,5.08-3.9,7.67a2.46,2.46,0,0,1-.5.89c-.28-.08-.26-.36-.31-.53a21.64,21.64,0,0,1-.9-3.63,7.22,7.22,0,0,1,2.52-6.81,18.33,18.33,0,0,1,2.42-1.68,35.66,35.66,0,0,1,4.15-2.07C274.1,211.24,274.29,211,274.57,211.18Z" transform="translate(-2.5 -2.5)"/><path class="cls-3" d="M106.57,186a2.21,2.21,0,0,1,.53-.18,38.16,38.16,0,0,0,7.55-1.53,48.15,48.15,0,0,0,10.2-4.1,2.81,2.81,0,0,1,1.73-.35c1.43.15,2.87.23,4.3.34a1.17,1.17,0,0,1,.31.12,3.93,3.93,0,0,0-1.28.42,53.39,53.39,0,0,1-14.11,4.76,57.79,57.79,0,0,1-7.53.93A2.07,2.07,0,0,1,106.57,186Z" transform="translate(-2.5 -2.5)"/><path class="cls-3" d="M235.34,241c0-.38.25-.64.65-.64h2.59c.1.41-.18.61-.35.83l-6.33,8.17c-1.16,1.49-2.34,3-3.48,4.49a1.25,1.25,0,0,1-1.22.63,7.11,7.11,0,0,1-1.78-.11c0-.73.64-1,.93-1.6.11-.23.37-.38.35-.68-.28-.21-.7.09-.93-.28a4.24,4.24,0,0,1,1.13,0,1.11,1.11,0,0,0,1.33-.52c2.44-3.18,4.9-6.33,7.35-9.49a2.09,2.09,0,0,0,.3-.47c.08-.19,0-.25-.22-.28A1.68,1.68,0,0,1,235.34,241Z" transform="translate(-2.5 -2.5)"/><path class="cls-6" d="M235.34,241a1.68,1.68,0,0,0,.32.09c.17,0,.3.09.22.28a2.09,2.09,0,0,1-.3.47c-2.45,3.16-4.91,6.31-7.35,9.49a1.11,1.11,0,0,1-1.33.52,4.24,4.24,0,0,0-1.13,0v0l0-.23q3.87-5.15,7.73-10.28l1,0a.85.85,0,0,0,.61-.17Z" transform="translate(-2.5 -2.5)"/><path class="cls-3" d="M252.18,264.29a2.32,2.32,0,0,1-.13-1.84.85.85,0,0,1,.94-.66,5,5,0,0,0,1.66-.29,5.27,5.27,0,0,0,3-2.05.41.41,0,0,1,.36-.23.8.8,0,0,1,.21.72,3.86,3.86,0,0,1-1.71,3,5.91,5.91,0,0,1-3,1.11A8.27,8.27,0,0,0,252.18,264.29Z" transform="translate(-2.5 -2.5)"/><path class="cls-3" d="M201.69,106.4a2.75,2.75,0,0,1-.28.19c-.88.38-.89.38-1.39-.48L197.11,101c.43-.06.47-.57.85-.71.26,0,.32.27.43.46Z" transform="translate(-2.5 -2.5)"/><path class="cls-3" d="M235.14,241.09a.85.85,0,0,1-.61.17l-1,0a.34.34,0,0,1,.35-.22Z" transform="translate(-2.5 -2.5)"/><path class="cls-3" d="M320.71,123.9l-.21-.05c.12-.13.13.05.19.07Z" transform="translate(-2.5 -2.5)"/><path class="cls-3" d="M225.82,251.57l0,.23C225.64,251.68,225.64,251.68,225.82,251.57Z" transform="translate(-2.5 -2.5)"/></g></svg>